<svg xmlns="http://www.w3.org/2000/svg" xmlns:xlink="http://www.w3.org/1999/xlink" viewBox="0 0 105.12 104.85"><defs><style>.cls-1,.cls-2{fill:none;}.cls-1{clip-rule:evenodd;}.cls-3{clip-path:url(#clip-path);}.cls-4{clip-path:url(#clip-path-2);}.cls-5{fill:#fafafa;}</style><clipPath id="clip-path" transform="translate(-0.01 0)"><polygon class="cls-1" points="0 104.86 105.13 104.86 105.13 0 0 0 0 104.86 0 104.86"/></clipPath><clipPath id="clip-path-2" transform="translate(-0.01 0)"><polygon class="cls-2" points="105.13 104.86 0 104.86 0 0 105.13 0 105.13 104.86 105.13 104.86"/></clipPath></defs><title>Asset 3</title><g id="Layer_2" data-name="Layer 2"><g id="Layer_1-2" data-name="Layer 1"><g class="cls-3"><g class="cls-4"><polygon class="cls-5" points="53.09 33.91 53.09 33.91 62.71 55.38 42.17 55.38 53.09 33.91 53.09 33.91"/><path class="cls-5" d="M105.13,17.38,97.2,81.92,53.26,104.86,8.63,81.65,0,17.08H0L53.26,0l51.87,17.38ZM53.18,12.24h0L19.3,80.06l11.54-.19L38,64.42h29l6.49,15.25,12.07.2L53.18,12.24Z" transform="translate(-0.01 0)"/></g></g></g></g></svg>