<svg xmlns="http://www.w3.org/2000/svg" xmlns:xlink="http://www.w3.org/1999/xlink" viewBox="0 0 57.91 54.75"><defs><style>.cls-1,.cls-2{fill:none;}.cls-1{clip-rule:evenodd;}.cls-3{clip-path:url(#clip-path);}.cls-4{clip-path:url(#clip-path-2);}.cls-5{fill:#fafafa;}</style><clipPath id="clip-path"><polygon class="cls-1" points="0 54.71 57.9 54.71 57.9 0 0 0 0 54.71 0 54.71"/></clipPath><clipPath id="clip-path-2"><polygon class="cls-2" points="0 54.71 57.9 54.71 57.9 0 0 0 0 54.71 0 54.71"/></clipPath></defs><title>Asset 4</title><g id="Layer_2" data-name="Layer 2"><g id="Layer_1-2" data-name="Layer 1"><g class="cls-3"><g class="cls-4"><path class="cls-5" d="M35.39,19.47a4.37,4.37,0,0,0-4.51-4.26H24v8.36h6.91a4.25,4.25,0,0,0,4.51-4.1Z"/><path class="cls-5" d="M32.17,30.42h-8v9.12h8a4.57,4.57,0,1,0,0-9.12Z"/><path class="cls-5" d="M49.86,0H8A7.76,7.76,0,0,0,0,7.6V47.14a7.76,7.76,0,0,0,8,7.61H49.86a7.76,7.76,0,0,0,8-7.61V7.6a7.76,7.76,0,0,0-8-7.6ZM41.5,42.89c-2.41,1.82-5.79,2.73-10.3,2.73H14.48V9.12h15A16.47,16.47,0,0,1,39.57,12a8.45,8.45,0,0,1,3.86,7.46,9.54,9.54,0,0,1-1.29,4.86,7.37,7.37,0,0,1-3,2.74,8.24,8.24,0,0,1,4.5,2.74,8.61,8.61,0,0,1,1.61,5c-.16,3.65-1.29,6.23-3.7,8.06Z"/></g></g></g></g></svg>