<svg xmlns="http://www.w3.org/2000/svg" viewBox="0 0 136.35 153.26"><defs><style>.cls-1{fill:#fff;}</style></defs><title>Asset 1</title><g id="Layer_2" data-name="Layer 2"><g id="Layer_1-2" data-name="Layer 1"><path class="cls-1" d="M136.35,45.05a13.56,13.56,0,0,0-1.66-6.8,13,13,0,0,0-4.94-4.81Q102.53,17.74,75.29,2.06c-4.9-2.82-9.64-2.72-14.5.15-7.22,4.26-43.39,25-54.17,31.22A12.62,12.62,0,0,0,0,45.05V108.2a13.6,13.6,0,0,0,1.59,6.67,13,13,0,0,0,5,4.94c10.78,6.24,47,27,54.18,31.23,4.86,2.86,9.6,3,14.5.14q27.21-15.72,54.47-31.38a12.94,12.94,0,0,0,5-4.93,13.64,13.64,0,0,0,1.59-6.68S136.36,66.1,136.35,45.05Zm-68.1,77A45.35,45.35,0,0,1,29,99.38h0A45.34,45.34,0,1,1,107.51,54L96.07,60.65l-8.19,4.73a22.67,22.67,0,1,0-39.59,22.1l.33.57h0a22.67,22.67,0,0,0,39.27,0L107.51,99.4A45.52,45.52,0,0,1,68.25,122.05Zm45.33-42.81h-5v5h-5v-5h-5v-5h5v-5h5v5h5Zm18.89,0h-5v5h-5v-5h-5v-5h5v-5h5v5h5Z"/></g></g></svg>