<svg xmlns="http://www.w3.org/2000/svg" viewBox="0 0 136.35 221.34"><defs><style>.cls-1{fill:#fff;}</style></defs><title>Asset 14</title><g id="Layer_2" data-name="Layer 2"><g id="Layer_1-2" data-name="Layer 1"><path class="cls-1" d="M50.11,221.34a13.23,13.23,0,0,1-4.93-.89,10.49,10.49,0,0,1-3.81-2.59,11.69,11.69,0,0,1-2.46-4.2,17.36,17.36,0,0,1-.87-5.72,15.6,15.6,0,0,1,1-5.71,12.41,12.41,0,0,1,2.65-4.2,11,11,0,0,1,3.89-2.59,12.59,12.59,0,0,1,4.73-.89,16.66,16.66,0,0,1,2.87.22,17.47,17.47,0,0,1,2.22.52,10.29,10.29,0,0,1,1.53.59,8.54,8.54,0,0,1,.82.45l-1,3a5.94,5.94,0,0,0-1-.49c-.42-.17-.89-.34-1.42-.51a12,12,0,0,0-1.74-.43,11.12,11.12,0,0,0-1.91-.17,9.09,9.09,0,0,0-3.66.71,7.58,7.58,0,0,0-2.78,2,9.17,9.17,0,0,0-1.75,3.24,13.84,13.84,0,0,0-.62,4.27,15.12,15.12,0,0,0,.54,4.18A9.29,9.29,0,0,0,44,215.36a7.25,7.25,0,0,0,2.68,2.09,8.85,8.85,0,0,0,3.76.74,13.66,13.66,0,0,0,4.11-.52,18.26,18.26,0,0,0,2.44-.92l.92,3a5.07,5.07,0,0,1-.92.46,11.77,11.77,0,0,1-1.67.54,20.33,20.33,0,0,1-2.33.44A20,20,0,0,1,50.11,221.34Z"/><path class="cls-1" d="M60.8,208.24h7v-7.62h3v7.62h7v2.92h-7v7.66h-3v-7.66h-7Z"/><path class="cls-1" d="M81.67,208.24h7v-7.62h3v7.62h7v2.92h-7v7.66h-3v-7.66h-7Z"/><path class="cls-1" d="M136.34,45.05a13.54,13.54,0,0,0-1.66-6.8,13,13,0,0,0-4.94-4.81Q102.52,17.74,75.28,2.06c-4.9-2.82-9.64-2.72-14.5.15-7.22,4.26-43.39,25-54.17,31.22A12.6,12.6,0,0,0,0,45.05Q0,76.63,0,108.2a13.59,13.59,0,0,0,1.59,6.67,13,13,0,0,0,5,4.94c10.78,6.24,47,27,54.18,31.23,4.86,2.86,9.6,3,14.5.14q27.21-15.72,54.47-31.38a13,13,0,0,0,5-4.93,13.66,13.66,0,0,0,1.59-6.68S136.35,66.1,136.34,45.05Zm-68.1,77A45.36,45.36,0,0,1,29,99.38h0A45.33,45.33,0,0,1,107.5,54L96.06,60.65l-8.19,4.73A22.67,22.67,0,1,0,48.61,88.05h0a22.67,22.67,0,0,0,39.27,0L107.5,99.4A45.51,45.51,0,0,1,68.24,122.05Zm45.33-42.81h-5v5h-5v-5h-5v-5h5v-5h5v5h5Zm18.89,0h-5v5h-5v-5h-5v-5h5v-5h5v5h5Z"/></g></g></svg>