<svg xmlns="http://www.w3.org/2000/svg" viewBox="0 0 171.29 223.05"><defs><style>.cls-1{fill:#fff;}</style></defs><title>css</title><g id="Layer_2" data-name="Layer 2"><g id="Layer_1-2" data-name="Layer 1"><path class="cls-1" d="M25.49,0,19.74,28.76H136.79l-3.66,18.58H16L10.34,76.09h117l-6.53,32.8L73.68,124.51,32.8,108.89l2.79-14.23H6.84L0,129.18l67.62,25.88,77.95-25.88L171.29,0Z"/><path class="cls-1" d="M58.08,223.05a13.18,13.18,0,0,1-4.92-.89,10.37,10.37,0,0,1-3.81-2.59,11.61,11.61,0,0,1-2.46-4.2,17.3,17.3,0,0,1-.87-5.71,15.41,15.41,0,0,1,1-5.72,12.33,12.33,0,0,1,2.64-4.2,11.25,11.25,0,0,1,3.89-2.59,12.67,12.67,0,0,1,4.73-.89,17.73,17.73,0,0,1,2.87.22,19.37,19.37,0,0,1,2.22.52,12.32,12.32,0,0,1,1.54.59q.58.3.81.45l-1,3a5.81,5.81,0,0,0-1-.48c-.42-.17-.89-.35-1.42-.52a13,13,0,0,0-1.74-.43,11,11,0,0,0-1.91-.16,9.15,9.15,0,0,0-3.66.7,7.57,7.57,0,0,0-2.77,2,9.06,9.06,0,0,0-1.76,3.23,13.91,13.91,0,0,0-.61,4.28,15.57,15.57,0,0,0,.53,4.18A9.38,9.38,0,0,0,52,217.08a7.31,7.31,0,0,0,2.69,2.09,8.93,8.93,0,0,0,3.75.74,14,14,0,0,0,4.11-.52,18.9,18.9,0,0,0,2.44-.93l.93,3a5.12,5.12,0,0,1-.93.47,13.15,13.15,0,0,1-1.66.53,23.33,23.33,0,0,1-2.34.45A21.38,21.38,0,0,1,58.08,223.05Z"/><path class="cls-1" d="M76.32,219.94q5.63,0,5.62-3.85a3.77,3.77,0,0,0-.5-2,4.62,4.62,0,0,0-1.35-1.44,9.17,9.17,0,0,0-1.94-1.06c-.73-.3-1.5-.59-2.31-.89a22.91,22.91,0,0,1-2.67-1.09A9.82,9.82,0,0,1,71,208.16a6.37,6.37,0,0,1-1.46-2A6.5,6.5,0,0,1,69,203.4a6.43,6.43,0,0,1,2.3-5.25,9.66,9.66,0,0,1,6.32-1.89,16.83,16.83,0,0,1,4.24.5,10,10,0,0,1,2.79,1.09l-1.14,2.93a10.27,10.27,0,0,0-2.31-.95,12.45,12.45,0,0,0-3.58-.46,7.78,7.78,0,0,0-1.92.22,4.85,4.85,0,0,0-1.55.67A3.14,3.14,0,0,0,72.69,203a3.45,3.45,0,0,0,.41,1.74A3.93,3.93,0,0,0,74.25,206,9.6,9.6,0,0,0,76,207c.65.29,1.37.59,2.16.88,1.11.45,2.13.89,3.06,1.34a9.82,9.82,0,0,1,2.4,1.59,6.29,6.29,0,0,1,1.57,2.2,7.72,7.72,0,0,1,.56,3.09,6.06,6.06,0,0,1-2.46,5.18,11.53,11.53,0,0,1-6.94,1.81,18.48,18.48,0,0,1-2.79-.2,23.05,23.05,0,0,1-2.28-.48,14.1,14.1,0,0,1-1.72-.6c-.48-.21-.86-.38-1.13-.53l1.07-3a16.35,16.35,0,0,0,2.59,1.07A13.19,13.19,0,0,0,76.32,219.94Z"/><path class="cls-1" d="M96,219.94q5.63,0,5.63-3.85a3.87,3.87,0,0,0-.5-2,4.74,4.74,0,0,0-1.35-1.44,9.7,9.7,0,0,0-1.94-1.06c-.73-.3-1.5-.59-2.32-.89a23.48,23.48,0,0,1-2.66-1.09,9.66,9.66,0,0,1-2.19-1.44,6.37,6.37,0,0,1-1.46-2,6.66,6.66,0,0,1-.53-2.78A6.42,6.42,0,0,1,91,198.15a9.67,9.67,0,0,1,6.33-1.89,17,17,0,0,1,4.24.5,10.12,10.12,0,0,1,2.79,1.09l-1.15,2.93a10.27,10.27,0,0,0-2.31-.95,12.42,12.42,0,0,0-3.57-.46,7.92,7.92,0,0,0-1.93.22,4.85,4.85,0,0,0-1.55.67A3.16,3.16,0,0,0,92.38,203a3.45,3.45,0,0,0,.4,1.74A4.18,4.18,0,0,0,93.93,206a10,10,0,0,0,1.72,1c.65.29,1.38.59,2.17.88,1.11.45,2.12.89,3.05,1.34a9.82,9.82,0,0,1,2.4,1.59,6.32,6.32,0,0,1,1.58,2.2,7.73,7.73,0,0,1,.55,3.09,6.06,6.06,0,0,1-2.46,5.18q-2.46,1.81-6.94,1.81a18.48,18.48,0,0,1-2.79-.2q-1.27-.21-2.28-.48a14.1,14.1,0,0,1-1.72-.6c-.48-.21-.85-.38-1.12-.53l1.07-3a16,16,0,0,0,2.59,1.07A13.17,13.17,0,0,0,96,219.94Z"/><path class="cls-1" d="M114.91,220q3.3,0,4.72-1.3a4.45,4.45,0,0,0,1.42-3.47,4.39,4.39,0,0,0-.59-2.37,4.57,4.57,0,0,0-1.55-1.54,6.92,6.92,0,0,0-2.24-.81,14.08,14.08,0,0,0-2.61-.24h-.89v-2.81h1.22a9.81,9.81,0,0,0,1.91-.19,5.42,5.42,0,0,0,1.79-.66,3.91,3.91,0,0,0,1.33-1.32,4.44,4.44,0,0,0,.15-3.86,3.5,3.5,0,0,0-1-1.23,3.73,3.73,0,0,0-1.4-.68,6.63,6.63,0,0,0-1.69-.2,7.89,7.89,0,0,0-3,.51,13,13,0,0,0-2.09,1.08l-1.34-2.63c.3-.2.68-.41,1.13-.65a11.71,11.71,0,0,1,1.54-.64,13.55,13.55,0,0,1,1.83-.5,9.76,9.76,0,0,1,2-.21,11.15,11.15,0,0,1,3.52.5,6.54,6.54,0,0,1,2.44,1.41,5.78,5.78,0,0,1,1.44,2.14,7.39,7.39,0,0,1,.49,2.69,5.31,5.31,0,0,1-1.15,3.42,7.49,7.49,0,0,1-2.78,2.16,8.47,8.47,0,0,1,1.93.85,6.17,6.17,0,0,1,1.61,1.41,7.62,7.62,0,0,1,1.11,2,7,7,0,0,1,.42,2.48,8.24,8.24,0,0,1-.57,3.09,6.33,6.33,0,0,1-1.78,2.46,8.74,8.74,0,0,1-3,1.63,14.05,14.05,0,0,1-4.3.59,13.37,13.37,0,0,1-2-.15,19.05,19.05,0,0,1-1.91-.37c-.59-.15-1.11-.29-1.55-.44a8.21,8.21,0,0,1-1-.37l.67-3a20.05,20.05,0,0,0,2.09.78A11.55,11.55,0,0,0,114.91,220Z"/></g></g></svg>