<svg xmlns="http://www.w3.org/2000/svg" viewBox="0 0 188.74 221.15"><defs><style>.cls-1{fill:#fff;}</style></defs><title>Asset 14</title><g id="Layer_2" data-name="Layer 2"><g id="Layer_1-2" data-name="Layer 1"><path class="cls-1" d="M123.19,65.79c1.34-5.5,1.17-10.66-1.83-17.89,0,0,4.83,1.88,4.33-1.84s-5.82-7.64-9.82-10.11A45.1,45.1,0,0,0,103,31.1l1.2-2.69-.34-.17c-9.9-4.82-21.35-.45-21.47-.4L82,28l1.13,3a39.66,39.66,0,0,0-9.6,3.58C46.66,48.88,60.31,76.83,68.63,83.49s4.49,20.22,0,32.51h36.14c.5-2.3.06,1.13,1.75-8s8.17-5.77,13.29-6.07S124.12,98,124.06,94c2.49-1.13,2.49-2.31.82-3.75,2.17-2,1.83-2,.67-4s-.33-2.87-.33-2.87,3.5-.68,4-2.53c.14-4-7.35-9.66-6-15.13Zm-7.46-1.16-5.35-1.82c-.29.74-3,7.53-6.57,8.73l-3.38-4.47c-1.62,1.27-5.33,2.39-7.11,1.87v-.16h-.1l.1,12.31c-7.1.73-15.59-3.57-19.65-9.49L69.23,75c-5-6.1-5.82-13.45-5.87-17.69h6c0-4.68,1.83-10.78,4.41-14.15l4.67,3.3c.38-.47,3.9-4.69,8.61-6.21h.08L83.72,31.3c7.13-2.05,12.36-2,18,.1a1.78,1.78,0,0,1,.5.24l.1.07-1,2.66c.27.11,4,1.81,5.61,3.4L108.19,36a21.47,21.47,0,0,1,9.61,12.81l-1.94.69v-.05A28,28,0,0,1,115.73,64.63Z"/><path class="cls-1" d="M93.43,155.06a4.89,4.89,0,0,1-2.39-.62L32.63,122.32a5,5,0,0,1-2.53-3.82L20.64,29.07a4.93,4.93,0,0,1,3.28-5.2L91.06.27a5,5,0,0,1,3.25,0L162.9,23.85a5,5,0,0,1,3.31,5.29L155.3,118.58a5,5,0,0,1-2.48,3.71L95.87,154.42a5,5,0,0,1-2.44.64Zm-55.6-38.93,55.6,30.58,54.2-30.57L158,30.57,92.71,8.08,28.79,30.57Z"/><path class="cls-1" d="M93,48.36a6,6,0,1,0,6,6h0A6,6,0,0,0,93,48.36Z"/><path class="cls-1" d="M21.05,207.75a14.86,14.86,0,0,1-1,5.79,10.68,10.68,0,0,1-2.93,4.07A12.22,12.22,0,0,1,12.58,220a19.88,19.88,0,0,1-5.77.79c-1,0-2.18,0-3.42-.13A20.29,20.29,0,0,1,0,220.19V195.32a21.33,21.33,0,0,1,3.39-.5c1.24-.08,2.38-.13,3.42-.13a19.87,19.87,0,0,1,5.77.8,12.35,12.35,0,0,1,4.51,2.4A10.76,10.76,0,0,1,20,202,14.86,14.86,0,0,1,21.05,207.75ZM7.1,217.67q5.12,0,7.63-2.61c1.67-1.74,2.51-4.17,2.51-7.31s-.84-5.57-2.51-7.3-4.22-2.61-7.63-2.61c-1,0-1.79,0-2.35,0s-.94,0-1.16.08v19.61c.22,0,.61.05,1.16.07S6.09,217.67,7.1,217.67Z"/><path class="cls-1" d="M42.81,220.59c-.42-1.11-.81-2.2-1.18-3.27L40.48,214H28.86l-2.33,6.55H22.79c1-2.71,1.91-5.22,2.78-7.53s1.7-4.49,2.53-6.56,1.65-4.06,2.46-5.94,1.67-3.76,2.56-5.61h3.29q1.34,2.78,2.55,5.61c.82,1.88,1.63,3.86,2.46,5.94s1.67,4.26,2.54,6.56,1.78,4.82,2.77,7.53Zm-3.37-9.51q-1.19-3.21-2.35-6.23t-2.42-5.79q-1.29,2.77-2.46,5.79t-2.31,6.23Z"/><path class="cls-1" d="M65,195v3.11H56.91v22.53H53.32V198.06H45.25V195Z"/><path class="cls-1" d="M83.51,220.59c-.42-1.11-.81-2.2-1.18-3.27s-.76-2.17-1.15-3.28H69.56l-2.33,6.55H63.49c1-2.71,1.91-5.22,2.78-7.53s1.7-4.49,2.53-6.56,1.65-4.06,2.46-5.94,1.67-3.76,2.56-5.61h3.29q1.33,2.78,2.55,5.61c.82,1.88,1.63,3.86,2.46,5.94s1.67,4.26,2.54,6.56,1.78,4.82,2.77,7.53Zm-3.37-9.51q-1.19-3.21-2.35-6.23t-2.42-5.79q-1.29,2.77-2.46,5.79t-2.31,6.23Z"/><path class="cls-1" d="M101.23,221.15a13.18,13.18,0,0,1-4.92-.89,10.49,10.49,0,0,1-3.81-2.59,11.61,11.61,0,0,1-2.46-4.2,17.36,17.36,0,0,1-.87-5.72,15.6,15.6,0,0,1,1-5.71,12.25,12.25,0,0,1,2.65-4.2,11.07,11.07,0,0,1,3.88-2.59,12.68,12.68,0,0,1,4.74-.89,16.54,16.54,0,0,1,2.86.22,17.07,17.07,0,0,1,2.22.52,10.93,10.93,0,0,1,1.54.59,8,8,0,0,1,.81.45l-1,3a6.4,6.4,0,0,0-1-.49c-.42-.17-.9-.34-1.43-.51a11.65,11.65,0,0,0-1.74-.43,11,11,0,0,0-1.9-.17,9.17,9.17,0,0,0-3.67.71,7.55,7.55,0,0,0-2.77,2,9.19,9.19,0,0,0-1.76,3.24,13.89,13.89,0,0,0-.61,4.27,15.12,15.12,0,0,0,.54,4.18,9,9,0,0,0,1.61,3.24,7.17,7.17,0,0,0,2.68,2.09,8.78,8.78,0,0,0,3.75.74,13.57,13.57,0,0,0,4.11-.52,17.23,17.23,0,0,0,2.44-.92l.93,3a4.91,4.91,0,0,1-.93.46,11.59,11.59,0,0,1-1.66.54,20.76,20.76,0,0,1-2.33.44A20,20,0,0,1,101.23,221.15Z"/><path class="cls-1" d="M131.09,220.59c-.42-1.11-.81-2.2-1.18-3.27s-.76-2.17-1.15-3.28H117.14l-2.33,6.55h-3.74c1-2.71,1.91-5.22,2.78-7.53s1.71-4.49,2.53-6.56,1.65-4.06,2.46-5.94,1.67-3.76,2.56-5.61h3.29q1.34,2.78,2.55,5.61t2.46,5.94c.83,2.07,1.67,4.26,2.54,6.56s1.79,4.82,2.77,7.53Zm-3.37-9.51q-1.18-3.21-2.35-6.23T123,199.06q-1.29,2.77-2.46,5.79t-2.31,6.23Z"/><path class="cls-1" d="M150,217c-.25-.59-.58-1.34-1-2.26l-1.32-3q-.7-1.59-1.5-3.27c-.53-1.12-1-2.18-1.49-3.18s-.91-1.9-1.32-2.69-.73-1.39-1-1.81q-.41,4.37-.66,9.46t-.45,10.26h-3.51c.09-2.22.21-4.46.33-6.71s.26-4.48.42-6.66.34-4.31.52-6.39.39-4,.61-5.88h3.15c.66,1.09,1.38,2.37,2.14,3.85s1.53,3,2.3,4.64,1.5,3.23,2.22,4.85,1.37,3.09,2,4.42l2-4.42c.72-1.62,1.46-3.23,2.22-4.85s1.53-3.16,2.3-4.64,1.47-2.76,2.14-3.85h3.15q1.24,12.41,1.88,25.64h-3.51c-.13-3.45-.27-6.87-.45-10.26s-.39-6.55-.66-9.46c-.25.42-.58,1-1,1.81s-.85,1.69-1.32,2.69-1,2.06-1.5,3.18-1,2.21-1.49,3.27l-1.32,3c-.4.92-.73,1.67-1,2.26Z"/><path class="cls-1" d="M177.52,194.69c3.61,0,6.37.69,8.31,2.06a7,7,0,0,1,2.91,6.12,8.32,8.32,0,0,1-.8,3.79,6.64,6.64,0,0,1-2.29,2.56,10.67,10.67,0,0,1-3.65,1.42,23.79,23.79,0,0,1-4.85.44h-2.84v9.51h-3.59V195.32a21.37,21.37,0,0,1,3.38-.5C175.35,194.74,176.49,194.69,177.52,194.69Zm.3,3.15c-1.53,0-2.7,0-3.51.11V208H177a21,21,0,0,0,3.33-.24,7.52,7.52,0,0,0,2.49-.81,4,4,0,0,0,1.58-1.57,5.25,5.25,0,0,0,.55-2.56,4.74,4.74,0,0,0-.57-2.44,4.32,4.32,0,0,0-1.56-1.53,6.57,6.57,0,0,0-2.27-.8A16.09,16.09,0,0,0,177.82,197.84Z"/></g></g></svg>