<svg xmlns="http://www.w3.org/2000/svg" viewBox="0 0 449.25 462.8"><defs><style>.cls-1{fill:#385c75;}.cls-2{fill:#526975;}.cls-3{fill:none;stroke:#7df0f9;stroke-linecap:round;stroke-linejoin:round;stroke-width:0.75px;}</style></defs><title>Asset 31</title><g id="Layer_2" data-name="Layer 2"><g id="Layer_5" data-name="Layer 5"><path class="cls-1" d="M356.18,76.85a159.07,159.07,0,0,1,23.46,82.54A98.59,98.59,0,0,0,203.88,99.33a61.37,61.37,0,0,0-52,43.49c2.49-.13,5-.2,7.49-.21h1.27l1.69,0h.88a98.58,98.58,0,0,1,56.39,177.56A159.7,159.7,0,0,1,60.73,177.37,159.93,159.93,0,0,1,356.18,76.85Z"/><path class="cls-2" d="M312.72,254.05a157.42,157.42,0,0,1,6.56,31.38,159.19,159.19,0,0,1-99.55,34.76h-.11a98.5,98.5,0,0,0,38.43-63.65,99.8,99.8,0,0,0,1.19-15.36,98.48,98.48,0,0,0-96-98.55A160,160,0,0,1,312.72,254.05Z"/><circle class="cls-3" cx="210.7" cy="160.28" r="61.33"/><circle class="cls-3" cx="219.73" cy="160.28" r="159.91"/><circle class="cls-3" cx="288.97" cy="221.99" r="159.91"/><circle class="cls-3" cx="160.28" cy="302.51" r="159.91"/><circle class="cls-3" cx="281.06" cy="160.66" r="98.58"/><circle class="cls-3" cx="160.66" cy="241.18" r="98.58"/></g></g></svg>