<?xml version="1.0" encoding="utf-8"?>
<!-- Generator: Adobe Illustrator 24.0.0, SVG Export Plug-In . SVG Version: 6.00 Build 0)  -->
<svg version="1.1" id="Layer_1" xmlns="http://www.w3.org/2000/svg" xmlns:xlink="http://www.w3.org/1999/xlink" x="0px" y="0px"
	 viewBox="0 0 323.1 287.9" style="enable-background:new 0 0 323.1 287.9;" xml:space="preserve">
<style type="text/css">
	.st0{fill:#5354D4;}
	.st1{opacity:0.2;}
	.st2{fill:#00004A;fill-opacity:0;}
	.st3{opacity:9.000000e-02;fill:#00004A;enable-background:new    ;}
	.st4{opacity:0.18;fill:#00004A;enable-background:new    ;}
	.st5{opacity:0.27;fill:#00004A;enable-background:new    ;}
	.st6{opacity:0.36;fill:#00004A;enable-background:new    ;}
	.st7{opacity:0.45;fill:#00004A;enable-background:new    ;}
	.st8{opacity:0.55;fill:#00004A;enable-background:new    ;}
	.st9{opacity:0.64;fill:#00004A;enable-background:new    ;}
	.st10{opacity:0.73;fill:#00004A;enable-background:new    ;}
	.st11{opacity:0.82;fill:#00004A;enable-background:new    ;}
	.st12{opacity:0.91;fill:#00004A;enable-background:new    ;}
	.st13{fill:#00004A;}
	.st14{fill:url(#SVGID_1_);}
	.st15{fill:url(#SVGID_2_);}
	.st16{fill:url(#SVGID_3_);}
	.st17{fill:url(#SVGID_4_);}
	.st18{fill:url(#SVGID_5_);}
	.st19{fill:#262584;}
	.st20{fill:#4137A9;}
	.st21{fill:url(#SVGID_6_);}
	.st22{fill:url(#SVGID_7_);}
	.st23{fill:url(#SVGID_8_);}
	.st24{fill:url(#SVGID_9_);}
	.st25{fill:url(#SVGID_10_);}
	.st26{fill:url(#SVGID_11_);}
	.st27{fill:url(#SVGID_12_);}
	.st28{fill:#BCB7FF;}
	.st29{opacity:2.000000e-02;fill:#00004A;enable-background:new    ;}
	.st30{opacity:5.000000e-02;fill:#00004A;enable-background:new    ;}
	.st31{opacity:7.000000e-02;fill:#00004A;enable-background:new    ;}
	.st32{opacity:0.1;fill:#00004A;enable-background:new    ;}
	.st33{opacity:0.12;fill:#00004A;enable-background:new    ;}
	.st34{opacity:0.15;fill:#00004A;enable-background:new    ;}
	.st35{opacity:0.17;fill:#00004A;enable-background:new    ;}
	.st36{opacity:0.2;fill:#00004A;enable-background:new    ;}
	.st37{opacity:0.22;fill:#00004A;enable-background:new    ;}
	.st38{opacity:0.25;fill:#00004A;enable-background:new    ;}
	.st39{opacity:0.3;fill:#00004A;enable-background:new    ;}
	.st40{fill:url(#SVGID_13_);}
	.st41{fill:url(#SVGID_14_);}
	.st42{fill:#FFFFFF;}
	.st43{fill:#7B81FF;}
	.st44{fill:url(#SVGID_15_);}
	.st45{fill:url(#SVGID_16_);}
	.st46{fill:url(#SVGID_17_);}
	.st47{fill:url(#SVGID_18_);}
	.st48{fill:url(#SVGID_19_);}
	.st49{fill:#B8A6FF;}
	.st50{fill:#E7E7FF;}
	.st51{fill:url(#SVGID_20_);}
	.st52{fill:url(#SVGID_21_);}
	.st53{fill:#8275FE;}
	.st54{opacity:0.4;fill:#8275FE;enable-background:new    ;}
	.st55{opacity:0.1;fill:#8275FE;enable-background:new    ;}
</style>
<title>Asset 1</title>
<g>
	<g id="Layer_2_1_">
		<g id="Layer_1-2">
			<path class="st0" d="M278.6,161.8c-0.2,0-0.3-0.1-0.4-0.2c-0.1-0.2-0.1-0.5,0.1-0.7c0,0,0,0,0,0l1.7-1c0.2-0.1,0.5-0.1,0.7,0.2
				c0,0,0,0,0,0c0.1,0.2,0.1,0.5-0.2,0.7l-1.7,1C278.8,161.7,278.7,161.8,278.6,161.8z M282,159.8c-0.2,0-0.3-0.1-0.4-0.2
				c-0.1-0.2-0.1-0.5,0.2-0.7l1.7-1c0.2-0.1,0.5-0.1,0.7,0.2c0.1,0.2,0.1,0.5-0.2,0.7l-1.7,1C282.2,159.7,282.1,159.7,282,159.8
				L282,159.8z M285.5,157.8c-0.3,0-0.5-0.2-0.5-0.5c0-0.2,0.1-0.3,0.2-0.4l1.7-1c0.2-0.1,0.5-0.1,0.7,0.2c0.1,0.2,0.1,0.5-0.2,0.7
				l-1.7,1C285.7,157.7,285.6,157.7,285.5,157.8L285.5,157.8z M288.9,155.8c-0.2,0-0.3-0.1-0.4-0.2c-0.1-0.2-0.1-0.5,0.2-0.7l1.7-1
				c0.2-0.1,0.5-0.1,0.7,0.2s0.1,0.5-0.2,0.7c0,0,0,0,0,0l-1.7,1C289.1,155.7,289,155.7,288.9,155.8L288.9,155.8z M292.4,153.8
				c-0.3,0-0.5-0.2-0.5-0.5c0-0.2,0.1-0.3,0.2-0.4l1.7-1c0.2-0.1,0.5-0.1,0.7,0.2s0.1,0.5-0.2,0.7c0,0,0,0,0,0l-1.7,1
				c-0.1,0-0.2,0-0.3-0.1V153.8z M295.8,151.8c-0.3,0-0.5-0.2-0.5-0.5c0-0.2,0.1-0.3,0.2-0.4l1.7-1c0.2-0.1,0.5-0.1,0.7,0.2
				c0,0,0,0,0,0c0.1,0.2,0.1,0.5-0.2,0.7l-1.7,1c-0.1,0-0.2,0-0.3-0.1L295.8,151.8z M299.3,149.8c-0.2,0-0.3-0.1-0.4-0.2
				c-0.1-0.2-0.1-0.5,0.2-0.7l1.7-1c0.2-0.1,0.5-0.1,0.7,0.2s0.1,0.5-0.2,0.7c0,0,0,0,0,0l-1.7,1c-0.1,0-0.2,0-0.3-0.1L299.3,149.8z
				 M302.7,147.8c-0.3,0-0.5-0.2-0.5-0.5c0-0.2,0.1-0.3,0.2-0.4l1.7-1c0.2-0.1,0.5-0.1,0.7,0.2s0.1,0.5-0.2,0.7c0,0,0,0,0,0l-1.7,1
				c-0.1,0-0.2-0.1-0.3-0.1L302.7,147.8z M306.2,145.8c-0.3,0-0.5-0.2-0.5-0.5c0-0.2,0.1-0.3,0.2-0.4l1.7-1c0.2-0.1,0.5-0.1,0.7,0.2
				c0,0,0,0,0,0c0.1,0.2,0.1,0.5-0.2,0.7l-1.7,1c-0.1,0-0.2-0.1-0.3-0.2L306.2,145.8z M309.6,143.8c-0.2,0-0.3-0.1-0.4-0.3
				c-0.1-0.2-0.1-0.5,0.2-0.7l1.7-1c0.2-0.1,0.5-0.1,0.7,0.1c0,0,0,0,0,0c0.1,0.2,0.1,0.5-0.2,0.7l-1.7,1c-0.1,0-0.2-0.1-0.3-0.2
				L309.6,143.8z M313.1,141.8c-0.3,0-0.5-0.2-0.5-0.5c0-0.2,0.1-0.3,0.2-0.4l1.7-1c0.2-0.1,0.5-0.1,0.7,0.1c0,0,0,0,0,0
				c0.1,0.2,0.1,0.5-0.2,0.7l-1.7,1c-0.1,0-0.2-0.1-0.3-0.2L313.1,141.8z M316.5,139.8c-0.2,0-0.3-0.1-0.4-0.3
				c-0.1-0.2-0.1-0.5,0.2-0.7l1.7-1c0.2-0.1,0.5-0.1,0.7,0.2c0,0,0,0,0,0c0.1,0.2,0.1,0.5-0.2,0.7l-1.7,1c-0.1,0-0.2-0.1-0.3-0.3
				L316.5,139.8z M320,137.8c-0.2,0-0.3-0.1-0.4-0.3c-0.1-0.2-0.1-0.5,0.2-0.7l1.7-1c0.2-0.1,0.5-0.1,0.7,0.2
				c0.1,0.2,0.1,0.5-0.2,0.7l-1.7,1c-0.1-0.1-0.2-0.2-0.2-0.3L320,137.8z M322.6,135.3c-0.3,0-0.5-0.2-0.5-0.5v-2
				c0-0.3,0.2-0.5,0.5-0.5s0.5,0.2,0.5,0.5v2c-0.1,0.1-0.3,0.2-0.5,0.1L322.6,135.3z M322.6,131.3c-0.3,0-0.5-0.2-0.5-0.5v-2
				c0-0.3,0.2-0.5,0.5-0.5s0.5,0.2,0.5,0.5v2c-0.1,0.1-0.3,0.2-0.5,0.1L322.6,131.3z M322.6,127.3c-0.3,0-0.5-0.2-0.5-0.5v-2
				c0-0.3,0.2-0.5,0.5-0.5s0.5,0.2,0.5,0.5v2c-0.1,0.1-0.3,0.2-0.5,0.1L322.6,127.3z M322.6,123.3c-0.3,0-0.5-0.2-0.5-0.5v-2
				c0-0.3,0.2-0.5,0.5-0.5s0.5,0.2,0.5,0.5v2c-0.1,0.1-0.3,0.2-0.5,0.1L322.6,123.3z M322.6,119.3c-0.3,0-0.5-0.2-0.5-0.5v-2
				c0-0.3,0.2-0.5,0.5-0.5s0.5,0.2,0.5,0.5v2c-0.1,0.1-0.3,0.2-0.5,0.1L322.6,119.3z M322.6,115.3c-0.3,0-0.5-0.2-0.5-0.5v-2
				c0-0.3,0.2-0.5,0.5-0.5s0.5,0.2,0.5,0.5v2c-0.1,0.1-0.3,0.2-0.5,0.1L322.6,115.3z M322.6,111.3c-0.3,0-0.5-0.2-0.5-0.5v-2
				c0-0.3,0.2-0.5,0.5-0.5s0.5,0.2,0.5,0.5v2c-0.1,0.1-0.3,0.2-0.5,0.1L322.6,111.3z M322.6,107.3c-0.3,0-0.5-0.2-0.5-0.5v-2
				c0-0.3,0.2-0.5,0.5-0.5s0.5,0.2,0.5,0.5v2c-0.1,0.1-0.3,0.2-0.5,0.1L322.6,107.3z M322.6,103.3c-0.3,0-0.5-0.2-0.5-0.5v-0.3
				l-1-0.5c-0.2-0.1-0.3-0.4-0.2-0.7c0.1-0.2,0.4-0.3,0.7-0.2l1.2,0.7c0.2,0.1,0.2,0.3,0.3,0.4v0.6c-0.1,0.1-0.3,0.2-0.5,0.1
				L322.6,103.3z M319.7,100.9c-0.1,0-0.2,0-0.3-0.1l-1.7-1c-0.2-0.1-0.3-0.4-0.2-0.7c0.1-0.2,0.4-0.3,0.7-0.2l1.7,1
				c0.2,0.1,0.3,0.4,0.2,0.7C320,100.8,319.9,100.9,319.7,100.9L319.7,100.9z M316.2,98.9c-0.1,0-0.2,0-0.3-0.1l-1.7-1
				c-0.2-0.1-0.3-0.4-0.2-0.7c0.1-0.2,0.4-0.3,0.7-0.2c0,0,0,0,0,0l1.7,1c0.2,0.1,0.3,0.4,0.2,0.7C316.6,98.8,316.4,98.9,316.2,98.9
				L316.2,98.9z M312.8,96.9c-0.1,0-0.2,0-0.3-0.1l-1.7-1c-0.2-0.1-0.3-0.4-0.2-0.7c0.1-0.2,0.4-0.3,0.7-0.2c0,0,0,0,0,0l1.7,1
				c0.2,0.1,0.3,0.4,0.2,0.7C313.1,96.8,312.9,96.9,312.8,96.9L312.8,96.9z M309.3,94.9c-0.1,0-0.2,0-0.3-0.1l-1.7-1
				c-0.3-0.1-0.4-0.4-0.2-0.7c0.1-0.3,0.4-0.4,0.7-0.2c0,0,0.1,0,0.1,0.1l1.7,1c0.2,0.1,0.3,0.4,0.2,0.7
				C309.6,94.9,309.5,94.9,309.3,94.9L309.3,94.9z M305.9,92.9c-0.1,0-0.2,0-0.3-0.1l-1.7-1c-0.2-0.2-0.3-0.5-0.1-0.7
				c0.1-0.2,0.4-0.3,0.6-0.2l1.7,1c0.2,0.1,0.3,0.4,0.2,0.7C306.2,92.9,306,92.9,305.9,92.9L305.9,92.9z M302.4,90.9
				c-0.1,0-0.2,0-0.3-0.1l-1.7-1c-0.2-0.2-0.3-0.5-0.1-0.7c0.1-0.2,0.4-0.3,0.6-0.2l1.7,1c0.2,0.1,0.3,0.4,0.2,0.7
				c-0.2,0-0.3,0-0.4-0.2L302.4,90.9z M298.9,88.9c-0.1,0-0.2,0-0.3-0.1l-1.7-1c-0.2-0.1-0.3-0.4-0.2-0.7c0,0,0,0,0,0
				c0.1-0.2,0.4-0.3,0.7-0.2l1.7,1c0.2,0.1,0.3,0.4,0.2,0.7c-0.2,0-0.3-0.1-0.4-0.2L298.9,88.9z M295.5,86.9c-0.1,0-0.2,0-0.3-0.1
				l-1.7-1c-0.3-0.1-0.4-0.4-0.2-0.7c0.1-0.3,0.4-0.4,0.7-0.2c0,0,0.1,0,0.1,0.1l1.7,1c0.2,0.1,0.3,0.4,0.2,0.7
				c-0.2,0-0.3-0.1-0.4-0.2L295.5,86.9z M292,84.9c-0.1,0-0.2,0-0.3-0.1l-1.7-1c-0.3-0.1-0.4-0.4-0.2-0.7c0.1-0.3,0.4-0.4,0.7-0.2
				c0,0,0.1,0,0.1,0.1l1.7,1c0.2,0.1,0.3,0.4,0.2,0.7c-0.2,0-0.3-0.1-0.5-0.2L292,84.9z M288.6,82.9c-0.1,0-0.2,0-0.3-0.1l-1.7-1
				c-0.2-0.2-0.3-0.5-0.1-0.7c0.1-0.2,0.4-0.3,0.6-0.2l1.7,1c0.2,0.1,0.3,0.4,0.2,0.7c-0.2,0-0.3-0.1-0.4-0.2L288.6,82.9z
				 M285.1,80.9c-0.1,0-0.2,0-0.3-0.1l-1.7-1c-0.2-0.1-0.3-0.4-0.2-0.7c0.1-0.2,0.4-0.3,0.7-0.2c0,0,0,0,0,0l1.7,1
				c0.2,0.1,0.3,0.4,0.2,0.7C285.4,80.8,285.3,80.9,285.1,80.9L285.1,80.9z M281.6,78.9c-0.1,0-0.2,0-0.3-0.1l-1.7-1
				c-0.2-0.1-0.3-0.4-0.2-0.7c0.1-0.2,0.4-0.3,0.7-0.2c0,0,0,0,0,0l1.7,1c0.2,0.1,0.3,0.4,0.2,0.7C282,78.8,281.8,78.9,281.6,78.9
				L281.6,78.9z M278.2,76.9c-0.1,0-0.2,0-0.3-0.1l-1.7-1c-0.2-0.1-0.3-0.4-0.2-0.7c0.1-0.2,0.4-0.3,0.7-0.2l1.7,1
				c0.2,0.1,0.3,0.4,0.2,0.7C278.5,76.8,278.4,76.9,278.2,76.9L278.2,76.9z M274.7,74.9c-0.1,0-0.2,0-0.3-0.1l-1.7-1
				c-0.2-0.1-0.3-0.4-0.2-0.7c0.1-0.2,0.4-0.3,0.7-0.2l1.7,1c0.2,0.1,0.3,0.4,0.2,0.7c-0.2,0-0.3-0.1-0.4-0.2L274.7,74.9z
				 M271.3,72.9c-0.1,0-0.2,0-0.3-0.1l-1.7-1c-0.2-0.1-0.3-0.4-0.2-0.7c0.1-0.2,0.4-0.3,0.7-0.2l1.7,1c0.2,0.1,0.3,0.4,0.2,0.7
				c0,0,0,0,0,0c-0.2,0-0.3-0.1-0.4-0.2L271.3,72.9z M267.8,70.9c-0.1,0-0.2,0-0.3-0.1l-1.7-1c-0.2-0.1-0.3-0.4-0.2-0.7
				c0.1-0.2,0.4-0.3,0.7-0.2c0,0,0,0,0,0l1.7,1c0.2,0.1,0.3,0.4,0.2,0.7C268.1,70.8,268,70.9,267.8,70.9L267.8,70.9z M264.4,68.9
				c-0.1,0-0.2,0-0.3-0.1l-1.7-1c-0.2-0.1-0.3-0.4-0.2-0.7c0.1-0.2,0.4-0.3,0.7-0.2c0,0,0,0,0,0l1.7,1c0.2,0.1,0.3,0.4,0.2,0.7
				C264.7,68.8,264.5,68.9,264.4,68.9L264.4,68.9z M260.9,66.9c-0.1,0-0.2,0-0.3-0.1l-1.7-1c-0.2-0.1-0.3-0.4-0.2-0.7
				c0.1-0.2,0.4-0.3,0.7-0.2l1.7,1c0.2,0.1,0.3,0.4,0.2,0.7C261.2,66.8,261.1,66.9,260.9,66.9L260.9,66.9z"/>
			<path class="st0" d="M19,166.2l-1.7-1c-0.2-0.1-0.3-0.5-0.2-0.7c0.1-0.2,0.4-0.3,0.7-0.2c0,0,0,0,0,0l1.7,1
				c0.2,0.1,0.3,0.4,0.2,0.7c-0.1,0.2-0.3,0.2-0.4,0.3C19.2,166.3,19.1,166.3,19,166.2z M15.6,164.2l-1.7-1
				c-0.2-0.1-0.3-0.4-0.2-0.7c0.1-0.2,0.4-0.3,0.7-0.2l1.7,1c0.2,0.1,0.3,0.4,0.2,0.7c-0.1,0.2-0.3,0.2-0.4,0.3
				C15.7,164.3,15.6,164.2,15.6,164.2L15.6,164.2z M12.1,162.2l-1.7-1c-0.2-0.1-0.3-0.4-0.2-0.7c0.1-0.2,0.4-0.3,0.7-0.2l1.7,1
				c0.2,0.1,0.3,0.4,0.2,0.7c-0.1,0.2-0.3,0.2-0.4,0.2C12.2,162.3,12.1,162.2,12.1,162.2L12.1,162.2z M8.7,160.2l-1.7-1
				c-0.2-0.1-0.3-0.5-0.2-0.7c0.1-0.2,0.4-0.3,0.7-0.2l1.7,1c0.2,0.1,0.3,0.4,0.2,0.7c-0.1,0.2-0.3,0.2-0.4,0.3
				C8.8,160.3,8.7,160.2,8.7,160.2L8.7,160.2z M5.2,158.2l-1.7-1c-0.2-0.1-0.3-0.4-0.2-0.7c0.1-0.2,0.4-0.3,0.7-0.2l0,0l1.7,1
				c0.2,0.1,0.3,0.4,0.2,0.7c0,0,0,0,0,0c-0.1,0.2-0.3,0.2-0.4,0.3c-0.1,0-0.2-0.1-0.3-0.2L5.2,158.2z M2.3,155.3v-2
				c0-0.3,0.2-0.5,0.5-0.5s0.5,0.2,0.5,0.5v2c0,0.3-0.2,0.5-0.5,0.5C2.5,155.8,2.3,155.6,2.3,155.3c-0.1,0-0.1-0.1,0-0.1L2.3,155.3z
				 M2.3,151.3v-2c0-0.3,0.2-0.5,0.5-0.5s0.5,0.2,0.5,0.5v2c0,0.3-0.2,0.5-0.5,0.5C2.5,151.8,2.3,151.6,2.3,151.3
				c-0.1,0-0.1-0.1,0-0.1L2.3,151.3z M2.3,147.3v-2c0-0.3,0.2-0.5,0.5-0.5s0.5,0.2,0.5,0.5v2c0,0.3-0.2,0.5-0.5,0.5
				C2.5,147.8,2.3,147.6,2.3,147.3c-0.1,0-0.1-0.1,0-0.1L2.3,147.3z M2.3,143.3v-2c0-0.3,0.2-0.5,0.5-0.5s0.5,0.2,0.5,0.5v2
				c0,0.3-0.2,0.5-0.5,0.5C2.5,143.8,2.3,143.6,2.3,143.3c-0.1,0-0.1-0.1,0-0.1L2.3,143.3z M2.3,139.3v-2c0-0.3,0.2-0.5,0.5-0.5
				s0.5,0.2,0.5,0.5v2c0,0.3-0.2,0.5-0.5,0.5C2.5,139.8,2.3,139.6,2.3,139.3c-0.1,0-0.1-0.1,0-0.1L2.3,139.3z M2.3,135.3v-2
				c0-0.3,0.2-0.5,0.5-0.5s0.5,0.2,0.5,0.5v2c0,0.3-0.2,0.5-0.5,0.5C2.5,135.8,2.3,135.6,2.3,135.3c-0.1,0-0.1-0.1,0-0.1L2.3,135.3z
				 M2.3,131.3v-2.6c0-0.2,0.1-0.3,0.3-0.4l1.2-0.7c0.2-0.1,0.5-0.1,0.7,0.2c0.1,0.2,0,0.5-0.2,0.7l-0.9,0.5v2.3
				c0,0.3-0.2,0.5-0.5,0.5C2.5,131.8,2.3,131.6,2.3,131.3c-0.1,0-0.1-0.1,0-0.1L2.3,131.3z M5.3,127.2c-0.1-0.2-0.1-0.5,0.2-0.7
				c0,0,0,0,0,0l1.7-1c0.2-0.1,0.5-0.1,0.7,0.2c0,0,0,0,0,0c0.1,0.2,0.1,0.5-0.2,0.7l-1.7,1c-0.1,0-0.2,0.1-0.3,0.1
				c-0.2,0-0.4-0.2-0.5-0.4L5.3,127.2z M8.8,125.2c-0.1-0.2-0.1-0.5,0.2-0.7c0,0,0,0,0,0l1.7-1c0.2-0.1,0.5-0.1,0.7,0.2c0,0,0,0,0,0
				c0.1,0.2,0.1,0.5-0.2,0.7l-1.7,1c-0.1,0-0.2,0.1-0.3,0.1c-0.2,0-0.4-0.2-0.5-0.4L8.8,125.2z M12.2,123.2
				c-0.1-0.2-0.1-0.5,0.2-0.7c0,0,0,0,0,0l1.7-1c0.2-0.1,0.5-0.1,0.7,0.2c0,0,0,0,0,0c0.1,0.2,0.1,0.5-0.2,0.7l-1.7,1
				c-0.1,0-0.2,0.1-0.3,0.1c-0.2,0-0.4-0.2-0.5-0.4L12.2,123.2z"/>
			<g>
				<path class="st0" d="M231.7,170.8l-27.6,15.9l-27.5-15.9l27.6-15.9L231.7,170.8L231.7,170.8z M233.7,170.8l-29.6-17.1
					l-29.6,17.1l29.6,17.1L233.7,170.8L233.7,170.8z"/>
				<polygon class="st0" points="200,190.2 170.5,173.2 171.7,172.5 201.2,189.5 				"/>
				<polygon class="st0" points="196.6,192.2 167.1,175.2 168.3,174.5 197.8,191.5 				"/>
				<polygon class="st0" points="179.4,186.2 163.7,177.2 164.9,176.5 180.6,185.6 				"/>
				<path class="st0" d="M269.8,192.9l-27.6,15.9l-27.5-15.9l27.5-15.9L269.8,192.9L269.8,192.9z M271.9,192.9l-29.6-17.1
					l-29.6,17.1l29.6,17.1L271.9,192.9L271.9,192.9z"/>
				<polygon class="st0" points="238.1,212.2 208.7,195.2 209.9,194.5 239.3,211.5 				"/>
				<polygon class="st0" points="234.7,214.2 205.3,197.2 206.5,196.5 235.9,213.5 				"/>
				<polygon class="st0" points="217.5,208.3 201.8,199.2 203,198.5 218.7,207.6 				"/>
				<path class="st0" d="M180.5,200.4l-27.6,15.9l-27.5-15.9l27.6-15.9L180.5,200.4L180.5,200.4z M182.5,200.4L153,183.4l-29.6,17.1
					l29.5,17.1L182.5,200.4L182.5,200.4z"/>
				<polygon class="st0" points="148.8,219.8 119.3,202.8 120.5,202.1 149.9,219.1 				"/>
				<polygon class="st0" points="145.3,221.8 115.9,204.8 117.1,204.1 146.5,221.1 				"/>
				<polygon class="st0" points="128.1,215.8 112.4,206.8 113.6,206.1 129.3,215.1 				"/>
				<path class="st0" d="M218.6,222.4l-27.6,15.9l-27.5-15.9l27.6-15.9L218.6,222.4z M220.7,222.4l-29.6-17.1l-29.6,17.1l29.6,17.1
					L220.7,222.4L220.7,222.4z"/>
				<polygon class="st0" points="186.9,241.8 157.5,224.8 158.7,224.1 188.1,241.1 				"/>
				<polygon class="st0" points="183.5,243.8 154.1,226.8 155.2,226.1 184.7,243.1 				"/>
				<polygon class="st0" points="166.3,237.8 150.6,228.8 151.8,228.1 167.5,237.1 				"/>
				<path class="st0" d="M129,230.1L101.4,246L74,230.2l27.6-15.9L129,230.1z M131.1,230.1l-29.6-17.1l-29.6,17.1l29.6,17.1
					L131.1,230.1L131.1,230.1z"/>
				<polygon class="st0" points="97.3,249.5 67.9,232.5 69.1,231.8 98.5,248.8 				"/>
				<polygon class="st0" points="93.9,251.5 64.4,234.5 65.6,233.8 95.1,250.8 				"/>
				<polygon class="st0" points="76.7,245.5 61,236.5 62.2,235.8 77.9,244.8 				"/>
				<path class="st0" d="M167.1,252.1l-27.5,15.9l-27.5-15.9l27.5-15.9L167.1,252.1L167.1,252.1z M169.1,252.1l-29.6-17.1L110,252.2
					l29.5,17.1L169.1,252.1z"/>
				<polygon class="st0" points="135.4,271.5 106,254.5 107.2,253.8 136.6,270.8 				"/>
				<polygon class="st0" points="132,273.5 102.6,256.5 103.8,255.8 133.2,272.8 				"/>
				<polygon class="st0" points="114.8,267.5 99.1,258.5 100.3,257.8 116,266.9 				"/>
				<path class="st0" d="M219.3,141.2l10.1,5.8c0.5,0.2,1,0.2,1.5,0c0.4-0.2,0.4-0.6,0-0.9l-10.1-5.8c-0.5-0.2-1-0.2-1.5,0
					c-0.2,0.1-0.4,0.3-0.3,0.6C219.1,141.1,219.2,141.2,219.3,141.2z M228.3,147.6l-10.1-5.8c-0.5-0.2-1-0.2-1.5,0
					c-0.2,0.1-0.4,0.3-0.3,0.6c0,0.1,0.2,0.2,0.3,0.3l10.1,5.8c0.5,0.2,1,0.2,1.5,0c0.2-0.1,0.4-0.3,0.3-0.6
					C228.6,147.8,228.5,147.7,228.3,147.6L228.3,147.6z M225.8,149.1l-10.1-5.8c-0.5-0.2-1-0.2-1.5,0c-0.4,0.2-0.4,0.6,0,0.9
					l10.1,5.8c0.5,0.2,1,0.2,1.5,0c0.2-0.1,0.4-0.3,0.3-0.5C226.1,149.3,226,149.1,225.8,149.1L225.8,149.1z"/>
				<path class="st0" d="M115.1,285.8l-71.9-41.5c-4.7-2.7-4.8-7.2-0.1-9.9l169.4-97.8c4.7-2.7,12.4-2.7,17.1,0l71.9,41.5
					c4.7,2.7,4.8,7.2,0,9.9l-169.4,97.8C127.5,288.6,119.8,288.6,115.1,285.8z M228.9,137.1c-4.4-2.5-11.4-2.5-15.8,0L43.8,234.8
					c-4.3,2.5-4.3,6.6,0,9.1l71.9,41.5c4.4,2.5,11.4,2.5,15.8,0l169.4-97.8c4.3-2.5,4.3-6.6,0-9.1L228.9,137.1z"/>
				<path class="st0" d="M288.1,183.1c0,0.3-0.4,0.6-1,0.6s-1-0.3-1-0.6s0.4-0.6,1-0.6S288.1,182.8,288.1,183.1z"/>
				<path class="st0" d="M286.6,178.7h-0.2v0.6h0.2c4,0,7.3,1.9,7.3,4.2l0,0h1C294.9,180.8,291.2,178.7,286.6,178.7z"/>
				<path class="st0" d="M286.6,180.9h-0.2v0.6h0.2c1.9,0,3.4,0.9,3.4,2l0,0h1l0,0C291,182,289,180.9,286.6,180.9z"/>
				<path class="st0" d="M286.6,179.8h-0.2v0.6h0.2c2.9,0,5.3,1.4,5.4,3.1l0,0h1l0,0C292.9,181.4,290.1,179.8,286.6,179.8z"/>
				<polygon class="st0" points="267.9,172.8 238.9,156.1 240.8,155 269.8,171.8 				"/>
			</g>
			<g class="st1">
				<path class="st2" d="M107.1,272.5c4.6,0.1,9.1-1,13.2-3.2l183.3-105.5c4.8-2.8,7.5-7.1,7.5-12c0-5.3-3.3-10.3-9.1-13.6l-79-45.7
					c-4.9-2.7-10.4-4.1-16-4.1c-4.6-0.1-9.1,1-13.1,3.2L10.6,197.1c-4.8,2.8-7.6,7.2-7.6,12c0,5.3,3.3,10.3,9.1,13.6l79.1,45.6
					C96,271.2,101.5,272.6,107.1,272.5z"/>
				<path class="st3" d="M194,92L10.7,197.5c-4.6,2.7-7.2,6.8-7.2,11.5c0,5.1,3.2,9.8,8.7,13l75.5,43.6c0.1,0.1,3.8,2.2,4,2.2
					c4.9,2.6,10.5,3.8,16.1,3.6c4.5-0.1,9-1.3,13-3.5L303,163c4.6-2.7,7.2-6.8,7.2-11.5c0-5.1-3.2-9.8-8.7-13l-78.6-45.4
					c-1.9-1-3.8-1.9-5.8-2.6c-3.2-1-6.6-1.6-10-1.6C202.5,88.8,198,89.8,194,92z"/>
				<path class="st4" d="M194.1,92.3L10.9,197.8c-4.4,2.6-6.9,6.5-6.9,10.9c0,4.8,3.1,9.3,8.4,12.3l75.8,43.8c0.2,0.1,3.7,2.1,4,2.2
					c5,2.5,10.6,3.6,16.2,3.1c4.1,0,9.8-2.1,12.8-3.8l181.3-104.3c4.4-2.6,6.9-6.5,6.8-10.9c0-4.8-3.1-9.3-8.4-12.3l-78.1-45.1
					c-1.8-1-3.8-1.9-5.8-2.6c-3.2-1.1-6.5-1.7-9.9-1.8C202.6,89.1,198.1,90.2,194.1,92.3z"/>
				<path class="st5" d="M194.3,92.6L11,198.1c-4.2,2.4-6.6,6.2-6.5,10.4c0.1,4.5,3,8.8,8,11.7l76.2,44c0.4,0.2,3.6,2,4,2.2
					c5.1,2.4,10.8,3.4,16.3,2.7c3.6,0,10-2.5,12.6-4l180.2-103.8c4.2-2.4,6.6-6.2,6.5-10.4c-0.1-4.5-3-8.8-8-11.7l-77.7-44.8
					c-1.8-1-3.7-1.9-5.7-2.7c-3.2-1.1-6.5-1.7-9.8-1.9C202.7,89.5,198.3,90.5,194.3,92.6z"/>
				<path class="st6" d="M194.4,92.9L11.1,198.4c-4,2.3-6.2,5.9-6.1,9.8c0.1,4.2,2.8,8.2,7.7,11l76.6,44.2c0.5,0.3,3.5,1.9,4.1,2.1
					c5.1,2.3,10.8,3.1,16.4,2.2c3.2,0,10.1-3,12.4-4.3l179.2-103.1c4-2.3,6.2-5.9,6.1-9.8c-0.1-4.2-2.8-8.2-7.7-11l-77.2-44.6
					c-1.8-1-3.7-1.9-5.6-2.7c-3.1-1.1-6.4-1.8-9.7-2C202.8,89.9,198.4,90.8,194.4,92.9z"/>
				<path class="st7" d="M194.6,93.2L11.3,198.7c-3.9,2.3-5.9,5.6-5.8,9.3c0.1,3.9,2.7,7.7,7.3,10.4l76.9,44.4
					c1.3,0.8,2.7,1.5,4.1,2.1c5.2,2.2,10.9,2.9,16.5,1.8c2.7,0,10.3-3.5,12.2-4.6l178.2-102.6c3.9-2.2,5.9-5.6,5.8-9.3
					c-0.1-3.9-2.7-7.7-7.3-10.4l-76.7-44.3c-1-0.6-4.4-2.3-5.6-2.8c-3.1-1.2-6.3-1.9-9.6-2.1C203,90.3,198.5,91.2,194.6,93.2z"/>
				<path class="st8" d="M194.7,93.6L11.4,199c-3.7,2.1-5.6,5.3-5.4,8.7c0.1,3.7,2.6,7.2,7,9.7l77.3,44.6c1.3,0.8,2.7,1.5,4.2,2
					c5.3,2.2,11.1,2.6,16.6,1.3c2.3,0,10.4-4,12-4.9l177.2-102c3.7-2.1,5.6-5.3,5.4-8.7c-0.1-3.7-2.6-7.2-7-9.7l-76.2-44
					c-0.8-0.5-4.6-2.4-5.5-2.8c-3-1.2-6.2-2-9.5-2.2C203.1,90.6,198.6,91.5,194.7,93.6z"/>
				<path class="st9" d="M194.9,93.9L11.6,199.4c-3.5,2-5.2,5-5.1,8.1c0.2,3.4,2.5,6.7,6.6,9.1l77.6,44.8c1.3,0.8,2.8,1.4,4.2,2
					c5.4,2.1,11.8,2.5,16.7,0.9c1.8,0,10.6-4.5,11.9-5.2l176.2-101.4c3.5-2,5.2-5,5.1-8.1c-0.2-3.4-2.5-6.7-6.6-9.1l-75.7-43.7
					c-0.6-0.4-4.7-2.6-5.4-2.8c-3-1.3-6.2-2-9.4-2.4C202.8,91.1,198.2,91.9,194.9,93.9z"/>
				<path class="st10" d="M195,94.2L11.7,199.7c-3.3,1.9-4.9,4.6-4.7,7.6c0.2,3.1,2.4,6.2,6.3,8.4l78,45c1.4,0.8,2.8,1.5,4.2,2
					c5.5,2,12,2.2,16.8,0.4c1.4,0,10.7-5,11.7-5.5l175.2-100.8c3.3-1.9,4.9-4.7,4.7-7.6c-0.2-3.1-2.4-6.2-6.3-8.4l-75.3-43.5
					c-0.5-0.3-4.8-2.7-5.4-2.9c-3-1.3-6.1-2.1-9.3-2.5C203,91.5,198.3,92.3,195,94.2z"/>
				<path class="st11" d="M195.2,94.5L11.9,200c-3.1,1.8-4.6,4.4-4.4,7s2.2,5.6,5.9,7.8L91.8,260c1.4,0.8,2.8,1.5,4.3,2
					c5.6,2,12.3,2,16.9-0.1c0.9,0,10.8-5.4,11.5-5.8l174.2-100.3c3.1-1.8,4.6-4.4,4.4-7.1s-2.3-5.6-5.9-7.8l-74.8-43.2
					c-0.3-0.2-5-2.8-5.3-2.9c-2.9-1.3-6-2.2-9.2-2.6C203.1,91.9,198.4,92.6,195.2,94.5z"/>
				<path class="st12" d="M195.3,94.8L12,200.3c-2.9,1.7-4.3,4-4,6.5s2.1,5.1,5.6,7.1l78.7,45.4c1.4,0.8,2.8,1.4,4.3,1.9
					c5.7,1.9,12.5,1.8,17-0.5c0.5,0,11-5.9,11.3-6.1l173.2-99.7c2.9-1.7,4.3-4,4-6.5s-2.1-5.1-5.6-7.1l-74.3-42.9
					c-0.2-0.1-5.1-2.9-5.3-3c-2.9-1.4-6-2.3-9.1-2.7C203.2,92.3,198.6,92.9,195.3,94.8z"/>
				<path class="st13" d="M114.2,259.5l183.3-105.5c5.5-3.2,4.8-8.7-1.5-12.4L216.9,96c-6.4-3.7-16-4.1-21.5-0.9L12.2,200.6
					c-5.5,3.2-4.8,8.7,1.5,12.4l79.1,45.7C99.1,262.3,108.7,262.7,114.2,259.5z"/>
			</g>
			
				<linearGradient id="SVGID_1_" gradientUnits="userSpaceOnUse" x1="6278.5801" y1="131.3641" x2="6572.4067" y2="131.3641" gradientTransform="matrix(-1 0 0 -1 6581.1299 290)">
				<stop  offset="0" style="stop-color:#2B2E94"/>
				<stop  offset="1" style="stop-color:#7871F9"/>
			</linearGradient>
			<path class="st14" d="M88.3,240.2l-73.9-42.7c-8.4-4.8-7.3-13.2,2.3-18.8L190.5,78.4c9.6-5.6,24.2-6.2,32.5-1.3l73.9,42.7
				c8.3,4.8,7.3,13.2-2.3,18.8L120.8,238.9C111.2,244.4,96.6,245,88.3,240.2z"/>
			
				<linearGradient id="SVGID_2_" gradientUnits="userSpaceOnUse" x1="6317.21" y1="132.6225" x2="6611.02" y2="132.6225" gradientTransform="matrix(-1 0 0 -1 6581.1299 290)">
				<stop  offset="6.000000e-02" style="stop-color:#3943A8"/>
				<stop  offset="0.28" style="stop-color:#3D3BA8"/>
				<stop  offset="0.47" style="stop-color:#4241AA"/>
				<stop  offset="0.48" style="stop-color:#4944AD"/>
				<stop  offset="0.5" style="stop-color:#5453BC"/>
				<stop  offset="0.51" style="stop-color:#6B67D1"/>
				<stop  offset="0.52" style="stop-color:#8687EF"/>
				<stop  offset="0.53" style="stop-color:#9998FF"/>
				<stop  offset="0.54" style="stop-color:#8F8EF7"/>
				<stop  offset="0.56" style="stop-color:#706CD6"/>
				<stop  offset="0.59" style="stop-color:#5353BC"/>
				<stop  offset="0.61" style="stop-color:#4847B0"/>
				<stop  offset="0.63" style="stop-color:#4241AA"/>
				<stop  offset="0.67" style="stop-color:#36369E"/>
				<stop  offset="0.75" style="stop-color:#282F90"/>
				<stop  offset="0.81" style="stop-color:#23318B"/>
				<stop  offset="1" style="stop-color:#23318B"/>
			</linearGradient>
			<path class="st15" d="M88.3,238.9l-73.9-42.7c-3.7-2.1-5.6-5-5.6-8c0-0.3,0-6.1,0-6.3c0.3-3.5,3-1.6,7.9-4.4L190.5,77.2
				c9.6-5.6,24.2-6.2,32.5-1.4l73.9,42.7c3.7,2.2,5.6-1.6,5.6,1.4c0,0.3,0,7.2,0,7.4c-0.3,3.5-3,7.1-7.9,10L120.8,237.6
				C111.2,243.1,96.6,243.8,88.3,238.9z"/>
			
				<linearGradient id="SVGID_3_" gradientUnits="userSpaceOnUse" x1="6278.5801" y1="138.9563" x2="6572.4067" y2="138.9563" gradientTransform="matrix(-1 0 0 -1 6581.1299 290)">
				<stop  offset="0" style="stop-color:#554FD4"/>
				<stop  offset="1" style="stop-color:#9F93FF"/>
			</linearGradient>
			<path class="st16" d="M88.3,232.6l-73.9-42.7c-8.4-4.8-7.3-13.2,2.3-18.8L190.5,70.8c9.6-5.6,24.2-6.2,32.5-1.3l73.9,42.7
				c8.3,4.8,7.3,13.2-2.3,18.8L120.8,231.3C111.2,236.8,96.6,237.4,88.3,232.6z"/>
			
				<radialGradient id="SVGID_4_" cx="135.98" cy="106.46" r="111.68" gradientTransform="matrix(1 0 0 -1 0 290)" gradientUnits="userSpaceOnUse">
				<stop  offset="0" style="stop-color:#FFFFFF"/>
				<stop  offset="1" style="stop-color:#00004A"/>
			</radialGradient>
			<path class="st17" d="M14.4,189.1l73.9,42.7c8.3,4.8,22.9,4.2,32.5-1.4l173.8-100.3c5.1-2.9,7.8-6.6,8-10.2c0.2,3.8-2.5,7.9-8,11
				L120.8,231.3c-9.6,5.6-24.2,6.2-32.5,1.4l-73.9-42.7c-3.9-2.3-5.8-5.4-5.6-8.6C8.9,184.3,10.8,187,14.4,189.1z"/>
			
				<linearGradient id="SVGID_5_" gradientUnits="userSpaceOnUse" x1="6281.5161" y1="138.905" x2="6569.4634" y2="138.905" gradientTransform="matrix(-1 0 0 -1 6581.1299 290)">
				<stop  offset="0" style="stop-color:#2B2E94"/>
				<stop  offset="1" style="stop-color:#6461E4"/>
			</linearGradient>
			<path class="st18" d="M18.6,172.4L192.6,72c8.4-4.9,21.2-5.4,28.5-1.2l73.5,42.4c7.3,4.2,6.4,11.6-2,16.5l-174,100.5
				c-8.4,4.9-21.2,5.4-28.5,1.2l-73.5-42.5C9.3,184.6,10.2,177.3,18.6,172.4z"/>
			<path class="st19" d="M22,173.9l173.1-100c7.1-4.1,17.8-4.5,23.9-1l72,41.6c6.1,3.5,5.4,9.7-1.7,13.8l-173.1,100
				c-7.1,4.1-17.8,4.5-23.9,1l-72-41.6C14.2,184.1,15,177.9,22,173.9z"/>
			<path class="st20" d="M218.4,74.2c-5.8-3.3-15.1-3.3-20.8,0l-175,101.1c-5.7,3.3-5.7,8.7,0.1,12l70.3,40.6
				c5.8,3.3,15.1,3.4,20.8,0l175-101c5.7-3.3,5.7-8.7-0.1-12L218.4,74.2z"/>
			
				<linearGradient id="SVGID_6_" gradientUnits="userSpaceOnUse" x1="170.309" y1="212.2282" x2="119.309" y2="-42.7618" gradientTransform="matrix(1 0 0 -1 0 290)">
				<stop  offset="0" style="stop-color:#7B6FFC"/>
				<stop  offset="0.43" style="stop-color:#7A79FF"/>
				<stop  offset="0.9" style="stop-color:#4137A9"/>
			</linearGradient>
			<path class="st21" d="M103.3,228.9c3.4,0.1,6.7-0.7,9.6-2.3l175-101.1c2.3-1.3,3.6-3,3.6-4.7s-1.3-3.4-3.6-4.8l-70.3-40.5
				c-3-1.6-6.4-2.4-9.8-2.3c-3.4-0.1-6.7,0.7-9.6,2.3l-175,101.1c-2.3,1.3-3.6,3-3.6,4.7s1.3,3.5,3.6,4.8l70.3,40.6
				C96.6,228.2,100,229,103.3,228.9z"/>
			
				<linearGradient id="SVGID_7_" gradientUnits="userSpaceOnUse" x1="8418.8594" y1="1116.4072" x2="8433.0195" y2="1116.4072" gradientTransform="matrix(-0.87 0.5 0.5 -1.44 6993.8999 -2429.24)">
				<stop  offset="0" style="stop-color:#4137A9"/>
				<stop  offset="1" style="stop-color:#7A79FF"/>
			</linearGradient>
			<path class="st22" d="M261.8,155.4l8.1-4.6c1.1-0.8,1.8-2.1,1.8-3.5l0,0c0-1.3-0.8-1.9-1.8-1.4l-8.1,4.6
				c-1.1,0.8-1.8,2.1-1.8,3.5l0,0C259.9,155.4,260.8,156,261.8,155.4z"/>
			
				<linearGradient id="SVGID_8_" gradientUnits="userSpaceOnUse" x1="8418.8594" y1="1116.4072" x2="8433.0195" y2="1116.4072" gradientTransform="matrix(-0.87 0.5 0.5 -1.44 6993.8999 -2429.24)">
				<stop  offset="0" style="stop-color:#2B2E94"/>
				<stop  offset="1" style="stop-color:#7871F9"/>
			</linearGradient>
			<path class="st23" d="M261.8,155.4l8.1-4.6c1.1-0.8,1.8-2.1,1.8-3.5l0,0c0-1.3-0.8-1.9-1.8-1.4l-8.1,4.6
				c-1.1,0.8-1.8,2.1-1.8,3.5l0,0C259.9,155.4,260.8,156,261.8,155.4z"/>
			
				<linearGradient id="SVGID_9_" gradientUnits="userSpaceOnUse" x1="8370.3867" y1="1107.6287" x2="8364.5361" y2="1096.7087" gradientTransform="matrix(-0.87 0.5 0.5 -1.44 6993.8999 -2429.24)">
				<stop  offset="6.000000e-02" style="stop-color:#9C9EFF"/>
				<stop  offset="0.26" style="stop-color:#9EA5FF"/>
				<stop  offset="0.36" style="stop-color:#A5A4FF"/>
				<stop  offset="0.43" style="stop-color:#AFB0FF"/>
				<stop  offset="0.49" style="stop-color:#C0BEFF"/>
				<stop  offset="0.51" style="stop-color:#C2C0FF"/>
				<stop  offset="0.52" style="stop-color:#CDCAFF"/>
				<stop  offset="0.53" style="stop-color:#DAD9FF"/>
				<stop  offset="0.55" style="stop-color:#F0EEFF"/>
				<stop  offset="0.56" style="stop-color:#FFFFFF"/>
				<stop  offset="0.57" style="stop-color:#ECEAFF"/>
				<stop  offset="0.58" style="stop-color:#DADCFF"/>
				<stop  offset="0.59" style="stop-color:#D1D1FF"/>
				<stop  offset="0.6" style="stop-color:#D2CEFF"/>
				<stop  offset="0.66" style="stop-color:#B8CDFF"/>
				<stop  offset="0.72" style="stop-color:#ABA6FF"/>
				<stop  offset="0.77" style="stop-color:#9E9EFF"/>
				<stop  offset="0.81" style="stop-color:#9B9AFF"/>
				<stop  offset="1" style="stop-color:#ACADFF"/>
			</linearGradient>
			<path class="st24" d="M261,155.2c0.2,0,0.3-0.1,0.5-0.2l8-4.6c1-0.7,1.6-1.9,1.6-3.1c0-0.5-0.2-1.1-0.6-1.1
				c-0.2,0-0.3,0.1-0.5,0.2l-8,4.7c-1,0.7-1.6,1.9-1.6,3.1C260.4,154.6,260.6,155.2,261,155.2z"/>
			
				<linearGradient id="SVGID_10_" gradientUnits="userSpaceOnUse" x1="8435.4697" y1="1116.3726" x2="8449.6289" y2="1116.3726" gradientTransform="matrix(-0.87 0.5 0.5 -1.44 6993.8999 -2429.24)">
				<stop  offset="0" style="stop-color:#4137A9"/>
				<stop  offset="1" style="stop-color:#7A79FF"/>
			</linearGradient>
			<path class="st25" d="M247.4,163.7l8.1-4.6c1.1-0.8,1.8-2.1,1.8-3.5l0,0c0-1.3-0.8-2-1.8-1.4l-8.1,4.6c-1.1,0.8-1.8,2.1-1.8,3.5
				l0,0C245.6,163.7,246.4,164.3,247.4,163.7z"/>
			
				<linearGradient id="SVGID_11_" gradientUnits="userSpaceOnUse" x1="8435.4697" y1="1116.3726" x2="8449.6289" y2="1116.3726" gradientTransform="matrix(-0.87 0.5 0.5 -1.44 6993.8999 -2429.24)">
				<stop  offset="0" style="stop-color:#2B2E94"/>
				<stop  offset="1" style="stop-color:#7871F9"/>
			</linearGradient>
			<path class="st26" d="M247.4,163.7l8.1-4.6c1.1-0.8,1.8-2.1,1.8-3.5l0,0c0-1.3-0.8-2-1.8-1.4l-8.1,4.6c-1.1,0.8-1.8,2.1-1.8,3.5
				l0,0C245.6,163.7,246.4,164.3,247.4,163.7z"/>
			
				<linearGradient id="SVGID_12_" gradientUnits="userSpaceOnUse" x1="8383.2168" y1="1100.7664" x2="8377.3574" y2="1089.8364" gradientTransform="matrix(-0.87 0.5 0.5 -1.44 6993.8999 -2429.24)">
				<stop  offset="6.000000e-02" style="stop-color:#9C9EFF"/>
				<stop  offset="0.26" style="stop-color:#9EA5FF"/>
				<stop  offset="0.36" style="stop-color:#A5A4FF"/>
				<stop  offset="0.43" style="stop-color:#AFB0FF"/>
				<stop  offset="0.49" style="stop-color:#C0BEFF"/>
				<stop  offset="0.51" style="stop-color:#C2C0FF"/>
				<stop  offset="0.52" style="stop-color:#CDCAFF"/>
				<stop  offset="0.53" style="stop-color:#DAD9FF"/>
				<stop  offset="0.55" style="stop-color:#F0EEFF"/>
				<stop  offset="0.56" style="stop-color:#FFFFFF"/>
				<stop  offset="0.57" style="stop-color:#ECEAFF"/>
				<stop  offset="0.58" style="stop-color:#DADCFF"/>
				<stop  offset="0.59" style="stop-color:#D1D1FF"/>
				<stop  offset="0.6" style="stop-color:#D2CEFF"/>
				<stop  offset="0.66" style="stop-color:#B8CDFF"/>
				<stop  offset="0.72" style="stop-color:#ABA6FF"/>
				<stop  offset="0.77" style="stop-color:#9E9EFF"/>
				<stop  offset="0.81" style="stop-color:#9B9AFF"/>
				<stop  offset="1" style="stop-color:#ACADFF"/>
			</linearGradient>
			<path class="st27" d="M246.7,163.5c0.2,0,0.3-0.1,0.5-0.1l8.1-4.6c1-0.7,1.6-1.9,1.6-3.1c0-0.5-0.2-1.1-0.6-1.1
				c-0.2,0-0.3,0.1-0.5,0.1l-8.1,4.6c-1,0.7-1.6,1.9-1.6,3.1C246,162.9,246.2,163.5,246.7,163.5z"/>
			<path class="st20" d="M177.2,198.9l117.4-68.1c5-2.9,7.6-6.5,7.9-10c0-0.1,0-1.5,0-3.1c0,0,0,7.3,0,7.5c-0.3,3.5-3,7.1-7.9,10
				L177.2,198.9z"/>
			<path class="st13" d="M44.6,213.2l13.2,7.6l0,0c0-2.5-1.3-4.8-3.3-6.3l-6.7-3.9C46,209.7,44.6,210.8,44.6,213.2L44.6,213.2z"/>
			<path class="st28" d="M49.3,178.2c0.6,0,1.3,0.2,1.8,0.5c1.4,0.8,1,1.6,0,2.2c0.1,0.1,0,0.3-0.2,0.5c-0.1,0.1-0.3,0.1-0.5,0.1
				c-0.2,0-0.3,0-0.5-0.1c-0.5,0.1-1,0.2-1.5,0.2c-0.4,0-0.7,0.2-0.7,0.4c0,0.4,0.2,0.8,0.5,1.1c0.5,0.4,0.4,1-0.3,1.4L47,185
				c-0.2,0.1-0.5,0.1-0.8,0l-5.9-3.4c-0.2-0.1-0.2-0.3,0-0.4l1.1-0.6c0.4-0.2,0.9-0.3,1.3-0.3c0.3,0,0.7,0.1,1,0.2
				c0.6,0.2,1.2,0.3,1.8,0.3l0,0c0.4,0,0.7-0.2,0.7-0.4c0-0.3,0.1-0.6,0.3-0.9c-0.2-0.2-0.2-0.4,0-0.6c0.2-0.1,0.4-0.2,0.6-0.1
				c0.1,0,0.2,0,0.2,0C47.9,178.3,48.6,178.2,49.3,178.2L49.3,178.2z M49.3,177.4L49.3,177.4c-0.7,0-1.5,0.2-2.1,0.5h-0.1
				c-0.4,0-0.7,0.1-1,0.3c-0.3,0.2-0.5,0.5-0.6,0.8c0,0.1,0,0.3,0,0.4c-0.1,0.1-0.1,0.3-0.2,0.5c-0.5,0-1-0.1-1.5-0.3
				c-0.4-0.1-0.8-0.2-1.3-0.2c-0.6,0-1.2,0.1-1.8,0.4l-1.1,0.6c-0.3,0.2-0.6,0.5-0.6,0.9c0,0.4,0.2,0.7,0.6,0.9l5.9,3.4
				c0.2,0.1,0.5,0.2,0.8,0.2c0.3,0,0.5-0.1,0.8-0.2l1.1-0.6c0.5-0.2,0.9-0.7,1-1.3c0-0.5-0.1-1-0.5-1.3l-0.1-0.1
				c0.4,0,0.8-0.1,1.2-0.1c0.2,0,0.4,0.1,0.5,0.1c0.3,0,0.6-0.1,0.8-0.2c0.3-0.2,0.5-0.4,0.6-0.8c0.5-0.3,0.9-0.9,0.9-1.6
				c-0.1-0.8-0.6-1.4-1.3-1.7C51,177.6,50.2,177.4,49.3,177.4L49.3,177.4z"/>
			<path class="st28" d="M101.9,210.3l0.8,0.7c0.2,0,0.4,0,0.6,0c0.2,0,0.4,0,0.7,0l0.8-0.7c0.5,0.1,0.9,0.2,1.4,0.3l-0.3,0.8
				c0.2,0.1,0.3,0.1,0.5,0.2c0.1,0.1,0.3,0.2,0.4,0.3l1.4-0.2c0.2,0.2,0.4,0.5,0.6,0.8l-1.3,0.4c0.1,0.2,0.1,0.5,0,0.7l1.3,0.4
				c-0.1,0.3-0.3,0.6-0.6,0.8l-1.4-0.2c-0.1,0.1-0.3,0.2-0.4,0.3c-0.2,0.1-0.3,0.2-0.5,0.2l0.3,0.8c-0.4,0.2-0.9,0.3-1.4,0.3
				l-0.8-0.7c-0.2,0-0.4,0-0.6,0s-0.4,0-0.7,0l-0.8,0.7c-0.5-0.1-0.9-0.2-1.4-0.3l0.3-0.8c-0.2-0.1-0.3-0.1-0.5-0.2
				c-0.1-0.1-0.3-0.2-0.4-0.3l-1.4,0.2c-0.2-0.2-0.4-0.5-0.6-0.8l1.3-0.4c-0.1-0.2-0.1-0.5,0-0.7l-1.2-0.5c0.1-0.3,0.3-0.6,0.6-0.8
				l1.4,0.2c0.1-0.1,0.3-0.2,0.4-0.3c0.2-0.1,0.3-0.2,0.5-0.2l-0.3-0.8C101,210.5,101.5,210.4,101.9,210.3L101.9,210.3z
				 M103.4,214.4c0.4,0,0.8-0.1,1.2-0.3c0.4-0.1,0.6-0.5,0.5-0.9c-0.1-0.2-0.2-0.4-0.5-0.5c-0.4-0.2-0.8-0.3-1.2-0.3
				c-0.4,0-0.8,0.1-1.2,0.3c-0.4,0.1-0.6,0.5-0.4,0.9c0.1,0.2,0.2,0.4,0.4,0.4C102.5,214.3,103,214.4,103.4,214.4z M101.9,209.5
				h-0.1c-0.5,0.1-1,0.2-1.5,0.4c-0.2,0.1-0.4,0.2-0.5,0.4c-0.1,0.2-0.1,0.4,0,0.6l0.1,0.2h-0.1l-1.1-0.1h-0.1
				c-0.2,0-0.4,0.1-0.6,0.2c-0.3,0.3-0.6,0.6-0.7,1c-0.1,0.2-0.1,0.4,0,0.6c0.1,0.2,0.3,0.4,0.5,0.4l0.2,0.1l-0.2,0.1
				c-0.4,0.1-0.6,0.6-0.5,1c0,0,0,0.1,0,0.1c0.2,0.4,0.4,0.7,0.8,1c0.1,0.1,0.4,0.2,0.6,0.2h0.1l1.1-0.2l0.1,0.1l-0.1,0.2
				c-0.1,0.2-0.1,0.4,0,0.6c0.1,0.2,0.3,0.4,0.5,0.4c0.5,0.2,1,0.3,1.5,0.4h0.2c0.2,0,0.4-0.1,0.6-0.2l0.5-0.5h0.7l0.5,0.5
				c0.2,0.1,0.3,0.2,0.6,0.2h0.1c0.5-0.1,1-0.2,1.5-0.4c0.2-0.1,0.4-0.2,0.5-0.4c0.1-0.2,0.1-0.4,0-0.6l-0.1-0.1l0.1-0.1l1.1,0.2
				h0.1c0.2,0,0.4-0.1,0.6-0.2c0.3-0.3,0.6-0.6,0.7-1c0.1-0.2,0.1-0.4,0-0.6c-0.1-0.2-0.3-0.4-0.5-0.4l-0.2-0.1l0.2-0.1
				c0.4-0.1,0.6-0.6,0.5-1c0,0,0,0,0-0.1c-0.2-0.4-0.4-0.7-0.8-1c-0.2-0.1-0.4-0.2-0.6-0.2H108l-1.1,0.2l-0.1-0.1l0.1-0.1
				c0.1-0.2,0.1-0.4,0-0.6c-0.1-0.2-0.3-0.4-0.5-0.4c-0.5-0.2-1-0.3-1.5-0.4h-0.1c-0.2,0-0.4,0.1-0.6,0.2l-0.5,0.5H103l-0.5-0.5
				C102.3,209.6,102.1,209.5,101.9,209.5L101.9,209.5z M102.6,213.4c0.2-0.1,0.5-0.2,0.8-0.2c0.3,0,0.5,0,0.8,0.2
				c-0.2,0.1-0.5,0.2-0.8,0.2C103.1,213.6,102.8,213.5,102.6,213.4z"/>
			<path class="st28" d="M61,189.9l1.8,1l-3.3,1.9l-1.8-1L61,189.9z M65.8,190.3l1.8,1l-5.4,3.1l-1.8-1L65.8,190.3z M70.7,190.6
				l1.8,1L65,196l-1.8-1.1L70.7,190.6L70.7,190.6z M61,189.1c-0.1,0-0.3,0-0.4,0.1l-3.3,1.9c-0.2,0.1-0.4,0.4-0.4,0.7
				c0,0.3,0.2,0.5,0.4,0.7l1.8,1c0.1,0.1,0.3,0.1,0.4,0.1h0.2c0.1,0.2,0.2,0.4,0.4,0.4l1.8,1c0.1,0.1,0.3,0.1,0.4,0.1
				c0.1,0,0.1,0,0.2,0c0.1,0.2,0.2,0.3,0.4,0.4l1.8,1.1c0.1,0.1,0.3,0.1,0.4,0.1c0.1,0,0.3,0,0.4-0.1l7.4-4.3
				c0.2-0.1,0.4-0.4,0.4-0.7c0-0.3-0.2-0.5-0.4-0.7l-1.9-1c-0.3-0.1-0.6-0.1-0.8,0l-1.8,1.1c-0.1-0.2-0.2-0.3-0.3-0.4l-1.8-1.1
				c-0.1-0.1-0.3-0.1-0.4-0.1c-0.1,0-0.3,0-0.4,0.1l-1.9,1.1c-0.1-0.2-0.2-0.3-0.3-0.4l-1.8-1C61.2,189.1,61.1,189.1,61,189.1
				L61,189.1z"/>
			<path class="st28" d="M84,199.1c0.7,0,1.4,0.2,2,0.5c0.8,0.4,1,1.1,0.7,1.6c0.3,0,0.6-0.1,0.8-0.1c0.7,0,1.4,0.2,2,0.5
				c0.6,0.2,1,0.9,0.8,1.6c-0.1,0.4-0.4,0.6-0.8,0.8c-1.3,0.5-2.8,0.7-4.2,0.6c-1.4,0-2.8-0.1-4.1-0.2c0,0-1.3-3.6,0.7-4.8
				C82.5,199.3,83.2,199.1,84,199.1L84,199.1z M84,198.3L84,198.3c-0.8,0-1.7,0.2-2.4,0.6c-2.6,1.5-1.1,5.6-1.1,5.8
				c0.1,0.3,0.4,0.5,0.7,0.5c1.4,0.2,2.8,0.2,4.2,0.2c1.6,0.1,3.2-0.1,4.6-0.8c1-0.4,1.5-1.6,1-2.6c-0.2-0.5-0.6-0.8-1.1-1
				c-0.7-0.4-1.6-0.6-2.4-0.6c-0.2-0.6-0.6-1.2-1.2-1.5C85.7,198.5,84.8,198.3,84,198.3z"/>
			<path class="st29" d="M119.8,204.4c-2.8,0.1-5.5-0.6-8-1.9l-18.8-10.9l-18.9-10.9c-2.4-1.2-4-3.6-4.1-6.3c0-2.9,1.9-5.6,5.1-7.4
				c3-1.7,6.4-2.5,9.9-2.5c2.8-0.1,5.5,0.6,8,1.9l18.9,10.9l18.9,10.9c2.4,1.2,4,3.6,4.1,6.3c0,2.9-1.9,5.6-5.1,7.4
				C126.7,203.6,123.2,204.4,119.8,204.4z"/>
			<path class="st30" d="M75.7,167.4L75.7,167.4c3-1.6,6.3-2.4,9.6-2.4c2.3,0,4.7,0.4,6.8,1.4c0.3,0.1,0.6,0.3,0.9,0.5l18.4,10.6
				l1.5,0.9l16.8,9.6c1.4,0.8,2.5,1.9,3.3,3.2c0.5,0.9,0.8,1.8,0.8,2.8c0.1,2.8-1.7,5.4-4.9,7.3l0,0c-3,1.6-6.3,2.5-9.6,2.4
				c-2.3,0-4.7-0.4-6.8-1.4c-0.3-0.1-0.6-0.3-0.9-0.5l-18.4-10.6l-1.5-0.9L75,180.7c-1.4-0.8-2.5-1.9-3.3-3.2
				c-0.5-0.9-0.8-1.8-0.8-2.8C70.7,171.9,72.5,169.2,75.7,167.4z"/>
			<path class="st31" d="M76.3,167.8L76.3,167.8c2.9-1.6,6.1-2.4,9.4-2.4c2.3,0,4.5,0.4,6.6,1.4c0.3,0.1,0.6,0.3,0.9,0.5l17.9,10.3
				l1.5,0.9l16.4,9.5c1.3,0.8,2.4,1.8,3.3,3.1c0.5,0.8,0.8,1.7,0.9,2.7c0.2,2.6-1.5,5.3-4.6,7.1l0,0c-2.9,1.6-6.1,2.4-9.4,2.4
				c-2.3,0-4.5-0.4-6.6-1.4c-0.3-0.1-0.6-0.3-0.9-0.5L93.7,191l-1.5-0.9l-16.4-9.5c-1.3-0.7-2.4-1.8-3.3-3c-0.5-0.8-0.8-1.8-0.9-2.7
				C71.5,172.3,73.2,169.6,76.3,167.8z"/>
			<path class="st32" d="M76.9,168.3L76.9,168.3c2.8-1.5,5.9-2.3,9.1-2.3c2.2,0,4.4,0.4,6.4,1.3c0.2,0.1,0.6,0.3,0.8,0.4l17.4,10
				l1.5,0.9l15.9,9.2c1.3,0.7,2.4,1.7,3.2,2.9c0.5,0.8,0.9,1.6,1,2.6c0.3,2.6-1.3,5.1-4.4,6.9l0,0c-2.8,1.5-5.9,2.3-9.1,2.3
				c-2.2,0-4.4-0.4-6.4-1.3c-0.2-0.1-0.6-0.3-0.8-0.5l-17.4-10l-1.4-0.8l-15.9-9.2c-1.3-0.7-2.4-1.7-3.2-2.9c-0.5-0.8-0.9-1.6-1-2.6
				C72.3,172.6,73.8,170,76.9,168.3z"/>
			<path class="st33" d="M77.5,168.7L77.5,168.7c2.7-1.5,5.8-2.2,8.9-2.2c2.2,0,4.3,0.4,6.3,1.3c0.2,0.1,0.6,0.3,0.8,0.4l16.9,9.8
				l1.4,0.8l15.5,8.9c1.2,0.7,2.3,1.7,3.2,2.8c0.5,0.7,0.9,1.6,1.1,2.4c0.4,2.4-1.1,5-4.2,6.7l0,0c-2.7,1.5-5.8,2.2-8.9,2.2
				c-2.2,0-4.3-0.4-6.3-1.3c-0.2-0.1-0.6-0.3-0.8-0.4l-16.9-9.8l-1.4-0.8l-15.5-8.9c-1.2-0.7-2.3-1.7-3.2-2.7
				c-0.5-0.7-0.8-1.6-1-2.4C73,173,74.5,170.4,77.5,168.7z"/>
			<path class="st34" d="M78.1,169.1L78.1,169.1c2.6-1.4,5.6-2.1,8.6-2.1c2.1,0,4.2,0.4,6.1,1.3c0.2,0.1,0.6,0.3,0.8,0.4l16.4,9.4
				l1.4,0.8l15,8.7c1.2,0.7,2.2,1.6,3.2,2.6c0.5,0.7,0.9,1.5,1.1,2.3c0.5,2.3-0.9,4.8-3.9,6.5l0,0c-2.6,1.4-5.6,2.2-8.6,2.1
				c-2.1,0-4.2-0.4-6.1-1.3c-0.2-0.1-0.6-0.3-0.8-0.4L94.9,190l-1.4-0.8l-15-8.7c-1.2-0.7-2.2-1.6-3.2-2.6c-0.5-0.7-0.9-1.5-1.1-2.3
				C73.7,173.3,75.1,170.8,78.1,169.1z"/>
			<path class="st35" d="M78.8,169.5L78.8,169.5c2.6-1.4,5.4-2.1,8.3-2.1c2,0,4.1,0.4,5.9,1.3c0.2,0.1,0.6,0.3,0.8,0.4l15.9,9.2
				l1.3,0.8l14.6,8.4c1.1,0.7,2.2,1.5,3.1,2.4c0.5,0.6,0.9,1.4,1.2,2.1c0.6,2.2-0.7,4.6-3.7,6.4l0,0c-2.6,1.4-5.4,2.1-8.3,2.1
				c-2,0-4-0.4-5.9-1.3l-0.8-0.4l-15.9-9.2l-1.3-0.8l-14.6-8.4c-1.1-0.7-2.2-1.5-3.1-2.5c-0.5-0.6-1-1.4-1.2-2.1
				C74.5,173.6,75.8,171.2,78.8,169.5z"/>
			<path class="st36" d="M79.3,170L79.3,170c2.5-1.4,5.3-2,8.1-2c2,0,3.9,0.4,5.7,1.3l0.7,0.4l15.4,8.9l1.3,0.8l14.1,8.1
				c1.1,0.7,2.1,1.4,3.1,2.3c0.5,0.6,1,1.3,1.3,2c0.7,2.1-0.5,4.5-3.4,6.2l0,0c-2.5,1.4-5.3,2-8.1,2c-2,0-3.9-0.4-5.7-1.3l-0.7-0.4
				l-15.4-8.9l-1.3-0.8l-14.1-8.1c-1.1-0.7-2.1-1.4-3.1-2.3c-0.5-0.6-1-1.3-1.3-2C75.2,174,76.4,171.6,79.3,170z"/>
			<path class="st37" d="M80,170.4L80,170.4c2.4-1.3,5.1-2,7.8-1.9c1.9,0,3.8,0.4,5.5,1.3c0.1,0,0.6,0.3,0.7,0.4l15,8.6l1.3,0.7
				l13.7,7.9c1.1,0.6,2.1,1.3,3,2.1c0.6,0.5,1.1,1.1,1.4,1.9c0.8,2-0.3,4.4-3.2,6l0,0c-2.4,1.3-5.1,2-7.8,1.9
				c-1.9,0-3.8-0.4-5.5-1.3l-0.7-0.4l-15-8.7l-1.3-0.7l-13.6-7.9c-1.1-0.6-2.1-1.3-3.1-2.1c-0.6-0.5-1.1-1.1-1.4-1.9
				C76,174.3,77.1,172,80,170.4z"/>
			<path class="st38" d="M80.6,170.8L80.6,170.8c2.3-1.3,4.9-1.9,7.6-1.8c1.8,0,3.6,0.4,5.3,1.2l0.7,0.4l14.4,8.3l1.2,0.7l13.2,7.6
				c1,0.6,2,1.3,3,2c0.6,0.5,1.1,1.1,1.5,1.8c0.9,1.9-0.2,4.2-3,5.8l0,0c-2.3,1.3-4.9,1.9-7.6,1.8c-1.8,0-3.7-0.4-5.3-1.2l-0.7-0.4
				l-14.4-8.4l-1.2-0.7l-13.2-7.6c-1-0.6-2-1.3-3-2c-0.6-0.4-1.1-1-1.5-1.7C76.7,174.7,77.8,172.4,80.6,170.8z"/>
			<path class="st5" d="M81.2,171.2L81.2,171.2c2.2-1.2,4.8-1.8,7.3-1.8c1.8,0,3.5,0.4,5.1,1.2l0.6,0.4l14,8.1l1.2,0.7l12.7,7.4
				c0.1,0.1,2.9,1.7,3,1.8c0.6,0.4,1.2,1,1.5,1.6c1,1.8,0,4-2.7,5.6l0,0c-2.2,1.2-4.8,1.8-7.3,1.8c-1.8,0-3.5-0.4-5.1-1.2l-0.6-0.4
				l-14-8.1l-1.2-0.7L83,180.3c-0.1-0.1-2.9-1.7-3-1.9c-0.6-0.4-1.2-1-1.5-1.6C77.5,175,78.4,172.8,81.2,171.2z"/>
			<path class="st39" d="M111.3,196.2l-15.2-8.8l-15.2-8.8c-3.1-1.8-2.7-4.9,0.9-6.9l0,0c3.6-2,8.9-2.3,12-0.5L109,180l15.2,8.8
				c3.1,1.8,2.7,4.9-0.9,6.9l0,0C119.8,197.7,114.4,198,111.3,196.2z"/>
			
				<linearGradient id="SVGID_13_" gradientUnits="userSpaceOnUse" x1="72.3501" y1="126.8301" x2="130.1001" y2="95.0801" gradientTransform="matrix(1 0 0 -1 0 290)">
				<stop  offset="4.000000e-02" style="stop-color:#CADFFF"/>
				<stop  offset="0.16" style="stop-color:#C8DFFF"/>
				<stop  offset="0.41" style="stop-color:#AFB6FF"/>
				<stop  offset="0.75" style="stop-color:#8D81FF"/>
				<stop  offset="0.98" style="stop-color:#8167FF"/>
			</linearGradient>
			<path class="st40" d="M113.3,195.2l-37.7-21.8c-3.8-2.2-3.3-6,1.1-8.6l0,0c4.4-2.5,11-2.8,14.8-0.6l37.7,21.8
				c3.8,2.2,3.3,6-1.1,8.6l0,0C123.8,197.1,117.1,197.4,113.3,195.2z"/>
			
				<radialGradient id="SVGID_14_" cx="107.64" cy="105.73" r="22.95" gradientTransform="matrix(1 0 0 -1 0 290)" gradientUnits="userSpaceOnUse">
				<stop  offset="0" style="stop-color:#FFFFFF"/>
				<stop  offset="1" style="stop-color:#00004A"/>
			</radialGradient>
			<path class="st41" d="M128.2,193.6L128.2,193.6c-4.4,2.5-11,2.8-14.9,0.6l-37.7-21.8c-1.3-0.6-2.3-1.8-2.6-3.3
				c-0.2,1.6,0.6,3.1,2.5,4.3l37.7,21.8c3.8,2.2,10.5,1.9,14.9-0.6l0,0c2.6-1.5,3.8-3.5,3.6-5.3
				C131.5,190.8,130.3,192.3,128.2,193.6z"/>
			<path class="st42" d="M88.3,175.2c0-0.1,0-0.1,0.1-0.1l7.3-4.2c0.1,0,0.2-0.1,0.3-0.1c0.1,0,0.2,0,0.3,0.1l3.3,1.9
				c0.9,0.5,1.3,1,1.4,1.5s-0.3,0.9-0.9,1.3c-0.4,0.2-0.8,0.4-1.3,0.4c-0.4,0.1-0.8,0.1-1.3,0c0.2,0.3,0.2,0.6,0.1,0.9
				c-0.1,0.4-0.4,0.7-0.8,0.8c-0.7,0.4-1.6,0.6-2.4,0.6c-0.9,0-1.8-0.3-2.6-0.8l-3.4-1.9C88.3,175.4,88.3,175.3,88.3,175.2z
				 M92.8,176.5c0.4,0.2,0.8,0.3,1.2,0.3c0.4,0,0.8-0.1,1.1-0.3c0.3-0.2,0.5-0.4,0.5-0.7c0-0.3-0.2-0.5-0.6-0.7l-1.9-1.1l-2.3,1.3
				L92.8,176.5z M96.1,174.5c0.4,0.2,0.8,0.3,1.2,0.4c0.4,0,0.7-0.1,1.1-0.3c0.3-0.2,0.4-0.4,0.4-0.6s-0.2-0.4-0.6-0.7l-1.8-1
				l-2,1.2L96.1,174.5z"/>
			<path class="st42" d="M97.6,179.9c0-0.6,0.4-1.2,1.5-1.8l4.5-2.6c0.1,0,0.2-0.1,0.3-0.1c0.1,0,0.2,0,0.3,0.1l1,0.6
				c0.1,0.1,0.1,0.1,0.1,0.2s0,0.1-0.1,0.2l-4.5,2.6c-0.6,0.3-0.9,0.7-0.9,1s0.2,0.6,0.8,0.9c0.5,0.3,1.1,0.4,1.7,0.4
				c0.6,0,1.2-0.2,1.8-0.5l4.6-2.6c0.1,0,0.2-0.1,0.3-0.1c0.1,0,0.2,0,0.3,0.1l1,0.6c0.1,0,0.1,0.1,0.1,0.2c0,0.1,0,0.1-0.1,0.2
				l-4.6,2.6c-1,0.6-2.1,0.9-3.2,0.9c-1.1,0-2.2-0.3-3.1-0.9C98.2,181.1,97.6,180.5,97.6,179.9z"/>
			<path class="st42" d="M106.7,185.8c0-0.1,0-0.1,0.1-0.2l2.5-1.4l2-4.2l0.1-0.1c0.1,0,0.2-0.1,0.2-0.1c0.1,0,0.2,0,0.2,0.1l1,0.6
				c0.1,0.1,0.2,0.2,0.1,0.3l-1.3,3l5.1-0.8h0.3c0.1,0,0.2,0,0.3,0.1l1,0.6c0.1,0,0.1,0.1,0.1,0.1c0,0.1,0,0.1-0.1,0.1
				c0,0-0.1,0.1-0.2,0.1l-7.3,1.2l-2.5,1.4c-0.1,0-0.2,0.1-0.3,0.1c-0.1,0-0.2,0-0.3-0.1l-1-0.6C106.7,186,106.7,185.9,106.7,185.8z
				"/>
			<path class="st43" d="M84.1,106.8c-0.3,0-0.5-0.2-0.5-0.5v-2c0-0.3,0.2-0.5,0.5-0.5s0.5,0.2,0.5,0.5v2
				C84.6,106.6,84.4,106.8,84.1,106.8z M84.1,102.8c-0.3,0-0.5-0.2-0.5-0.5v-2c0-0.3,0.2-0.5,0.5-0.5s0.5,0.2,0.5,0.5v2
				C84.6,102.6,84.4,102.8,84.1,102.8z M84.1,98.8c-0.3,0-0.5-0.2-0.5-0.5v-2c0-0.3,0.2-0.5,0.5-0.5s0.5,0.2,0.5,0.5v2
				C84.6,98.6,84.4,98.8,84.1,98.8z M84.1,94.8c-0.3,0-0.5-0.2-0.5-0.5v-2c0-0.3,0.2-0.5,0.5-0.5s0.5,0.2,0.5,0.5v2
				C84.6,94.6,84.4,94.8,84.1,94.8z M84.1,90.8c-0.3,0-0.5-0.2-0.5-0.5v-2c0-0.3,0.2-0.5,0.5-0.5s0.5,0.2,0.5,0.5v2
				C84.6,90.6,84.4,90.8,84.1,90.8z M84.1,86.8c-0.3,0-0.5-0.2-0.5-0.5v-2c0-0.3,0.2-0.5,0.5-0.5s0.5,0.2,0.5,0.5v2
				C84.6,86.6,84.4,86.8,84.1,86.8z M84.1,82.8c-0.3,0-0.5-0.2-0.5-0.5v-2c0-0.3,0.2-0.5,0.5-0.5s0.5,0.2,0.5,0.5v2
				C84.6,82.6,84.4,82.8,84.1,82.8z M84.1,78.8c-0.3,0-0.5-0.2-0.5-0.5v-2c0-0.3,0.2-0.5,0.5-0.5s0.5,0.2,0.5,0.5v2
				C84.6,78.6,84.4,78.8,84.1,78.8z M84.1,74.8c-0.3,0-0.5-0.2-0.5-0.5v-2c0-0.3,0.2-0.5,0.5-0.5s0.5,0.2,0.5,0.5v2
				C84.6,74.6,84.4,74.8,84.1,74.8z M84.1,70.8c-0.3,0-0.5-0.2-0.5-0.5v-2c0-0.3,0.2-0.5,0.5-0.5s0.5,0.2,0.5,0.5v2
				C84.6,70.6,84.4,70.8,84.1,70.8z M84.1,66.8c-0.3,0-0.5-0.2-0.5-0.5v-2c0-0.3,0.2-0.5,0.5-0.5s0.5,0.2,0.5,0.5v2
				C84.6,66.6,84.4,66.8,84.1,66.8z M84.1,62.8c-0.3,0-0.5-0.2-0.5-0.5v-2c0-0.3,0.2-0.5,0.5-0.5s0.5,0.2,0.5,0.5v2
				C84.6,62.6,84.4,62.8,84.1,62.8z M84.1,58.8c-0.3,0-0.5-0.2-0.5-0.5v-2c0-0.3,0.2-0.5,0.5-0.5s0.5,0.2,0.5,0.5v2
				C84.6,58.6,84.4,58.8,84.1,58.8z M84.1,54.8c-0.3,0-0.5-0.2-0.5-0.5v-2c0-0.3,0.2-0.5,0.5-0.5s0.5,0.2,0.5,0.5v2
				C84.6,54.6,84.4,54.8,84.1,54.8z"/>
			<path class="st28" d="M206.9,79.9l10.1,5.8c0.5,0.2,1,0.2,1.5,0c0.4-0.2,0.4-0.6,0-0.9l-10.1-5.8c-0.5-0.2-1-0.2-1.5,0
				c-0.2,0.1-0.4,0.3-0.3,0.6C206.7,79.8,206.8,79.9,206.9,79.9z M215.9,86.3l-10.1-5.8c-0.5-0.2-1-0.2-1.5,0
				c-0.2,0.1-0.4,0.3-0.3,0.6c0,0.1,0.2,0.2,0.3,0.3l10.1,5.8c0.5,0.2,1,0.2,1.5,0c0.2-0.1,0.4-0.3,0.3-0.6
				C216.2,86.5,216.1,86.4,215.9,86.3L215.9,86.3z M213.4,87.8L203.3,82c-0.5-0.2-1-0.2-1.5,0c-0.4,0.2-0.4,0.6,0,0.9l10.1,5.8
				c0.5,0.2,1,0.2,1.5,0c0.2-0.1,0.4-0.3,0.3-0.6C213.7,88,213.5,87.8,213.4,87.8z"/>
			<polygon class="st29" points="164.9,203 91.9,160.9 232,79.6 305.1,121.7 			"/>
			<polygon class="st30" points="165.2,202.1 93.2,160.6 231.6,80.2 303.6,121.8 			"/>
			<polygon class="st31" points="165.5,201.2 94.5,160.3 231.2,80.9 302.2,121.9 			"/>
			<polygon class="st32" points="165.8,200.3 95.8,159.9 230.8,81.6 300.8,122 			"/>
			<polygon class="st33" points="166.1,199.4 97.1,159.6 230.4,82.3 299.3,122.1 			"/>
			<polygon class="st34" points="166.3,198.5 98.4,159.3 229.9,82.9 297.9,122.2 			"/>
			<polygon class="st35" points="166.6,197.6 99.7,159 229.5,83.6 296.4,122.3 			"/>
			<polygon class="st36" points="166.9,196.7 101,158.7 229.1,84.3 295,122.3 			"/>
			<polygon class="st37" points="167.2,195.8 102.3,158.4 228.7,85 293.6,122.4 			"/>
			<polygon class="st38" points="167.4,194.9 103.6,158.1 228.3,85.7 292.1,122.5 			"/>
			<polygon class="st5" points="167.7,194 104.9,157.7 227.9,86.3 290.7,122.6 			"/>
			<polygon class="st39" points="168,193.1 106.2,157.4 227.4,87 289.3,122.7 			"/>
			
				<linearGradient id="SVGID_15_" gradientUnits="userSpaceOnUse" x1="-4122.8169" y1="-1779.0215" x2="-4041.0374" y2="-1779.0215" gradientTransform="matrix(0.87 0.5 1 -0.58 5525.3599 1138.38)">
				<stop  offset="0" style="stop-color:#2C3397"/>
				<stop  offset="1" style="stop-color:#5354D4"/>
			</linearGradient>
			<polygon class="st44" points="165.9,191 95.4,150.3 231.2,71.5 301.7,112.2 			"/>
			
				<linearGradient id="SVGID_16_" gradientUnits="userSpaceOnUse" x1="-4122.8169" y1="-1717.4792" x2="-4014.8469" y2="-1717.4792" gradientTransform="matrix(0.87 0.5 1 -0.58 5525.3599 1138.38)">
				<stop  offset="4.000000e-02" style="stop-color:#7E69F5"/>
				<stop  offset="0.24" style="stop-color:#7D71FB"/>
				<stop  offset="0.65" style="stop-color:#A094FF"/>
				<stop  offset="1" style="stop-color:#C5B8FF"/>
			</linearGradient>
			<polygon class="st45" points="285.8,121.5 215.3,80.8 234.4,69.6 304.9,110.3 			"/>
			
				<linearGradient id="SVGID_17_" gradientUnits="userSpaceOnUse" x1="-5996.1357" y1="-1830.4867" x2="-5964.2729" y2="-1830.4867" gradientTransform="matrix(0.87 0.5 1.5 -0.29 8108.5396 2628.8601)">
				<stop  offset="4.000000e-02" style="stop-color:#7E69F5"/>
				<stop  offset="0.24" style="stop-color:#7D71FB"/>
				<stop  offset="0.65" style="stop-color:#A094FF"/>
				<stop  offset="1" style="stop-color:#C5B8FF"/>
			</linearGradient>
			<path class="st46" d="M168.2,178.9l-19.6-11.3c-1.9-1.1-1.7-3,0.5-4.3l0,0c2.3-1.3,5-1.4,7.4-0.3l19.6,11.3
				c1.9,1.1,1.7,3-0.5,4.3l0,0C173.4,179.9,170.6,180,168.2,178.9z"/>
			
				<linearGradient id="SVGID_18_" gradientUnits="userSpaceOnUse" x1="-4116.3569" y1="-1831.3303" x2="-4085.717" y2="-1831.3303" gradientTransform="matrix(0.87 0.5 1 -0.58 5525.3599 1138.38)">
				<stop  offset="4.000000e-02" style="stop-color:#7E69F5"/>
				<stop  offset="0.24" style="stop-color:#7D71FB"/>
				<stop  offset="0.65" style="stop-color:#A094FF"/>
				<stop  offset="1" style="stop-color:#C5B8FF"/>
			</linearGradient>
			<path class="st47" d="M142.1,155.4c1.9,1.1,1.9,2.8,0,3.9c-2.1,1.1-4.6,1.1-6.7,0l-18.5-10.7c-1.9-1.1-1.9-2.8,0-3.9
				c2.1-1.1,4.6-1.1,6.7,0L142.1,155.4L142.1,155.4z M142.8,155l-18.5-10.7c-2.5-1.3-5.5-1.3-8,0c-2.2,1.3-2.2,3.3,0,4.6l18.5,10.7
				c2.5,1.3,5.5,1.3,8,0C145,158.4,145,156.3,142.8,155L142.8,155z"/>
			<path class="st43" d="M224.2,98.6l-11.4,6.6l-11.6-6.7l11.4-6.6L224.2,98.6z M226.1,98.6l-13.6-7.8l-13.3,7.7l13.6,7.8
				L226.1,98.6L226.1,98.6z"/>
			<polygon class="st43" points="249.4,116.3 226.3,102.9 227.2,102.4 250.4,115.8 			"/>
			<polygon class="st43" points="192.1,172.9 126.1,134.8 126.4,134.6 192.4,172.7 			"/>
			<polygon class="st43" points="246.7,117.8 223.6,104.5 224.6,103.9 247.7,117.3 			"/>
			<polygon class="st43" points="236.4,115 220.9,106.1 221.8,105.5 237.4,114.5 			"/>
			<path class="st43" d="M200,112.6l-11.4,6.6l-11.6-6.7l11.4-6.6L200,112.6z M201.9,112.6l-13.5-7.8l-13.4,7.7l13.6,7.8
				L201.9,112.6L201.9,112.6z"/>
			<polygon class="st43" points="225.2,130.3 202.1,116.9 203,116.4 226.1,129.7 			"/>
			<polygon class="st43" points="222.5,131.8 199.4,118.5 200.3,117.9 223.5,131.3 			"/>
			<polygon class="st43" points="212.2,129 196.7,120.1 197.6,119.5 213.2,128.5 			"/>
			<path class="st43" d="M175.7,126.6l-11.4,6.6l-11.6-6.7l11.4-6.6L175.7,126.6z M177.6,126.6l-13.5-7.8l-13.3,7.7l13.5,7.8
				C164.3,134.3,177.6,126.6,177.6,126.6z"/>
			<polygon class="st43" points="200.9,144.3 177.8,130.9 178.7,130.4 201.9,143.8 			"/>
			<polygon class="st43" points="198.2,145.9 175.1,132.5 176,132 199.2,145.3 			"/>
			<polygon class="st43" points="187.9,143.1 172.4,134.1 173.3,133.5 188.9,142.5 			"/>
			<path class="st43" d="M261,127.3c-1.6-0.9-1.6-2.4,0-3.3c1.8-0.9,4-0.9,5.8,0c1.6,0.9,1.6,2.4,0,3.3
				C265,128.2,262.9,128.2,261,127.3z M266.4,124.2c-1.6-0.8-3.4-0.8-5,0c-1.4,0.8-1.4,2.1,0,2.9c1.6,0.8,3.4,0.8,5,0
				C267.8,126.2,267.8,125,266.4,124.2z"/>
			<path class="st43" d="M264.5,125.9h0.8c0.3,0,0.6-0.2,0.6-0.3s-0.3-0.3-0.6-0.3h-0.8v-0.5c0-0.2-0.3-0.3-0.6-0.3
				s-0.6,0.2-0.6,0.3v0.5h-0.8c-0.3,0-0.6,0.2-0.6,0.3c0,0.1,0.1,0.2,0.2,0.2c0.1,0.1,0.3,0.1,0.4,0.1h0.8v0.5
				c0,0.1,0.1,0.2,0.2,0.2c0.1,0.1,0.3,0.1,0.4,0.1c0.3,0,0.6-0.2,0.6-0.3L264.5,125.9z"/>
			<path class="st43" d="M237.1,141.1c-1.6-0.9-1.6-2.4,0-3.3c1.8-0.9,4-0.9,5.8,0c1.6,0.9,1.6,2.4,0,3.3
				C241.1,142,239,142,237.1,141.1z M242.5,138c-1.6-0.8-3.4-0.8-5,0c-1.4,0.8-1.4,2.1,0,2.9c1.6,0.8,3.4,0.8,5,0
				C243.9,140,243.9,138.8,242.5,138L242.5,138z"/>
			<path class="st43" d="M240.6,139.7h0.8c0.3,0,0.6-0.1,0.6-0.3s-0.3-0.3-0.6-0.3h-0.8v-0.5c0-0.2-0.3-0.3-0.6-0.3
				s-0.6,0.1-0.6,0.3v0.5h-0.8c-0.3,0-0.6,0.1-0.6,0.3c0,0.1,0.1,0.2,0.2,0.2c0.1,0.1,0.3,0.1,0.4,0.1h0.8v0.5
				c0,0.1,0.1,0.2,0.2,0.2c0.1,0.1,0.3,0.1,0.4,0.1c0.3,0,0.6-0.1,0.6-0.3V139.7z"/>
			<path class="st43" d="M212.6,155.2c-1.6-0.9-1.6-2.4,0-3.3c1.8-0.9,4-0.9,5.8,0c1.6,0.9,1.6,2.4,0,3.3
				C216.6,156.1,214.5,156.1,212.6,155.2z M218,152.1c-1.6-0.8-3.4-0.8-5,0c-1.4,0.8-1.4,2.1,0,2.9c1.6,0.8,3.4,0.8,5,0
				C219.4,154.2,219.4,152.9,218,152.1L218,152.1z"/>
			<path class="st43" d="M216.1,153.9h0.8c0.3,0,0.6-0.1,0.6-0.3s-0.3-0.3-0.6-0.3h-0.8v-0.5c0-0.2-0.3-0.3-0.6-0.3
				s-0.6,0.1-0.6,0.3v0.5h-0.8c-0.3,0-0.6,0.1-0.6,0.3c0,0.1,0.1,0.2,0.2,0.2c0.1,0.1,0.3,0.1,0.4,0.1h0.8v0.5
				c0,0.1,0.1,0.2,0.2,0.2c0.1,0.1,0.3,0.1,0.4,0.1c0.3,0,0.6-0.1,0.6-0.3V153.9z"/>
			
				<linearGradient id="SVGID_19_" gradientUnits="userSpaceOnUse" x1="-4122.4268" y1="-1717.2593" x2="-4086.6272" y2="-1717.2593" gradientTransform="matrix(0.87 0.5 1 -0.58 5525.3599 1138.38)">
				<stop  offset="4.000000e-02" style="stop-color:#A9AAFD"/>
				<stop  offset="0.58" style="stop-color:#D6D5FF"/>
				<stop  offset="1" style="stop-color:#F0EFFF"/>
			</linearGradient>
			<path class="st48" d="M246.8,83.3l-8.9-5.1l0.9-1.1c0.1-0.1,0.1-0.3-0.1-0.4l-2.6-1.5c-0.2-0.1-0.5-0.1-0.8,0
				c-0.1,0-0.2,0.2-0.2,0.3c0,0.1,0.1,0.1,0.2,0.2l2.3,1.3l-5.2,6.3c-0.1,0.1-0.1,0.3,0.1,0.3l0.8,0.5h-0.2c-0.8,0-1.4,0.4-1.4,0.8
				s0.6,0.8,1.4,0.8s1.4-0.4,1.4-0.8c0,0,0-0.1,0-0.1l1.8,1h-0.2c-0.8,0-1.4,0.4-1.4,0.8s0.6,0.8,1.4,0.8s1.4-0.4,1.4-0.8
				c0,0,0-0.1,0-0.1l0.4,0.2c0.2,0.1,0.5,0.1,0.8,0c0.2-0.1,0.2-0.3,0-0.4l-5.2-3l1.1-1.3l6.4,3.7c0.4,0.2,1,0.3,1.4,0.1l4.1-1.5
				C247.2,84.1,247.3,83.6,246.8,83.3z"/>
			<path class="st49" d="M245.6,83.4c-2.2,1.1-4.8,1.1-7,0c-1.9-1.1-2-2.9,0-4c2.2-1.1,4.8-1.1,7,0
				C247.6,80.5,247.6,82.3,245.6,83.4z"/>
			<path class="st42" d="M242.9,81.6c0.2,0.1,0.3,0.3,0.2,0.5c-0.1,0.2-0.2,0.4-0.4,0.5c-0.2,0.1-0.4,0.2-0.6,0.2
				c-0.4,0.1-0.9,0-1.3-0.1c-0.2-0.1-0.5-0.2-0.7-0.3c-0.2-0.1-0.4-0.3-0.6-0.5c-0.1-0.2-0.2-0.3-0.1-0.5l0.9-0.1
				c0,0.1,0,0.3,0.1,0.4c0.1,0.1,0.2,0.3,0.4,0.3c0.2,0.1,0.4,0.2,0.6,0.2c0.2,0,0.4,0,0.6-0.1c0.2-0.1,0.3-0.2,0.2-0.4
				s-0.2-0.3-0.5-0.4l-0.2-0.1l0.6-0.3l0.2,0.1c0.2,0.1,0.4,0.2,0.7,0.2c0.2,0,0.4,0,0.6-0.1c0.1-0.1,0.2-0.2,0.2-0.3
				c-0.1-0.1-0.2-0.2-0.3-0.3c-0.2-0.1-0.4-0.2-0.6-0.2c-0.2,0-0.4,0-0.6,0v-0.6c0.1,0,0.3,0,0.4,0c0.2,0,0.3,0,0.5,0.1
				c0.2,0,0.3,0.1,0.5,0.2c0.2,0.1,0.3,0.1,0.5,0.2c0.2,0.1,0.3,0.2,0.4,0.3c0.1,0.1,0.2,0.2,0.2,0.3c0,0.1,0,0.2,0,0.3
				c-0.1,0.1-0.2,0.2-0.3,0.3c-0.1,0.1-0.2,0.1-0.4,0.2c-0.1,0-0.3,0.1-0.4,0.1c-0.1,0-0.3,0-0.4,0C243.1,81.7,243,81.6,242.9,81.6z
				"/>
			<path class="st50" d="M287.9,111.7h3.5c0.3,0,0.5-0.1,0.5-0.3s-0.3-0.3-0.5-0.3h-3.5v-2c0-0.2-0.2-0.3-0.5-0.3s-0.5,0.1-0.5,0.3
				v2h-3.5c-0.3,0-0.5,0.1-0.5,0.3c0,0.1,0.1,0.2,0.2,0.2c0.1,0.1,0.3,0.1,0.4,0.1h3.5v2c0,0.1,0.1,0.2,0.2,0.2
				c0.1,0.1,0.2,0.1,0.4,0.1c0.3,0,0.5-0.1,0.5-0.3V111.7z"/>
			
				<radialGradient id="SVGID_20_" cx="217.8" cy="148.83" r="79.9" gradientTransform="matrix(1 0 0 -1 0 290)" gradientUnits="userSpaceOnUse">
				<stop  offset="0" style="stop-color:#FFFFFF"/>
				<stop  offset="1" style="stop-color:#00004A"/>
			</radialGradient>
			<polygon class="st51" points="165.9,190.3 96.5,149.7 95.4,150.3 165.9,191 304.7,110.3 303.6,110.2 			"/>
			<polygon class="st29" points="231.5,148.6 156.9,105.5 186.6,88.5 261.1,131.5 			"/>
			<polygon class="st30" points="231.3,147.9 157.9,105.5 186.7,88.9 260.1,131.3 			"/>
			<polygon class="st31" points="231,147.2 158.8,105.5 186.9,89.4 259.1,131.1 			"/>
			<polygon class="st32" points="230.8,146.6 159.8,105.6 187.1,89.8 258.2,130.9 			"/>
			<polygon class="st33" points="230.6,145.9 160.7,105.6 187.3,90.3 257.2,130.6 			"/>
			<polygon class="st34" points="230.4,145.3 161.6,105.6 187.4,90.7 256.2,130.4 			"/>
			<polygon class="st35" points="230.2,144.6 162.6,105.6 187.6,91.2 255.2,130.2 			"/>
			<polygon class="st36" points="230,144 163.5,105.6 187.8,91.6 254.3,130 			"/>
			<polygon class="st37" points="229.7,143.3 164.4,105.6 188,92 253.3,129.8 			"/>
			<polygon class="st38" points="229.5,142.7 165.4,105.6 188.2,92.5 252.3,129.5 			"/>
			<polygon class="st5" points="229.3,142 166.3,105.6 188.3,92.9 251.3,129.3 			"/>
			<polygon class="st39" points="229.1,141.4 167.3,105.7 188.5,93.4 250.4,129.1 			"/>
			
				<linearGradient id="SVGID_21_" gradientUnits="userSpaceOnUse" x1="-4156.5269" y1="-1762.3427" x2="-4076.407" y2="-1762.3427" gradientTransform="matrix(0.87 0.5 1 -0.58 5549.6899 1148.66)">
				<stop  offset="4.000000e-02" style="stop-color:#9583FF"/>
				<stop  offset="0.29" style="stop-color:#9290FF"/>
				<stop  offset="0.79" style="stop-color:#A9A9FF"/>
				<stop  offset="1" style="stop-color:#BCB7FF"/>
			</linearGradient>
			<polygon class="st52" points="232.4,141.6 163,101.5 186.8,87.7 256.2,127.8 			"/>
			<path class="st28" d="M199.6,103l-11.2,6.5l-11.4-6.6l11.2-6.5L199.6,103z M201.5,103l-13.3-7.7l-13.1,7.6l13.3,7.7L201.5,103z"
				/>
			<polygon class="st28" points="224.4,120.4 201.7,107.3 202.6,106.7 225.4,119.9 			"/>
			<polygon class="st28" points="221.8,121.9 199,108.8 199.9,108.3 222.7,121.4 			"/>
			<polygon class="st28" points="211.6,119.2 196.3,110.3 197.3,109.8 212.6,118.6 			"/>
			<g>
				<path class="st28" d="M236.2,131c-1.6-0.9-1.6-2.4,0-3.3c1.8-0.9,3.9-0.9,5.7,0c1.6,0.9,1.6,2.4,0,3.3
					C240.1,131.9,238,131.9,236.2,131z M241.5,128c-1.5-0.8-3.3-0.8-4.9,0c-1.3,0.8-1.3,2,0,2.8c1.5,0.8,3.3,0.8,4.9,0
					C242.8,130,242.8,128.8,241.5,128z"/>
				<path class="st28" d="M239.6,129.7h0.8c0.3,0,0.6-0.1,0.6-0.3s-0.3-0.3-0.6-0.3h-0.8v-0.5c0-0.2-0.3-0.3-0.6-0.3
					s-0.6,0.1-0.6,0.3v0.5h-0.8c-0.3,0-0.6,0.1-0.6,0.3c0,0.1,0.1,0.2,0.2,0.2c0.1,0.1,0.3,0.1,0.4,0.1h0.8v0.5
					c0,0.1,0.1,0.2,0.2,0.2c0.1,0.1,0.3,0.1,0.4,0.1c0.3,0,0.6-0.1,0.6-0.3V129.7z"/>
			</g>
			<g>
				<path class="st43" d="M217.2,58.7l-41.1,23.7l-46.6-26.9l41-23.7L217.2,58.7L217.2,58.7z M219.3,58.7l-48.6-28.1l-43.1,24.9
					l48.6,28.1L219.3,58.7L219.3,58.7z"/>
				<path class="st43" d="M132.6,66.7l-11.9,6.9l-17.1-9.9l11.9-6.9L132.6,66.7z M134.7,66.7l-19.2-11.1l-13.9,8l19.2,11.1
					L134.7,66.7L134.7,66.7z"/>
				<path class="st43" d="M153.3,78.6l-11.9,6.9l-17.1-9.9l11.9-6.9L153.3,78.6z M155.4,78.6l-19.2-11.1l-13.9,8l19.2,11.1
					L155.4,78.6z"/>
				<path class="st43" d="M174,90.6l-11.9,6.9L145,87.6l11.9-6.9L174,90.6z M176.1,90.6l-19.2-11.1l-13.9,8l19.2,11.1L176.1,90.6
					L176.1,90.6z"/>
				<polygon class="st43" points="150.3,105.2 89.9,70.4 91.8,69.3 152.2,104.2 				"/>
				<polygon class="st43" points="144.9,108.4 84.6,73.5 86.4,72.4 146.8,107.3 				"/>
				<polygon class="st43" points="110.8,95 79.1,76.7 80.9,75.6 112.7,93.9 				"/>
				<path class="st43" d="M30.3,114.9c-0.3-0.2-0.5-0.6-0.5-0.9c0-0.2,0.3-0.4,0.6-0.4c0.5,0,0.9,0,1.3-0.1c0.3,0.1,0.6,0.1,0.9,0
					c0.2-0.1,0.3-0.3,0.2-0.4c0.9-0.6,1.3-1.2,0-2c-1.1-0.6-2.4-0.6-3.4,0c-0.2-0.1-0.5,0-0.7,0.1c-0.1,0.1-0.2,0.3-0.1,0.4
					c0,0,0.1,0.1,0.1,0.1c-0.2,0.2-0.2,0.5-0.3,0.8c0,0.2-0.3,0.4-0.6,0.4c-0.6,0-1.1-0.1-1.6-0.3c-0.7-0.2-1.5-0.2-2.1,0.1l-1,0.6
					c-0.1,0-0.2,0.2-0.1,0.3c0,0.1,0.1,0.1,0.1,0.1l5.3,3.1c0.2,0.1,0.5,0.1,0.7,0l1-0.6C30.6,115.8,30.7,115.3,30.3,114.9z"/>
				<path class="st43" d="M82.2,143.6c0.1-0.1,0.3-0.2,0.4-0.3l1.3,0.2c0.2-0.2,0.4-0.5,0.5-0.7l-1.1-0.4c0.1-0.2,0.1-0.4,0-0.7
					l1.1-0.4c-0.1-0.3-0.3-0.5-0.5-0.7l-1.3,0.2c-0.1-0.1-0.2-0.2-0.4-0.3l-0.4-0.2l0.3-0.8c-0.4-0.1-0.8-0.2-1.3-0.3l-0.7,0.7
					c-0.4,0-0.8,0-1.1,0l-0.7-0.7c-0.4,0.1-0.8,0.2-1.2,0.3l0.3,0.8c-0.1,0.1-0.3,0.1-0.4,0.2c-0.1,0.1-0.3,0.2-0.4,0.3l-1.3-0.2
					c-0.2,0.2-0.4,0.5-0.5,0.7l1.1,0.4c-0.1,0.2-0.1,0.4,0,0.6l-1.1,0.4c0.1,0.3,0.3,0.5,0.5,0.7l1.3-0.2c0.1,0.1,0.2,0.2,0.4,0.3
					c0.1,0.1,0.3,0.2,0.4,0.2l-0.3,0.8c0.4,0.1,0.8,0.2,1.2,0.3l0.7-0.7c0.4,0,0.8,0,1.1,0l0.7,0.6c0.4-0.1,0.8-0.2,1.2-0.3
					l-0.3-0.8C81.9,143.8,82,143.7,82.2,143.6z M78.5,142.7c-0.6-0.3-0.6-0.9,0-1.2c0.7-0.3,1.5-0.3,2.1,0c0.6,0.3,0.6,0.9,0,1.2
					C79.9,143.1,79.1,143.1,78.5,142.7z"/>
				<path class="st43" d="M38.7,122.8l1.6,0.9l2.9-1.7l-1.6-0.9L38.7,122.8z M41.1,124.2l1.6,0.9l4.8-2.8l-1.6-0.9L41.1,124.2z
					 M50.2,121.8l-6.7,3.8l1.6,0.9l6.7-3.8L50.2,121.8z"/>
				<path class="st43" d="M67.2,131.6c-0.8-0.4-1.7-0.5-2.6-0.4c0.3-0.5,0-1.1-0.6-1.5c-1.1-0.6-2.5-0.6-3.6,0
					c-1.8,1.1-0.7,4.3-0.7,4.3s5.7,0.7,7.5-0.4C68.2,133.1,68.2,132.2,67.2,131.6z"/>
				<path class="st43" d="M180,10.4l10.1,5.8c0.5,0.2,1,0.2,1.5,0c0.2-0.1,0.4-0.3,0.3-0.6c0-0.1-0.2-0.2-0.3-0.3l-10.1-5.8
					c-0.5-0.2-1-0.2-1.5,0C179.6,9.7,179.6,10.1,180,10.4z M189.1,16.8L179,11c-0.5-0.2-1-0.2-1.5,0c-0.4,0.2-0.4,0.6,0,0.9
					l10.1,5.8c0.5,0.2,1,0.2,1.5,0c0.3,0,0.5-0.2,0.5-0.5S189.3,16.8,189.1,16.8L189.1,16.8L189.1,16.8z M186.5,18.2l-10.1-5.8
					c-0.5-0.2-1-0.2-1.5,0c-0.4,0.2-0.4,0.6,0,0.9l10.1,5.8c0.5,0.2,1,0.2,1.5,0c0.2-0.1,0.4-0.3,0.3-0.6
					C186.8,18.4,186.7,18.3,186.5,18.2L186.5,18.2z"/>
				<path class="st43" d="M75.6,155.2L3.6,113.6c-4.7-2.7-4.8-7.2,0-9.9l169.7-98c4.7-2.7,12.4-2.7,17.2,0l72.1,41.6
					c4.7,2.7,4.8,7.2,0,9.9l-169.7,98C88.1,158,80.4,158,75.6,155.2z M189.6,6.2c-4.4-2.5-11.4-2.5-15.8,0L4.2,104.1
					c-4.3,2.5-4.3,6.6,0,9.1l72.1,41.6c4.4,2.5,11.4,2.5,15.8,0l169.7-98c4.3-2.5,4.3-6.6,0-9.1L189.6,6.2z"/>
				<path class="st43" d="M249,52.3c0,0.3-0.4,0.6-1,0.6s-1-0.3-1-0.6s0.4-0.6,1-0.6S249,52,249,52.3z"/>
				<path class="st43" d="M247.5,47.8h-0.2v0.6h0.2c4,0,7.3,1.9,7.3,4.2l0,0h1C255.7,50,252,47.9,247.5,47.8z"/>
				<path class="st43" d="M247.5,50.1h-0.1v0.6h0.2c1.9,0,3.4,0.9,3.4,2l0,0h1l0,0C251.9,51.2,249.9,50.1,247.5,50.1z"/>
				<path class="st43" d="M247.5,49h-0.2v0.6h0.2c2.9,0,5.4,1.4,5.4,3.1l0,0h1l0,0C253.8,50.6,251,49,247.5,49z"/>
				<polygon class="st43" points="228.7,42 199.6,25.2 201.5,24.1 230.6,40.9 				"/>
				<path class="st43" d="M92.5,120.4l-28.6-16.5c-3.7-2.1-3.7-5.6,0-7.7c4.2-2.1,9.2-2.1,13.4,0l28.6,16.5c3.7,2.1,3.7,5.6,0,7.7
					C101.7,122.5,96.7,122.5,92.5,120.4z M76.2,96.8c-3.6-1.8-7.8-1.8-11.3,0c-3.1,1.8-3.1,4.7,0,6.5l28.6,16.5
					c3.6,1.8,7.8,1.8,11.3,0c3.1-1.8,3.1-4.7,0-6.5L76.2,96.8z"/>
				<path class="st43" d="M197.1,76.7c-0.2-0.1-0.3-0.2-0.3-0.4c0-0.3,0.4-0.6,1-0.6h7.8v-4.5c0-0.3,0.4-0.6,1-0.6s1,0.3,1,0.6v5.6
					h-9.7C197.6,76.9,197.4,76.8,197.1,76.7z"/>
				<path class="st43" d="M139.4,43.3c-0.2-0.1-0.3-0.2-0.3-0.4v-5.6h9.7c0.5,0,1,0.3,1,0.6s-0.4,0.6-1,0.6h-7.8V43
					c0,0.3-0.4,0.6-1,0.6C139.8,43.5,139.6,43.5,139.4,43.3z"/>
			</g>
			<g>
				<path class="st53" d="M79.6,30.3c0,0.6-0.8,1.1-1.9,1.1s-1.9-0.5-1.9-1.1s0.8-1.1,1.9-1.1S79.6,29.7,79.6,30.3z"/>
				<path class="st53" d="M85.6,33.7c0,0.6-0.8,1.1-1.9,1.1s-1.9-0.5-1.9-1.1s0.8-1.1,1.9-1.1S85.6,33.2,85.6,33.7z"/>
				<path class="st53" d="M87.6,34l-10-5.8l6-10l-3.5-2c-0.3-0.2-0.3-0.4,0-0.6c0.3-0.1,0.7-0.1,1,0l4.1,2.4l-6,10l9.4,5.4
					c0.2,0.1,0.3,0.2,0.2,0.4c0,0.1-0.1,0.2-0.2,0.2C88.3,34.2,87.9,34.2,87.6,34z"/>
				<path class="st53" d="M90.1,32.3l-9.1-5.3c-0.2-0.1-0.3-0.2-0.2-0.4c0-0.1,0.1-0.2,0.2-0.2c0.3-0.1,0.7-0.1,1,0l8.7,5l6.7-2.5
					l-13.1-7.6c-0.3-0.2-0.3-0.4,0-0.6c0.3-0.2,0.7-0.2,1,0L99,28.8c0.1,0.1,0.2,0.2,0.2,0.3c-0.1,0.2-0.2,0.3-0.3,0.3l-8,3
					C90.6,32.5,90.3,32.5,90.1,32.3z"/>
				<path class="st53" d="M66.4,38.3C55.1,31.7,55,21.1,66.3,14.6s29.6-6.5,41,0.1s11.4,17.1,0.1,23.7S77.8,44.8,66.4,38.3z
					 M105.9,15.5c-10.6-6.1-27.7-6.1-38.2-0.1s-10.5,16,0.1,22.1s27.7,6.1,38.2,0.1S116.5,21.6,105.9,15.5z"/>
				<path class="st54" d="M60.7,41.6c-14.5-8.4-14.6-22-0.2-30.3s38-8.3,52.5,0.1s14.6,22,0.2,30.3S75.2,50,60.7,41.6z M111,12.6
					c-13.4-7.8-35.1-7.8-48.4-0.1s-13.2,20.2,0.2,28s35.1,7.8,48.4,0.1S124.4,20.3,111,12.6L111,12.6z"/>
				<path class="st55" d="M54.5,45.1C36.6,34.8,36.5,18,54.3,7.7s46.9-10.2,64.9,0.1s18,27.2,0.2,37.5S72.4,55.5,54.5,45.1z
					 M116.4,9.4C100-0.1,73.4-0.2,57.1,9.3s-16.2,24.8,0.2,34.3s43.1,9.5,59.4,0.1S132.9,18.9,116.4,9.4z"/>
			</g>
			<path class="st43" d="M84.1,169c-0.3,0-0.5-0.2-0.5-0.5v-1.2c0-0.3,0.2-0.5,0.5-0.5s0.5,0.2,0.5,0.5v1.2
				C84.6,168.8,84.4,169,84.1,169z M84.1,165.8c-0.3,0-0.5-0.2-0.5-0.5v-2c0-0.3,0.2-0.5,0.5-0.5s0.5,0.2,0.5,0.5v2
				C84.6,165.6,84.4,165.8,84.1,165.8z M84.1,161.8c-0.3,0-0.5-0.2-0.5-0.5v-2c0-0.3,0.2-0.5,0.5-0.5s0.5,0.2,0.5,0.5v2
				C84.6,161.6,84.4,161.8,84.1,161.8z M84.1,157.8c-0.3,0-0.5-0.2-0.5-0.5v-2c0-0.3,0.2-0.5,0.5-0.5s0.5,0.2,0.5,0.5v2
				C84.6,157.6,84.4,157.8,84.1,157.8z M84.1,153.8c-0.3,0-0.5-0.2-0.5-0.5v-2c0-0.3,0.2-0.5,0.5-0.5s0.5,0.2,0.5,0.5v2
				C84.6,153.6,84.4,153.8,84.1,153.8z M84.1,149.8c-0.3,0-0.5-0.2-0.5-0.5v-2c0-0.3,0.2-0.5,0.5-0.5s0.5,0.2,0.5,0.5v2
				C84.6,149.6,84.4,149.8,84.1,149.8z M84.1,145.8c-0.3,0-0.5-0.2-0.5-0.5v-2c0-0.3,0.2-0.5,0.5-0.5s0.5,0.2,0.5,0.5v2
				C84.6,145.6,84.4,145.8,84.1,145.8z M84.1,141.8c-0.3,0-0.5-0.2-0.5-0.5v-2c0-0.3,0.2-0.5,0.5-0.5s0.5,0.2,0.5,0.5v2
				C84.6,141.6,84.4,141.8,84.1,141.8z M84.1,137.8c-0.3,0-0.5-0.2-0.5-0.5v-2c0-0.3,0.2-0.5,0.5-0.5s0.5,0.2,0.5,0.5v2
				C84.6,137.6,84.4,137.8,84.1,137.8z M84.1,133.8c-0.3,0-0.5-0.2-0.5-0.5v-2c0-0.3,0.2-0.5,0.5-0.5s0.5,0.2,0.5,0.5v2
				C84.6,133.6,84.4,133.8,84.1,133.8z M84.1,129.8c-0.3,0-0.5-0.2-0.5-0.5v-2c0-0.3,0.2-0.5,0.5-0.5s0.5,0.2,0.5,0.5v2
				C84.6,129.6,84.4,129.8,84.1,129.8z M84.1,125.8c-0.3,0-0.5-0.2-0.5-0.5v-2c0-0.3,0.2-0.5,0.5-0.5s0.5,0.2,0.5,0.5v2
				C84.6,125.6,84.4,125.8,84.1,125.8z M84.1,121.8c-0.3,0-0.5-0.2-0.5-0.5v-2c0-0.3,0.2-0.5,0.5-0.5s0.5,0.2,0.5,0.5v2
				C84.6,121.6,84.4,121.8,84.1,121.8z M84.1,117.8c-0.3,0-0.5-0.2-0.5-0.5v-2c0-0.3,0.2-0.5,0.5-0.5s0.5,0.2,0.5,0.5v2
				C84.6,117.6,84.4,117.8,84.1,117.8z"/>
		</g>
	</g>
</g>
</svg>
