<svg xmlns="http://www.w3.org/2000/svg" viewBox="0 0 46 46"><defs><style>.cls-1{fill:#fff;}</style></defs><title>Asset 1</title><g id="Layer_2" data-name="Layer 2"><g id="Layer_1-2" data-name="Layer 1"><path id="surface1" class="cls-1" d="M44.79,20.09,25.91,1.21a4.1,4.1,0,0,0-5.82,0L16.35,4.94,21,9.56A4,4,0,0,1,26.43,15L31,19.56a4,4,0,0,1,4.85,6.27A4,4,0,1,1,29,21.77a3.62,3.62,0,0,1,.61-.79L25,16.43a4.17,4.17,0,0,1-1,.43V29.14a4,4,0,1,1-2,0V16.86a4.07,4.07,0,0,1-1.83-1,4,4,0,0,1-.6-4.85L14.94,6.36,1.21,20.09a4.12,4.12,0,0,0,0,5.82h0L20.09,44.79a4.1,4.1,0,0,0,5.82,0L44.79,25.91a4.12,4.12,0,0,0,0-5.82Z"/></g></g></svg>