<?xml version="1.0" encoding="UTF-8"?>
<svg viewBox="0 0 760 1080" xmlns="http://www.w3.org/2000/svg">
<defs>
<style>.cls-1{opacity:0.75;fill:url(#a);}.cls-2{fill:#fff;opacity:0.13;}</style>
<linearGradient id="a" x1="141.91" x2="955.3" y1="71.3" y2="884.7" gradientUnits="userSpaceOnUse">
<stop stop-color="#fff" offset="0"/>
<stop stop-color="#ad81fa" stop-opacity="0" offset="1"/>
</linearGradient>
</defs>
<title>Asset 34</title>
<g data-name="Layer 2">
<g data-name="Layer 2">
<path class="cls-1" d="M213.21,0a559.74,559.74,0,0,1-80.87,248.81C-43.81,549.36,36.35,710.11,248,837.69,338.71,889.8,526.91,976.62,554.53,1080H760V0Z"/>
<path class="cls-2" d="M248,837.69C36.35,710.11-43.81,549.36,132.34,248.81A559.74,559.74,0,0,0,213.21,0H193.83q-.62,3.72-1.28,7.43l-.09.53q-3.36,18.81-7.8,37.23c-.06.23-.11.46-.17.69-.56,2.29-1.12,4.58-1.7,6.86l-.24.9Q178.89,68,174.6,82c-.1.31-.19.62-.29.93-.62,2-1.26,4-1.9,6.06-.2.63-.4,1.26-.61,1.89-.62,1.92-1.24,3.84-1.88,5.76-.22.65-.44,1.29-.65,1.94-.66,2-1.33,3.91-2,5.86,0,.17-.11.33-.17.49q-2.25,6.47-4.64,12.87c-.15.38-.28.77-.43,1.15q-1,2.55-1.94,5.07L159,126.82l-1.86,4.69c-.42,1.06-.85,2.11-1.28,3.17q-.92,2.25-1.84,4.48c-.46,1.13-.94,2.26-1.42,3.38q-.9,2.15-1.81,4.28c-.69,1.61-1.4,3.21-2.1,4.81q-1.27,2.9-2.58,5.77-.95,2.08-1.9,4.17l-1.68,3.61-1.95,4.11-1.68,3.5c-.7,1.44-1.41,2.87-2.11,4.3-.54,1.08-1.07,2.16-1.61,3.23-.86,1.73-1.74,3.45-2.62,5.16-.4.77-.79,1.54-1.18,2.31q-1.89,3.65-3.83,7.26l-1.3,2.4q-1.36,2.53-2.76,5.06l-1.55,2.78q-1.32,2.37-2.66,4.71c-.52.92-1,1.83-1.58,2.75-1,1.66-1.92,3.31-2.89,4.95-.46.78-.91,1.57-1.38,2.35q-2.15,3.62-4.34,7.2-2.32,4-4.61,7.92-4.56,7.91-8.9,15.68T87.1,266.3Q83,274,79,281.52c-1.31,2.52-2.61,5-3.88,7.53-153,300.05-59.5,468,164.55,603l3.24,1.85.78.45,3.26,1.85,0,0,3.38,1.9c.29.16.58.32.86.49l3.21,1.79.25.14,3.49,1.94.9.5,3.21,1.77.4.22,3.55,2,1.07.59,3,1.66.69.38,3.6,2,1.21.66,2.76,1.51,1.08.59,3.2,1.74,2.71,1.48h0c33.19,18.07,71.28,38.65,109,61.37h0q5,3,10,6.08h0q5,3.06,10,6.17l0,0q4.95,3.1,9.87,6.26l.07,0q4.91,3.15,9.77,6.34l.08,0q4.86,3.18,9.65,6.42l.1.06q4.78,3.24,9.51,6.51l.1.07q4.72,3.27,9.36,6.59l.11.08q4.64,3.31,9.18,6.67l.12.08q4.54,3.36,9,6.76l.1.08q4.46,3.4,8.79,6.85l.1.08q4.33,3.45,8.56,6.94l.09.07q4.22,3.49,8.3,7l.09.08q4.08,3.54,8,7.11l.07.06c1.3,1.18,2.59,2.37,3.87,3.55l0,0q1.94,1.8,3.83,3.62l0,0c1.24,1.19,2.47,2.37,3.68,3.56l.11.11L531,1080h23.54C526.91,976.62,338.71,889.8,248,837.69Z"/>
</g>
</g>
</svg>