<svg xmlns="http://www.w3.org/2000/svg" viewBox="0 0 1599.29 1982.83"><defs><style>.cls-1{fill:#fff;}</style></defs><title>Asset 2</title><g id="Layer_2" data-name="Layer 2"><g id="Layer_1-2" data-name="Layer 1"><path class="cls-1" d="M189.11,1982.83H1410.17c104.44,0,189.12-84.65,189.12-189.09V189.1C1599.29,84.66,1514.61,0,1410.17,0H189.11C84.66,0,0,84.66,0,189.1V1793.74C0,1898.18,84.66,1982.83,189.11,1982.83Zm185.05-274.19V1260.21l224.23,224.23ZM1055,271.49h244.44s-41.85,116.17-170.15,282.3H892.85C977.94,449.75,1055,271.49,1055,271.49Zm-462-1.36V738.82S1217,493,1217,925.22V1710H1002.25V922.56s51.22-188.43-630.89,77.09c-1.25,3.37-1.25-728.15-1.25-728.15Z"/></g></g></svg>