<svg xmlns="http://www.w3.org/2000/svg" viewBox="0 0 136.72 222.78"><defs><style>.cls-1{fill:#fff;}</style></defs><title>html</title><g id="Layer_2" data-name="Layer 2"><g id="Layer_1-2" data-name="Layer 1"><path class="cls-1" d="M0,0,12.44,139.56l55.84,15.5,56-15.53L136.72,0ZM109.64,45.64H44.15l1.56,17.53h62.38l-4.7,52.54-35,9.72h-.08l-35.06-9.73-2.4-26.87H48l1.21,13.66,19.06,5.13h0l19.07-5.14,2-22.2H30.05L25.44,28.53h85.73Z"/><path class="cls-1" d="M28,196.59h3.59v25.64H28V210.39H15.49v11.84H11.9V196.59h3.59v10.69H28Z"/><path class="cls-1" d="M55.12,196.59v3.1H47.05v22.54H43.46V199.69H35.4v-3.1Z"/><path class="cls-1" d="M70.4,218.67c-.25-.59-.58-1.34-1-2.25l-1.32-3c-.47-1.06-1-2.15-1.5-3.28s-1-2.18-1.49-3.18-.91-1.89-1.32-2.68-.73-1.39-1-1.81q-.41,4.37-.66,9.45c-.18,3.39-.32,6.81-.45,10.27H58.19q.15-3.33.33-6.72c.12-2.26.27-4.48.43-6.66s.33-4.31.51-6.38.39-4,.61-5.88h3.15c.66,1.08,1.38,2.36,2.15,3.84s1.52,3,2.29,4.65,1.5,3.23,2.22,4.84,1.37,3.09,2,4.43c.59-1.34,1.25-2.81,2-4.43s1.46-3.23,2.22-4.84,1.53-3.17,2.3-4.65,1.48-2.76,2.14-3.84h3.15q1.24,12.39,1.88,25.64H82c-.13-3.46-.27-6.88-.45-10.27s-.39-6.54-.66-9.45c-.25.42-.57,1-1,1.81S79,206,78.57,207s-1,2.06-1.49,3.18-1,2.22-1.5,3.28l-1.32,3c-.4.91-.73,1.66-1,2.25Z"/><path class="cls-1" d="M106.55,219.12v3.11H91.12V196.59h3.59v22.53Z"/><path class="cls-1" d="M114.5,206.46c3.72.15,6.46,1,8.2,2.45a7.53,7.53,0,0,1,2.6,6,8.47,8.47,0,0,1-.57,3.14,6.43,6.43,0,0,1-1.74,2.48,8.32,8.32,0,0,1-2.94,1.63,13.51,13.51,0,0,1-4.22.59,13.24,13.24,0,0,1-2-.15,17.79,17.79,0,0,1-1.85-.37c-.57-.14-1.07-.29-1.52-.44a8.63,8.63,0,0,1-1-.37l.67-3a20.32,20.32,0,0,0,2.05.78,11.08,11.08,0,0,0,3.5.48,8.93,8.93,0,0,0,2.79-.37,5.15,5.15,0,0,0,1.83-1,3.73,3.73,0,0,0,1-1.46,4.91,4.91,0,0,0,.32-1.76,6.19,6.19,0,0,0-.49-2.5,4.12,4.12,0,0,0-1.7-1.83,10,10,0,0,0-3.25-1.13,29.16,29.16,0,0,0-5.15-.38c.15-1.21.27-2.35.35-3.41s.17-2.09.24-3.11.14-2,.19-3,.1-2.05.15-3.16h12.36v2.92h-9.37c0,.37-.06.87-.11,1.5s-.1,1.28-.14,2-.1,1.34-.15,2S114.55,206.09,114.5,206.46Z"/></g></g></svg>