<svg xmlns="http://www.w3.org/2000/svg" viewBox="0 0 226.2 305"><defs><style>.cls-1{fill:#fff;}</style></defs><title>Asset 1</title><g id="Layer_2" data-name="Layer 2"><g id="Layer_1-2" data-name="Layer 1"><g id="_Group_" data-name="&lt;Group&gt;"><path id="_Path_" data-name="&lt;Path&gt;" class="cls-1" d="M111.59,56.51C97.5,66.42,81.52,77.66,73,96.25,58.1,128.67,103.38,164,105.32,165.53a2.48,2.48,0,0,0,1.52.52,2.49,2.49,0,0,0,2.22-3.65c-.16-.31-16.42-31.89-15.81-54.54C93.46,100,104.5,91,116.19,81.55,126.9,72.87,139,63,146.13,51.53c15.59-25.33-1.74-50.23-1.91-50.48a2.5,2.5,0,0,0-4.49,2,53.1,53.1,0,0,1-6,33.6C129.9,43.63,121.42,49.6,111.59,56.51Z"/><path id="_Path_2" data-name="&lt;Path&gt;" class="cls-1" d="M171,67.68a2.5,2.5,0,0,0-2.39-4.33c-2.39.91-58.63,22.58-58.63,48.77,0,18.06,7.72,27.59,13.35,34.56,2.21,2.73,4.11,5.09,4.74,7.1,1.77,5.81-2.42,16.3-4.18,19.85a2.49,2.49,0,0,0,3.66,3.16c1-.67,23.63-16.69,19.57-36-1.52-7.33-5.12-12.7-8.3-17.43-4.93-7.33-8.49-12.62-3.09-22.4C142,89.56,170.68,67.9,171,67.68Z"/><path id="_Path_3" data-name="&lt;Path&gt;" class="cls-1" d="M24.59,177.66a8.89,8.89,0,0,0,1.31,8.28c6.1,8.46,27.69,13.12,60.81,13.12h0c4.49,0,9.22-.08,14.08-.26,52.94-1.89,72.58-18.39,73.39-19.09a2.5,2.5,0,0,0-2.3-4.3c-18.64,5.09-53.46,6.9-77.61,6.9-27,0-40.79-1.95-44.15-3.38,1.72-2.38,12.39-6.62,25.6-9.22a2.5,2.5,0,0,0-.48-5C67.49,164.76,28.65,165.38,24.59,177.66Z"/><path id="_Path_4" data-name="&lt;Path&gt;" class="cls-1" d="M201.75,160.67c-10.92,0-21.28,5.47-21.71,5.71a2.5,2.5,0,0,0,1.17,4.7c.24,0,23.3.19,25.39,13.37,1.85,11.36-21.82,29.78-31.1,35.92a2.5,2.5,0,0,0,1.38,4.58,2.29,2.29,0,0,0,.52,0c2.2-.47,53.85-11.85,48.39-41.93C222.46,164.54,210.88,160.67,201.75,160.67Z"/><path id="_Path_5" data-name="&lt;Path&gt;" class="cls-1" d="M166.32,216.69a2.52,2.52,0,0,0-1-2.51l-12.38-8.67a2.52,2.52,0,0,0-2.08-.37A244.09,244.09,0,0,1,119,210.67,223.28,223.28,0,0,1,94.78,212c-18.8,0-31.09-2.21-32.88-3.83-.24-.46-.16-.67-.12-.78.32-.91,2.07-2,3.19-2.41a2.5,2.5,0,0,0-1.45-4.77c-12.43,3-18.5,7.19-18.06,12.46C46.25,222,67.89,226.76,86.19,228c2.63.18,5.47.27,8.45.27h0c30.42,0,69.43-9.55,69.82-9.64A2.51,2.51,0,0,0,166.32,216.69Z"/><path id="_Path_6" data-name="&lt;Path&gt;" class="cls-1" d="M73,236.74a2.49,2.49,0,0,0,1-2.83,2.52,2.52,0,0,0-2.45-1.76c-1.67,0-16.29.71-17.32,10a9.68,9.68,0,0,0,2.37,7.55C61.82,256,76,259.65,99.9,261c2.83.17,5.7.26,8.54.26,30.39,0,50.86-9.52,51.72-9.92a2.5,2.5,0,0,0,.23-4.4l-15.65-9.55a2.5,2.5,0,0,0-1.81-.31c-.1,0-10,2.08-25,4.11a79.83,79.83,0,0,1-10.56.59c-15,0-31.65-2.45-34.84-4.05A1,1,0,0,1,73,236.74Z"/><path id="_Path_7" data-name="&lt;Path&gt;" class="cls-1" d="M94.28,290c69.61-.06,107-12.44,114.17-20.23a8.6,8.6,0,0,0,2.6-7.07c-.53-4.19-4.35-6.76-4.78-7a2.54,2.54,0,0,0-3.27.44,2.48,2.48,0,0,0,0,3.26c.44.56.69,1.51-.59,2.79-2.88,2.69-31.9,10.85-80.22,13.3-6.62.34-13.56.51-20.63.52-43.26,0-74.92-5.93-79.08-9.38,1.6-2.3,12.8-6,24.71-8.06a2.5,2.5,0,0,0-.76-4.94c-.34,0-1.48.11-2.8.19C24,255,1.26,257.68.08,267.8a10.31,10.31,0,0,0,2.72,8.33c5.31,6,20.56,13.89,91.48,13.89Z"/><path id="_Path_8" data-name="&lt;Path&gt;" class="cls-1" d="M222.12,272a2.51,2.51,0,0,0-2.88.57c-.1.11-10.57,11.06-42,17.48-12.05,2.42-34.66,3.64-67.22,3.64s-63.64-1.28-63.95-1.3a2.5,2.5,0,0,0-.68,4.93c.32.08,32.84,7.7,77.31,7.7a360.14,360.14,0,0,0,61.68-5.15c36.55-6.41,39.11-24.53,39.2-25.3A2.51,2.51,0,0,0,222.12,272Z"/></g></g></g></svg>