<svg xmlns="http://www.w3.org/2000/svg" viewBox="0 0 205.83 221.15"><defs><style>.cls-1{fill:#fff;}</style></defs><title>js</title><g id="Layer_2" data-name="Layer 2"><g id="Layer_1-2" data-name="Layer 1"><path class="cls-1" d="M25.53,0V155.06H180.59V0Zm87.15,121.34c0,15.09-8.84,21.95-21.75,21.95-11.67,0-18.43-6-21.86-13.31l11.86-7.18c2.29,4.06,4.37,7.5,9.38,7.5,4.78,0,7.8-1.88,7.8-9.16V71.6h14.57Zm34.43,22c-13.53,0-22.27-6.45-26.55-14.9l11.84-6.88c3.12,5.1,7.19,8.85,14.37,8.85,6,0,9.9-3,9.9-7.19,0-5-4-6.76-10.61-9.67L142.42,112c-10.52-4.48-17.5-10.09-17.5-22,0-10.93,8.32-19.24,21.34-19.24,9.26,0,15.92,3.22,20.72,11.66l-11.35,7.29c-2.49-4.48-5.19-6.25-9.37-6.25s-7,2.71-7,6.25c0,4.37,2.71,6.14,9,8.85l3.65,1.56c12.38,5.3,19.37,10.72,19.37,22.88C171.26,136.13,161,143.32,147.11,143.32Z"/><path class="cls-1" d="M15.21,212.34a14.38,14.38,0,0,1-.39,3.44,7.12,7.12,0,0,1-1.37,2.8,6.47,6.47,0,0,1-2.63,1.88,10.71,10.71,0,0,1-4.12.69,12,12,0,0,1-2.32-.21,11.63,11.63,0,0,1-1.9-.51A11,11,0,0,1,1,219.76a5.55,5.55,0,0,1-1-.68l1.41-2.85a13.83,13.83,0,0,0,2,1.16,7,7,0,0,0,3.09.61,5,5,0,0,0,3.89-1.35c.81-.9,1.22-2.45,1.22-4.64V195h3.59Z"/><path class="cls-1" d="M38.15,220.59c-.42-1.11-.82-2.2-1.19-3.27s-.75-2.17-1.14-3.28H24.2l-2.33,6.55H18.13c1-2.71,1.91-5.22,2.78-7.53s1.7-4.49,2.53-6.56,1.65-4.06,2.46-5.94,1.67-3.76,2.55-5.61h3.3c.88,1.85,1.74,3.72,2.55,5.61s1.63,3.86,2.46,5.94,1.67,4.26,2.53,6.56,1.79,4.82,2.78,7.53Zm-3.37-9.51q-1.19-3.21-2.35-6.23c-.78-2-1.58-3.94-2.42-5.79q-1.31,2.77-2.46,5.79t-2.32,6.23Z"/><path class="cls-1" d="M64,195c-.93,2.72-1.83,5.23-2.68,7.53s-1.68,4.5-2.5,6.57-1.62,4-2.42,5.94-1.62,3.75-2.46,5.6H50.54q-1.26-2.78-2.46-5.6t-2.44-5.94q-1.24-3.11-2.53-6.57T40.44,195h4q2,5.85,3.92,11.25t4,10.14q2-4.69,4-10.12T60.13,195Z"/><path class="cls-1" d="M82.36,220.59c-.42-1.11-.81-2.2-1.18-3.27S80.42,215.15,80,214H68.41l-2.33,6.55H62.34q1.48-4.07,2.78-7.53c.86-2.3,1.71-4.49,2.53-6.56s1.65-4.06,2.47-5.94,1.66-3.76,2.55-5.61H76q1.33,2.78,2.55,5.61T81,206.5q1.25,3.1,2.54,6.56c.86,2.31,1.79,4.82,2.77,7.53ZM79,211.08c-.79-2.14-1.58-4.22-2.35-6.23s-1.59-3.94-2.43-5.79q-1.29,2.77-2.46,5.79t-2.31,6.23Z"/><path class="cls-1" d="M96.31,218q5.63,0,5.62-3.85a3.84,3.84,0,0,0-.49-2,4.92,4.92,0,0,0-1.36-1.45,9.15,9.15,0,0,0-1.94-1c-.73-.3-1.5-.59-2.31-.89a22.06,22.06,0,0,1-2.66-1.09A9.66,9.66,0,0,1,91,206.26a6.37,6.37,0,0,1-1.46-2A6.51,6.51,0,0,1,89,201.5a6.41,6.41,0,0,1,2.29-5.25,9.67,9.67,0,0,1,6.33-1.89,16.81,16.81,0,0,1,4.23.5,9.9,9.9,0,0,1,2.8,1.09l-1.15,2.92a10.32,10.32,0,0,0-2.31-.94,12.42,12.42,0,0,0-3.57-.46,7.87,7.87,0,0,0-1.93.22,4.85,4.85,0,0,0-1.55.67,3.11,3.11,0,0,0-1.45,2.73,3.45,3.45,0,0,0,.41,1.74,4.08,4.08,0,0,0,1.15,1.24,9.34,9.34,0,0,0,1.72,1c.65.3,1.37.59,2.16.89,1.11.44,2.13.89,3.06,1.33a10.43,10.43,0,0,1,2.4,1.59,6.33,6.33,0,0,1,1.57,2.21,7.7,7.7,0,0,1,.56,3.08,6,6,0,0,1-2.46,5.18,11.53,11.53,0,0,1-6.94,1.82,17.21,17.21,0,0,1-2.79-.21,18.86,18.86,0,0,1-2.28-.48,12.66,12.66,0,0,1-1.72-.59c-.48-.21-.86-.39-1.13-.54l1.08-3a15.44,15.44,0,0,0,2.59,1.08A13.36,13.36,0,0,0,96.31,218Z"/><path class="cls-1" d="M121.06,221.15a13.18,13.18,0,0,1-4.92-.89,10.49,10.49,0,0,1-3.81-2.59,11.61,11.61,0,0,1-2.46-4.2,17.36,17.36,0,0,1-.87-5.72,15.6,15.6,0,0,1,1-5.71,12.25,12.25,0,0,1,2.65-4.2,11.07,11.07,0,0,1,3.88-2.59,12.68,12.68,0,0,1,4.74-.89,16.74,16.74,0,0,1,2.87.22,17.47,17.47,0,0,1,2.22.52,10.74,10.74,0,0,1,1.53.59,8.54,8.54,0,0,1,.82.45l-1,3a5.94,5.94,0,0,0-1-.49c-.42-.17-.9-.34-1.43-.51a11.65,11.65,0,0,0-1.74-.43,11,11,0,0,0-1.9-.17,9.09,9.09,0,0,0-3.66.71,7.5,7.5,0,0,0-2.78,2,9.35,9.35,0,0,0-1.76,3.24,14.2,14.2,0,0,0-.61,4.27,15.12,15.12,0,0,0,.54,4.18,9.12,9.12,0,0,0,1.61,3.24,7.17,7.17,0,0,0,2.68,2.09,8.82,8.82,0,0,0,3.76.74,13.55,13.55,0,0,0,4.1-.52,18,18,0,0,0,2.45-.92l.92,3a5.07,5.07,0,0,1-.92.46,11.77,11.77,0,0,1-1.67.54A20.76,20.76,0,0,1,124,221,20,20,0,0,1,121.06,221.15Z"/><path class="cls-1" d="M145.52,209.86c.39.5.89,1.14,1.5,1.94s1.23,1.69,1.87,2.67,1.27,2,1.9,3.05a30.54,30.54,0,0,1,1.61,3.07h-3.92c-.49-.93-1-1.88-1.61-2.85s-1.16-1.88-1.76-2.75-1.18-1.7-1.75-2.46-1.11-1.43-1.58-2c-.32,0-.64,0-1,0h-4.23v10H133V195.32a21.37,21.37,0,0,1,3.38-.5c1.25-.08,2.39-.13,3.43-.13q5.4,0,8.23,2a7,7,0,0,1,2.83,6.07,7.09,7.09,0,0,1-1.35,4.36A8,8,0,0,1,145.52,209.86Zm-5.44-12c-1.53,0-2.7,0-3.51.11v9.66h2.55a27.73,27.73,0,0,0,3.33-.19,7.62,7.62,0,0,0,2.5-.7,3.76,3.76,0,0,0,1.57-1.46,4.93,4.93,0,0,0,.55-2.5,4.8,4.8,0,0,0-.55-2.41,4.1,4.1,0,0,0-1.5-1.51,6.62,6.62,0,0,0-2.22-.78A15.69,15.69,0,0,0,140.08,197.84Z"/><path class="cls-1" d="M156.25,195h3.59v25.64h-3.59Z"/><path class="cls-1" d="M173,194.69q5.4,0,8.31,2.06a7,7,0,0,1,2.9,6.12,8.32,8.32,0,0,1-.79,3.79,6.58,6.58,0,0,1-2.3,2.56,10.61,10.61,0,0,1-3.64,1.42,23.79,23.79,0,0,1-4.85.44h-2.85v9.51H166.2V195.32a21.33,21.33,0,0,1,3.39-.5C170.83,194.74,172,194.69,173,194.69Zm.3,3.15c-1.53,0-2.7,0-3.52.11V208h2.7a20.81,20.81,0,0,0,3.33-.24,7.58,7.58,0,0,0,2.5-.81,4,4,0,0,0,1.57-1.57,5.25,5.25,0,0,0,.56-2.56,4.74,4.74,0,0,0-.57-2.44,4.4,4.4,0,0,0-1.56-1.53,6.57,6.57,0,0,0-2.27-.8A16.09,16.09,0,0,0,173.31,197.84Z"/><path class="cls-1" d="M205.83,195v3.11h-8.07v22.53h-3.59V198.06h-8.06V195Z"/></g></g></svg>