<svg xmlns="http://www.w3.org/2000/svg" xmlns:xlink="http://www.w3.org/1999/xlink" viewBox="0 0 834 411"><defs><style>.cls-1{opacity:0.75;fill:url(#linear-gradient);}.cls-2{fill:#fff;opacity:0.13;}</style><linearGradient id="linear-gradient" x1="386.9" y1="180.77" x2="115.41" y2="621.75" gradientUnits="userSpaceOnUse"><stop offset="0" stop-color="#fff"/><stop offset="0.14" stop-color="#fefdff" stop-opacity="0.99"/><stop offset="0.26" stop-color="#faf8ff" stop-opacity="0.94"/><stop offset="0.39" stop-color="#f4eefe" stop-opacity="0.87"/><stop offset="0.51" stop-color="#ece1fe" stop-opacity="0.76"/><stop offset="0.63" stop-color="#e0d0fd" stop-opacity="0.63"/><stop offset="0.75" stop-color="#d3bbfc" stop-opacity="0.46"/><stop offset="0.86" stop-color="#c3a3fb" stop-opacity="0.27"/><stop offset="0.98" stop-color="#b187fa" stop-opacity="0.05"/><stop offset="1" stop-color="#ad81fa" stop-opacity="0"/></linearGradient></defs><title>Asset 35</title><g id="Layer_2" data-name="Layer 2"><g id="Layer_3" data-name="Layer 3"><path class="cls-1" d="M404.56,282q-4.76,0-9.48.11h0c-178.17,4-209.7-16-299.08-134.81A356.72,356.72,0,0,0,0,57.88V411H707.71A419.5,419.5,0,0,0,404.56,282Z"/><path class="cls-2" d="M465.19,254.05q-5.79,0-11.53.14h0c-216.77,4.89-255.13-19.4-363.86-164A433.9,433.9,0,0,0,0,0V57.88a356.72,356.72,0,0,1,96,89.41C185.38,266.15,216.91,286.12,395.08,282.1h0q4.73-.11,9.48-.11A419.5,419.5,0,0,1,707.71,411H834C740.88,314.25,610.07,254.05,465.19,254.05Z"/></g></g></svg>