<svg xmlns="http://www.w3.org/2000/svg" viewBox="0 0 232.77 221.01"><defs><style>.cls-1{fill:#fff;}</style></defs><title>pluralsight</title><g id="Layer_2" data-name="Layer 2"><g id="Layer_1-2" data-name="Layer 1"><path class="cls-1" d="M115.09,155.06a77.53,77.53,0,1,1,77.53-77.53A77.62,77.62,0,0,1,115.09,155.06Zm24.08-143.7a70.42,70.42,0,1,0,42.09,90.25A70.49,70.49,0,0,0,139.17,11.36Z"/><path class="cls-1" d="M101.91,49l49.46,28.56-49.46,28.56V49m-6.64-11.5v80.12l69.38-40.06L95.27,37.47Z"/><path class="cls-1" d="M86,57.72l34.31,19.81L86,97.34V57.72M79.32,46.21v62.63l54.23-31.31L79.32,46.21Z"/><path class="cls-1" d="M6.81,194.56q5.4,0,8.31,2.05a7,7,0,0,1,2.9,6.12,8.36,8.36,0,0,1-.8,3.8,6.46,6.46,0,0,1-2.29,2.55,10.41,10.41,0,0,1-3.64,1.42,23.75,23.75,0,0,1-4.85.45H3.59v9.51H0V195.19a19.26,19.26,0,0,1,3.39-.5C4.63,194.6,5.77,194.56,6.81,194.56Zm.3,3.14c-1.54,0-2.71,0-3.52.11v10.07h2.7a21,21,0,0,0,3.33-.24,7.35,7.35,0,0,0,2.5-.82,4,4,0,0,0,1.57-1.57,5.23,5.23,0,0,0,.56-2.55,4.71,4.71,0,0,0-.58-2.44,4.24,4.24,0,0,0-1.55-1.54,6.84,6.84,0,0,0-2.28-.8A17,17,0,0,0,7.11,197.7Z"/><path class="cls-1" d="M37.93,217.35v3.11H22.5V194.82h3.59v22.53Z"/><path class="cls-1" d="M50.58,221a11.41,11.41,0,0,1-4.37-.77,8.21,8.21,0,0,1-3-2.13,8.67,8.67,0,0,1-1.76-3.2,13.57,13.57,0,0,1-.57-4V194.82h3.59V210.5q0,3.85,1.7,5.59a5.92,5.92,0,0,0,4.44,1.74,7.17,7.17,0,0,0,2.5-.42A5.08,5.08,0,0,0,55,216.09a6.13,6.13,0,0,0,1.26-2.27,11.17,11.17,0,0,0,.44-3.32V194.82h3.59v16.09a13.57,13.57,0,0,1-.57,4,8.57,8.57,0,0,1-1.78,3.2,8.38,8.38,0,0,1-3,2.13A11.24,11.24,0,0,1,50.58,221Z"/><path class="cls-1" d="M79,209.73c.4.49.9,1.14,1.5,1.94s1.23,1.69,1.87,2.66,1.28,2,1.9,3.06a29.5,29.5,0,0,1,1.61,3.07H82c-.49-.94-1-1.89-1.61-2.85s-1.16-1.88-1.75-2.76-1.18-1.69-1.76-2.46-1.11-1.43-1.58-2c-.32,0-.64,0-1,0H70.08v10H66.49V195.19a19.26,19.26,0,0,1,3.39-.5c1.24-.09,2.38-.13,3.42-.13q5.4,0,8.23,2a7,7,0,0,1,2.83,6.07A7.12,7.12,0,0,1,83,207,8,8,0,0,1,79,209.73Zm-5.44-12c-1.53,0-2.7,0-3.51.11v9.66h2.55a27.75,27.75,0,0,0,3.33-.18,7.62,7.62,0,0,0,2.5-.71A3.7,3.7,0,0,0,80,205.12a4.9,4.9,0,0,0,.56-2.5,4.73,4.73,0,0,0-.56-2.4,4.13,4.13,0,0,0-1.5-1.52,6.62,6.62,0,0,0-2.22-.78A16.74,16.74,0,0,0,73.59,197.7Z"/><path class="cls-1" d="M107.93,220.46c-.42-1.11-.81-2.2-1.19-3.28s-.75-2.16-1.14-3.27H94l-2.33,6.55H87.91c1-2.72,1.91-5.22,2.78-7.53s1.7-4.5,2.53-6.57,1.65-4.05,2.46-5.94,1.67-3.75,2.55-5.6h3.3q1.34,2.77,2.55,5.6t2.46,5.94c.83,2.07,1.67,4.26,2.54,6.57s1.78,4.81,2.77,7.53ZM104.56,211q-1.19-3.22-2.35-6.24t-2.42-5.79q-1.29,2.78-2.46,5.79T95,211Z"/><path class="cls-1" d="M130.76,217.35v3.11H115.33V194.82h3.59v22.53Z"/><path class="cls-1" d="M141,217.9q5.63,0,5.62-3.84a3.9,3.9,0,0,0-.5-2,4.73,4.73,0,0,0-1.35-1.44,9.43,9.43,0,0,0-1.94-1.06c-.73-.29-1.5-.59-2.31-.89a22.91,22.91,0,0,1-2.67-1.09,8.78,8.78,0,0,1-2.18-1.44,5.86,5.86,0,0,1-1.46-2,7.24,7.24,0,0,1,1.75-8,9.67,9.67,0,0,1,6.33-1.89,16.83,16.83,0,0,1,4.24.5,9.65,9.65,0,0,1,2.79,1.1l-1.14,2.92a10,10,0,0,0-2.32-.94,12.31,12.31,0,0,0-3.57-.47,8.29,8.29,0,0,0-1.92.22,5,5,0,0,0-1.56.67,3.34,3.34,0,0,0-1,1.13,3.2,3.2,0,0,0-.39,1.61,3.45,3.45,0,0,0,.41,1.74,4,4,0,0,0,1.15,1.24,9.85,9.85,0,0,0,1.71,1c.66.29,1.38.59,2.17.89,1.11.44,2.13.88,3.05,1.33a9.7,9.7,0,0,1,2.41,1.59,6.38,6.38,0,0,1,1.57,2.2,7.73,7.73,0,0,1,.55,3.09,6.06,6.06,0,0,1-2.46,5.18A11.5,11.5,0,0,1,141,221a18.52,18.52,0,0,1-2.8-.2,22.82,22.82,0,0,1-2.27-.48,13.63,13.63,0,0,1-1.72-.59c-.48-.21-.86-.39-1.13-.54l1.07-3a16,16,0,0,0,2.59,1.07A13.19,13.19,0,0,0,141,217.9Z"/><path class="cls-1" d="M154.73,194.82h3.59v25.64h-3.59Z"/><path class="cls-1" d="M180.34,207.84h3.59v12a12.53,12.53,0,0,1-1.28.33c-.55.13-1.2.25-1.92.37s-1.53.23-2.39.32-1.74.13-2.63.13a13.18,13.18,0,0,1-4.92-.89A10.49,10.49,0,0,1,167,217.5a11.78,11.78,0,0,1-2.46-4.18,17.24,17.24,0,0,1-.87-5.7,15.66,15.66,0,0,1,1-5.72,12.45,12.45,0,0,1,2.65-4.2,11.19,11.19,0,0,1,3.9-2.59,12.91,12.91,0,0,1,4.79-.89,18.91,18.91,0,0,1,3.09.23,19.51,19.51,0,0,1,2.31.51,11.57,11.57,0,0,1,1.58.6,7.49,7.49,0,0,1,.83.44l-1.15,3a9.56,9.56,0,0,0-2.85-1.17,14.2,14.2,0,0,0-3.62-.46,8.78,8.78,0,0,0-3.57.7,7.38,7.38,0,0,0-2.74,2,9.69,9.69,0,0,0-1.76,3.24,13.54,13.54,0,0,0-.63,4.27,15.17,15.17,0,0,0,.54,4.18,9,9,0,0,0,1.63,3.24,7.34,7.34,0,0,0,2.7,2.09,9,9,0,0,0,3.79.74,18,18,0,0,0,2.65-.17,12.2,12.2,0,0,0,1.57-.31Z"/><path class="cls-1" d="M205.68,194.82h3.59v25.64h-3.59V208.62H193.14v11.84h-3.59V194.82h3.59v10.69h12.54Z"/><path class="cls-1" d="M232.77,194.82v3.1H224.7v22.54h-3.59V197.92H213v-3.1Z"/></g></g></svg>