<svg xmlns="http://www.w3.org/2000/svg" xmlns:xlink="http://www.w3.org/1999/xlink" viewBox="0 0 1241.14 989"><defs><style>.cls-1{fill:#fff;opacity:0.13;}.cls-2{opacity:0.75;fill:url(#linear-gradient);}</style><linearGradient id="linear-gradient" x1="354.23" y1="663.89" x2="1374.23" y2="-10.11" gradientUnits="userSpaceOnUse"><stop offset="0" stop-color="#fff"/><stop offset="0.17" stop-color="#fefdff" stop-opacity="0.99"/><stop offset="0.3" stop-color="#fbf9ff" stop-opacity="0.95"/><stop offset="0.42" stop-color="#f6f1fe" stop-opacity="0.89"/><stop offset="0.53" stop-color="#eee5fe" stop-opacity="0.79"/><stop offset="0.64" stop-color="#e4d6fd" stop-opacity="0.68"/><stop offset="0.74" stop-color="#d9c4fd" stop-opacity="0.53"/><stop offset="0.84" stop-color="#cbaefc" stop-opacity="0.36"/><stop offset="0.93" stop-color="#bb96fb" stop-opacity="0.17"/><stop offset="1" stop-color="#ad81fa" stop-opacity="0"/></linearGradient></defs><title>Asset 36</title><g id="Layer_2" data-name="Layer 2"><g id="Layer_3" data-name="Layer 3"><path class="cls-1" d="M0,0C35.54,24,77.8,59.5,131.87,110.75l2.4,2.27h0A793.34,793.34,0,0,0,436.93,292.79C666.59,372.44,696.63,407.6,780.9,596c82.45,196.95,254.68,342.75,460.24,393V0Z"/><path class="cls-2" d="M97,0c32.76,22.14,71.72,54.85,121.56,102.09.74.71,1.47,1.39,2.22,2.1h0a731.09,731.09,0,0,0,279,165.72c211.71,73.43,239.39,105.84,317.07,279.47,76,181.55,234.78,316,424.27,362.32V0Z"/></g></g></svg>