<svg xmlns="http://www.w3.org/2000/svg" viewBox="0 0 206.09 223.2"><defs><style>.cls-1{fill:#fff;}</style></defs><title>sololean</title><g id="Layer_2" data-name="Layer 2"><g id="Layer_1-2" data-name="Layer 1"><path class="cls-1" d="M145.19,81.82a19.18,19.18,0,0,1,.42,4.32c.79,15.06-.21,29.89-6.35,43.94-5.27,12.08-14.11,20-27.07,23.21a58.32,58.32,0,0,1-27.64.21,62.85,62.85,0,0,1-33.11-19.26,2.72,2.72,0,0,1-1-1.45c4.41,1.09,8.83,1.86,13.25,2.63,19.84,3.43,37.25-2.34,52.92-14.14,13.11-9.87,22-23,27.95-38.18.15-.39.3-.77.46-1.15C145.05,81.91,145.11,81.89,145.19,81.82Z"/><path class="cls-1" d="M126.76,151.89a100.09,100.09,0,0,0,7.48-8.19c5.14-6.42,10.2-12.91,13.47-20.54,4.88-11.38,5.39-23.14,2.71-35.09-3.32-14.81-10.54-27.61-20.39-39-1.33-1.55-2.74-3-4.33-4.8a56.8,56.8,0,0,1,11.84,3.52Q163.67,58.94,174,85.45c4.79,12.34,2.56,24.07-4.13,35-9.88,16.12-24.44,26.18-42.45,31.44A3.41,3.41,0,0,1,126.76,151.89Z"/><path class="cls-1" d="M122,112.27a64,64,0,0,1-11.4,8.81,74.67,74.67,0,0,1-30.61,11.19c-21.5,2.59-42.48-9-50.41-30.39-4.68-12.62-5.41-25.38-1.26-38.3.19-.58.42-1.15.65-1.78.61.38.6,1,.79,1.47,3.59,9.19,7.85,18,13.82,25.91,9.4,12.39,22.19,19.41,37.15,22.77,13.3,3,26.68,2.72,40.06.51Z"/><path class="cls-1" d="M151.49,16.13c-19.6-2.54-37.79.6-53.58,13.13C82.3,41.65,73.76,58,71.39,77.91a28.26,28.26,0,0,1-2.58-5c-6.5-15.45-7.25-30.95-.15-46.42C75.38,11.82,92.17-1,111.38.06c14.11.76,26.6,5.9,38,14.08.67.48,1.32,1,2,1.5C151.38,15.7,151.38,15.83,151.49,16.13Z"/><path class="cls-1" d="M85.05,108.86a11.37,11.37,0,0,1-3.81-1.2c-12.49-4.83-23.79-11.55-33.08-21.34-6.58-6.92-11.31-14.85-13-24.39-2.49-13.68.8-25.65,10.13-36C52.65,17.63,65.83,9,75.85,6.27c-.33.51-.58.92-.84,1.31C69.58,15.8,64.56,24.23,61.77,33.77c-4.32,14.81-2.83,29.25,3,43.37,4.61,11.21,11.38,21.07,19.16,30.27.4.47.76,1,1.13,1.47Z"/><path class="cls-1" d="M88.53,46.94a34.57,34.57,0,0,1,5.24-7.17c5.67-6,12.6-10.16,20.21-13.22A76.88,76.88,0,0,1,140.06,21c13.35-.51,23.37,5.39,31.05,15.82,5.95,8.1,8.87,17.44,10.39,27.26a92.83,92.83,0,0,1,.3,25,7.38,7.38,0,0,1-.16.92,7.22,7.22,0,0,1-.24.73,116,116,0,0,0-7.66-17.11c-3.16-5.77-6.49-11.42-11.15-16.15-9.11-9.24-20.28-14.25-33-16-13.5-1.83-26.57.1-39.3,4.76Z"/><path class="cls-1" d="M85,108.88l.1.07-.09-.09Z"/><path class="cls-1" d="M7.92,220.1c3.75,0,5.62-1.29,5.62-3.85a3.81,3.81,0,0,0-.5-2,4.84,4.84,0,0,0-1.35-1.44,9.17,9.17,0,0,0-1.94-1.06c-.73-.29-1.5-.59-2.31-.88a22.93,22.93,0,0,1-2.67-1.1,9,9,0,0,1-2.18-1.44,6,6,0,0,1-1.46-2,7.23,7.23,0,0,1,1.76-8,9.64,9.64,0,0,1,6.32-1.88,16.39,16.39,0,0,1,4.24.5A9.41,9.41,0,0,1,16.24,198l-1.14,2.92a9.79,9.79,0,0,0-2.32-.94,12.31,12.31,0,0,0-3.57-.47,7.77,7.77,0,0,0-1.92.23,4.84,4.84,0,0,0-1.55.66,3.27,3.27,0,0,0-1.06,1.13,3.2,3.2,0,0,0-.39,1.61,3.45,3.45,0,0,0,.41,1.74,4,4,0,0,0,1.15,1.24,9.59,9.59,0,0,0,1.72,1c.65.29,1.37.59,2.16.89,1.11.44,2.13.88,3,1.33a9.7,9.7,0,0,1,2.41,1.59,6.38,6.38,0,0,1,1.57,2.2,7.72,7.72,0,0,1,.56,3.09,6,6,0,0,1-2.46,5.18,11.55,11.55,0,0,1-6.94,1.81,17.26,17.26,0,0,1-2.79-.2,23.05,23.05,0,0,1-2.28-.48,13.63,13.63,0,0,1-1.72-.59c-.48-.21-.86-.39-1.13-.54l1.07-3a16,16,0,0,0,2.59,1.07A13.17,13.17,0,0,0,7.92,220.1Z"/><path class="cls-1" d="M20.61,209.81a16,16,0,0,1,1-5.81,11.94,11.94,0,0,1,2.66-4.2,11,11,0,0,1,3.93-2.53,13.16,13.16,0,0,1,4.75-.85,12.83,12.83,0,0,1,4.68.85,10.83,10.83,0,0,1,3.87,2.53,12,12,0,0,1,2.64,4.2,17.71,17.71,0,0,1,0,11.62,12,12,0,0,1-2.64,4.2,10.83,10.83,0,0,1-3.87,2.53,12.83,12.83,0,0,1-4.68.85,13.16,13.16,0,0,1-4.75-.85,11,11,0,0,1-3.93-2.53,11.94,11.94,0,0,1-2.66-4.2A16,16,0,0,1,20.61,209.81Zm3.77,0a14.44,14.44,0,0,0,.59,4.24,9.44,9.44,0,0,0,1.69,3.23,7.35,7.35,0,0,0,2.66,2.06,8.42,8.42,0,0,0,3.54.72,8.28,8.28,0,0,0,3.51-.72A7.4,7.4,0,0,0,39,217.28a9.6,9.6,0,0,0,1.68-3.23,15.53,15.53,0,0,0,0-8.48A9.6,9.6,0,0,0,39,202.34a7.4,7.4,0,0,0-2.65-2.06,8.28,8.28,0,0,0-3.51-.72,8.42,8.42,0,0,0-3.54.72,7.35,7.35,0,0,0-2.66,2.06A9.44,9.44,0,0,0,25,205.57,14.44,14.44,0,0,0,24.38,209.81Z"/><path class="cls-1" d="M65.86,219.54v3.11H50.43V197H54v22.53Z"/><path class="cls-1" d="M66.93,209.81a16,16,0,0,1,1-5.81,12.1,12.1,0,0,1,2.67-4.2,10.94,10.94,0,0,1,3.92-2.53,13.2,13.2,0,0,1,4.75-.85,12.75,12.75,0,0,1,4.68.85,10.83,10.83,0,0,1,3.87,2.53,12.21,12.21,0,0,1,2.65,4.2,17.71,17.71,0,0,1,0,11.62,12.21,12.21,0,0,1-2.65,4.2,10.83,10.83,0,0,1-3.87,2.53,12.75,12.75,0,0,1-4.68.85,13.2,13.2,0,0,1-4.75-.85,10.94,10.94,0,0,1-3.92-2.53,12.1,12.1,0,0,1-2.67-4.2A16,16,0,0,1,66.93,209.81Zm3.78,0a14.11,14.11,0,0,0,.59,4.24A9.25,9.25,0,0,0,73,217.28a7.39,7.39,0,0,0,2.67,2.06,9,9,0,0,0,7,0,7.46,7.46,0,0,0,2.64-2.06A9.25,9.25,0,0,0,87,214.05a15.28,15.28,0,0,0,0-8.48,9.25,9.25,0,0,0-1.68-3.23,7.46,7.46,0,0,0-2.64-2.06,9,9,0,0,0-7,0A7.39,7.39,0,0,0,73,202.34a9.25,9.25,0,0,0-1.68,3.23A14.11,14.11,0,0,0,70.71,209.81Z"/><path class="cls-1" d="M112.18,219.54v3.11H96.75V197h3.59v22.53Z"/><path class="cls-1" d="M116,222.65V197h15.65v3.07H119.55v7.62h10.73v3H119.55v8.88h13v3.07Z"/><path class="cls-1" d="M154.85,222.65c-.42-1.11-.82-2.2-1.19-3.28s-.75-2.16-1.15-3.27H140.9l-2.33,6.55h-3.74c1-2.71,1.91-5.22,2.77-7.53s1.71-4.5,2.54-6.57,1.64-4.05,2.46-5.94,1.66-3.75,2.55-5.6h3.29q1.34,2.78,2.56,5.6t2.46,5.94c.82,2.07,1.67,4.26,2.53,6.57s1.79,4.82,2.78,7.53Zm-3.37-9.51c-.79-2.15-1.57-4.22-2.35-6.23s-1.59-3.95-2.42-5.8c-.87,1.85-1.69,3.79-2.46,5.8s-1.55,4.08-2.32,6.23Z"/><path class="cls-1" d="M174.79,211.92c.39.49.89,1.14,1.5,1.94s1.22,1.69,1.86,2.67,1.28,2,1.91,3.05a29.5,29.5,0,0,1,1.61,3.07h-3.92c-.5-.94-1-1.89-1.61-2.85s-1.17-1.88-1.76-2.76-1.18-1.69-1.76-2.46-1.1-1.43-1.57-2c-.32,0-.65,0-1,0h-4.24v10h-3.59V197.38a20.4,20.4,0,0,1,3.39-.5c1.25-.09,2.39-.13,3.42-.13q5.4,0,8.24,2a7.84,7.84,0,0,1,1.47,10.44A7.92,7.92,0,0,1,174.79,211.92Zm-5.44-12c-1.53,0-2.7,0-3.52.11v9.66h2.56a27.87,27.87,0,0,0,3.33-.18,7.56,7.56,0,0,0,2.49-.71,3.72,3.72,0,0,0,1.58-1.46,4.9,4.9,0,0,0,.55-2.5,4.74,4.74,0,0,0-.55-2.4,4.13,4.13,0,0,0-1.5-1.52,6.4,6.4,0,0,0-2.22-.77A15.67,15.67,0,0,0,169.35,199.89Z"/><path class="cls-1" d="M203.09,222.65c-.54-.91-1.16-1.94-1.87-3.07s-1.46-2.31-2.27-3.54-1.66-2.46-2.54-3.71-1.74-2.48-2.6-3.65-1.71-2.27-2.52-3.31-1.57-2-2.26-2.74v20h-3.51V197h2.85q1.74,1.85,3.71,4.31t3.93,5.07c1.29,1.74,2.51,3.44,3.66,5.12s2.12,3.17,2.91,4.48V197h3.51v25.64Z"/></g></g></svg>