<svg xmlns="http://www.w3.org/2000/svg" viewBox="0 0 2346.42 1984.33"><defs><style>.cls-1{fill:#fafafa;}</style></defs><title>Asset 1</title><g id="Layer_2" data-name="Layer 2"><g id="Layer_1-2" data-name="Layer 1"><path class="cls-1" d="M2316.2,873,1854.35,119.91C1814.06,54.1,1714.87,0,1635.83,0H712.14C631.55,0,533.91,54.1,493.62,118.45L30.22,873c-40.29,65.8-40.29,172.55,0,238.35l461.85,754.54c40.29,65.8,137.93,118.45,218.52,118.45h923.69c80.59,0,178.23-54.11,218.52-118.45l463.4-754.54c40.29-65.8,40.29-172.55,0-238.35ZM1073.25,416.75c-1.55-49.72,38.74-90.66,91.43-93.58,52.7-1.47,96.09,36.55,99.19,86.27V952c1.55,49.72-38.74,90.66-91.44,93.59-52.69,1.46-96.08-36.56-99.18-86.28V416.75Zm96.08,1145c-356.45,0-644.72-273.44-644.72-609.77,0-191.56,96.09-372.88,260.37-488.4,37.2-26.33,89.89-19,117.79,16.08s20.14,84.81-17,111.13C674.94,738.46,630,1020.68,786.53,1219.55s455.65,241.28,666.42,93.59c120.89-84.82,192.18-217.89,192.18-361.19,0-141.84-72.84-276.37-193.73-361.19-37.2-26.32-46.49-76-18.6-111.13s80.59-43.87,119.34-17.55c286.71,200.34,348.71,580.53,136.38,851.06-122.43,156.46-314.61,248.58-519.19,248.58Z"/></g></g></svg>