<svg xmlns="http://www.w3.org/2000/svg" xmlns:xlink="http://www.w3.org/1999/xlink" viewBox="0 0 81.86 98.18"><defs><style>.cls-1,.cls-2{fill:none;}.cls-1{clip-rule:evenodd;}.cls-3{clip-path:url(#clip-path);}.cls-4{clip-path:url(#clip-path-2);}.cls-5{fill:#fafafa;}</style><clipPath id="clip-path"><polygon class="cls-1" points="0 97.77 81.77 97.77 81.77 0 0 0 0 97.77 0 97.77"/></clipPath><clipPath id="clip-path-2"><polygon class="cls-2" points="0 97.77 81.77 97.77 81.77 0 0 0 0 97.77 0 97.77"/></clipPath></defs><title>Asset 6</title><g id="Layer_2" data-name="Layer 2"><g id="Layer_1-2" data-name="Layer 1"><g class="cls-3"><g class="cls-4"><path class="cls-5" d="M81.86,73.74V83.92c0,7.74-19.23,14.26-40.93,14.26S0,91.66,0,83.92V73.74c9.82,6.92,28.65,9.37,40.93,9.37C53.21,82.7,72,80.66,81.86,73.74ZM40.93,59.48c-12.28,0-31.11-2-40.93-9.37v9.77c0,7.74,19.24,14.26,40.93,14.26s40.93-6.52,40.93-14.26V50.11C72,57.44,53.21,59.48,40.93,59.48ZM40.93,0C19.24,0,0,6.52,0,14.26S19.24,28.52,40.93,28.52,81.86,22,81.86,14.26,62.63,0,40.93,0Zm0,36.66c-12.28,0-31.11-2-40.93-9.37v9.78c0,7.74,19.24,14.26,40.93,14.26s40.93-6.52,40.93-14.26V27.29C72,34.63,53.21,36.66,40.93,36.66Z"/></g></g></g></g></svg>