<svg xmlns="http://www.w3.org/2000/svg" xmlns:xlink="http://www.w3.org/1999/xlink" viewBox="0 0 57.89 55.21"><defs><style>.cls-1,.cls-2{fill:none;}.cls-1{clip-rule:evenodd;}.cls-3{clip-path:url(#clip-path);}.cls-4{clip-path:url(#clip-path-2);}.cls-5{fill:#fafafa;}</style><clipPath id="clip-path"><polygon class="cls-1" points="0 55.22 57.9 55.22 57.9 0 0 0 0 55.22 0 55.22"/></clipPath><clipPath id="clip-path-2"><polygon class="cls-2" points="0 55.22 57.9 55.22 57.9 0 0 0 0 55.22 0 55.22"/></clipPath></defs><title>Asset 5</title><g id="Layer_2" data-name="Layer 2"><g id="Layer_1-2" data-name="Layer 1"><g class="cls-3"><g class="cls-4"><path class="cls-5" d="M0,27.6V55.21H57.89V0H0V27.6Zm46.67-2.15a7.06,7.06,0,0,1,3.62,2,6,6,0,0,1,1.35,1.81,40.72,40.72,0,0,1-4.07,2.59c-.09,0-.27-.17-.54-.52a3.32,3.32,0,0,0-2.71-1.55c-1.72-.09-2.9.78-2.9,2.24a1.93,1.93,0,0,0,.28,1c.36.77,1.08,1.21,3.34,2.15,4.16,1.73,5.88,2.85,7.06,4.4a7.41,7.41,0,0,1,.63,6.73c-.9,2.33-3.17,3.88-6.42,4.4a19.3,19.3,0,0,1-4.43,0A10.65,10.65,0,0,1,36,47.79a11.78,11.78,0,0,1-1.54-2.16l.54-.34,2.17-1.21,1.63-.95.36.52a6.72,6.72,0,0,0,2.17,2,5.58,5.58,0,0,0,5.61-.26,1.9,1.9,0,0,0,.72-1.64,1.86,1.86,0,0,0-.45-1.38c-.45-.6-1.35-1.12-4-2.24-3-1.21-4.25-2-5.42-3.19a6.58,6.58,0,0,1-1.63-2.76,11.68,11.68,0,0,1-.09-3.54c.63-2.76,2.8-4.66,6-5.26a13.63,13.63,0,0,1,4.61.09ZM33.1,27.69v2.24H25.6V50.38H20.26V29.93h-7.6V27.69l.09-2.24s4.62-.09,10.13,0H33l.09,2.24Z"/></g></g></g></g></svg>