<svg xmlns="http://www.w3.org/2000/svg" viewBox="0 0 216.3 221.15"><defs><style>.cls-1{fill:#fff;}</style></defs><title>Asset 16</title><g id="Layer_2" data-name="Layer 2"><g id="Layer_1-2" data-name="Layer 1"><path class="cls-1" d="M16.17,203.2q-1.56,5-3.15,9.18t-3.18,8.21H6.25q-1.95-5.66-3.46-12T0,195H3.77q.52,2.9,1.08,5.77T6,206.33c.4,1.81.79,3.55,1.19,5.2s.8,3.18,1.22,4.59c1-2.59,2-5.44,3.14-8.53s2.15-6.3,3.11-9.6h3.11q1.44,4.95,3.15,9.6c1.13,3.09,2.19,5.94,3.18,8.53.39-1.39.79-2.9,1.18-4.56s.78-3.38,1.17-5.19.76-3.69,1.12-5.63.73-3.86,1.08-5.79H32.3q-1.33,7.41-2.83,13.69t-3.42,12H22.46q-1.63-4-3.18-8.21T16.17,203.2Z"/><path class="cls-1" d="M34.89,207.75a16,16,0,0,1,1-5.81,11.87,11.87,0,0,1,2.67-4.19,10.88,10.88,0,0,1,3.92-2.54,13.16,13.16,0,0,1,4.75-.85,12.83,12.83,0,0,1,4.68.85,10.85,10.85,0,0,1,3.87,2.54,12.1,12.1,0,0,1,2.64,4.19,17.71,17.71,0,0,1,0,11.62,12,12,0,0,1-2.64,4.2,11,11,0,0,1-3.87,2.54,13,13,0,0,1-4.68.85,13.38,13.38,0,0,1-4.75-.85,11,11,0,0,1-3.92-2.54,11.82,11.82,0,0,1-2.67-4.2A16,16,0,0,1,34.89,207.75Zm3.78,0a14.06,14.06,0,0,0,.59,4.24,9.39,9.39,0,0,0,1.68,3.24,7.41,7.41,0,0,0,2.66,2.05,8.42,8.42,0,0,0,3.54.72,8.22,8.22,0,0,0,3.51-.72,7.38,7.38,0,0,0,2.65-2.05A9.39,9.39,0,0,0,55,212a15.49,15.49,0,0,0,0-8.47,9.39,9.39,0,0,0-1.68-3.24,7.38,7.38,0,0,0-2.65-2.05,8.22,8.22,0,0,0-3.51-.73,8.42,8.42,0,0,0-3.54.73,7.41,7.41,0,0,0-2.66,2.05,9.39,9.39,0,0,0-1.68,3.24A14,14,0,0,0,38.67,207.75Z"/><path class="cls-1" d="M77.25,209.86c.4.5.9,1.14,1.5,1.95s1.23,1.69,1.87,2.66,1.28,2,1.91,3.05a32.75,32.75,0,0,1,1.61,3.07H80.21c-.49-.93-1-1.88-1.6-2.85s-1.17-1.88-1.76-2.75-1.18-1.7-1.76-2.46-1.1-1.43-1.57-2c-.32,0-.65,0-1,0H68.3v10H64.71V195.32a21.33,21.33,0,0,1,3.39-.5c1.24-.08,2.38-.13,3.42-.13,3.6,0,6.35.68,8.23,2a7,7,0,0,1,2.83,6.07,7.09,7.09,0,0,1-1.35,4.36A7.91,7.91,0,0,1,77.25,209.86Zm-5.43-12c-1.53,0-2.7,0-3.52.11v9.66h2.55a27.48,27.48,0,0,0,3.33-.19,7.62,7.62,0,0,0,2.5-.7,3.76,3.76,0,0,0,1.57-1.46,4.92,4.92,0,0,0,.56-2.5,4.8,4.8,0,0,0-.56-2.41,4.15,4.15,0,0,0-1.49-1.51,6.62,6.62,0,0,0-2.22-.78A15.77,15.77,0,0,0,71.82,197.84Z"/><path class="cls-1" d="M109,207.75a14.86,14.86,0,0,1-1,5.79,10.58,10.58,0,0,1-2.92,4.07,12.3,12.3,0,0,1-4.51,2.41,20,20,0,0,1-5.78.79q-1.55,0-3.42-.12a21.37,21.37,0,0,1-3.38-.5V195.32a21.37,21.37,0,0,1,3.38-.5c1.25-.08,2.39-.13,3.42-.13a19.94,19.94,0,0,1,5.78.8,12.43,12.43,0,0,1,4.51,2.4A10.74,10.74,0,0,1,108,202,14.86,14.86,0,0,1,109,207.75Zm-14,9.92q5.1,0,7.62-2.61c1.68-1.74,2.52-4.17,2.52-7.31a10.07,10.07,0,0,0-2.52-7.3q-2.52-2.61-7.62-2.61c-1,0-1.8,0-2.35,0s-.94,0-1.16.07v19.61c.22,0,.61.05,1.16.07S94.08,217.67,95.09,217.67Z"/><path class="cls-1" d="M121.17,194.69c3.61,0,6.37.69,8.31,2.06a7,7,0,0,1,2.91,6.12,8.32,8.32,0,0,1-.8,3.79,6.64,6.64,0,0,1-2.29,2.56,10.67,10.67,0,0,1-3.65,1.42,23.79,23.79,0,0,1-4.85.44H118v9.51h-3.59V195.32a21.37,21.37,0,0,1,3.38-.5C119,194.74,120.14,194.69,121.17,194.69Zm.3,3.15c-1.53,0-2.7,0-3.51.11V208h2.7a21,21,0,0,0,3.33-.24,7.52,7.52,0,0,0,2.49-.81,4,4,0,0,0,1.58-1.57,5.25,5.25,0,0,0,.55-2.56,4.74,4.74,0,0,0-.57-2.44,4.24,4.24,0,0,0-1.56-1.53,6.57,6.57,0,0,0-2.27-.8A16.09,16.09,0,0,0,121.47,197.84Z"/><path class="cls-1" d="M149.4,209.86c.4.5.9,1.14,1.5,1.95s1.23,1.69,1.87,2.66,1.28,2,1.91,3.05a32.75,32.75,0,0,1,1.61,3.07h-3.93c-.49-.93-1-1.88-1.61-2.85s-1.16-1.88-1.75-2.75-1.18-1.7-1.76-2.46-1.1-1.43-1.57-2c-.32,0-.65,0-1,0h-4.24v10h-3.59V195.32a21.33,21.33,0,0,1,3.39-.5c1.24-.08,2.38-.13,3.42-.13,3.6,0,6.35.68,8.23,2a7,7,0,0,1,2.83,6.07,7.09,7.09,0,0,1-1.35,4.36A7.91,7.91,0,0,1,149.4,209.86Zm-5.43-12c-1.53,0-2.71,0-3.52.11v9.66H143a27.48,27.48,0,0,0,3.33-.19,7.62,7.62,0,0,0,2.5-.7,3.76,3.76,0,0,0,1.57-1.46,4.92,4.92,0,0,0,.56-2.5,4.8,4.8,0,0,0-.56-2.41,4.15,4.15,0,0,0-1.49-1.51,6.62,6.62,0,0,0-2.22-.78A15.77,15.77,0,0,0,144,197.84Z"/><path class="cls-1" d="M160.13,220.59V195h15.66V198H163.72v7.62h10.73v3H163.72v8.88h13v3.07Z"/><path class="cls-1" d="M187.22,218q5.63,0,5.62-3.85a3.75,3.75,0,0,0-.5-2,4.76,4.76,0,0,0-1.35-1.45,9.15,9.15,0,0,0-1.94-1c-.73-.3-1.5-.59-2.31-.89a22.91,22.91,0,0,1-2.67-1.09,9.82,9.82,0,0,1-2.18-1.44,6.21,6.21,0,0,1-1.46-2,6.5,6.5,0,0,1-.54-2.78,6.42,6.42,0,0,1,2.3-5.25,9.66,9.66,0,0,1,6.32-1.89,16.83,16.83,0,0,1,4.24.5,9.69,9.69,0,0,1,2.79,1.09l-1.14,2.92a10.24,10.24,0,0,0-2.32-.94,12.33,12.33,0,0,0-3.57-.46,7.78,7.78,0,0,0-1.92.22,4.85,4.85,0,0,0-1.55.67,3.11,3.11,0,0,0-1.45,2.73,3.45,3.45,0,0,0,.41,1.74,4,4,0,0,0,1.15,1.24,9,9,0,0,0,1.72,1c.65.3,1.37.59,2.16.89,1.11.44,2.13.89,3.05,1.33a10.29,10.29,0,0,1,2.41,1.59,6.33,6.33,0,0,1,1.57,2.21,7.7,7.7,0,0,1,.56,3.08,6,6,0,0,1-2.46,5.18,11.53,11.53,0,0,1-6.94,1.82,17.21,17.21,0,0,1-2.79-.21,18.45,18.45,0,0,1-2.28-.48,12.2,12.2,0,0,1-1.72-.59c-.48-.21-.86-.39-1.13-.54l1.07-3a16.92,16.92,0,0,0,2.59,1.07A13.47,13.47,0,0,0,187.22,218Z"/><path class="cls-1" d="M206.9,218q5.63,0,5.63-3.85a3.84,3.84,0,0,0-.5-2,5,5,0,0,0-1.35-1.45,9.49,9.49,0,0,0-2-1c-.72-.3-1.49-.59-2.31-.89a22.75,22.75,0,0,1-2.66-1.09,9.66,9.66,0,0,1-2.19-1.44,6.37,6.37,0,0,1-1.46-2,6.51,6.51,0,0,1-.53-2.78,6.41,6.41,0,0,1,2.29-5.25,9.67,9.67,0,0,1,6.33-1.89,16.81,16.81,0,0,1,4.23.5,9.77,9.77,0,0,1,2.8,1.09l-1.15,2.92a10.32,10.32,0,0,0-2.31-.94,12.42,12.42,0,0,0-3.57-.46,7.92,7.92,0,0,0-1.93.22,4.85,4.85,0,0,0-1.55.67,3.13,3.13,0,0,0-1.44,2.73,3.45,3.45,0,0,0,.4,1.74,4.21,4.21,0,0,0,1.15,1.24,9.34,9.34,0,0,0,1.72,1c.65.3,1.38.59,2.17.89,1.11.44,2.12.89,3.05,1.33a10.43,10.43,0,0,1,2.4,1.59,6.35,6.35,0,0,1,1.58,2.21,7.71,7.71,0,0,1,.55,3.08,6,6,0,0,1-2.46,5.18,11.51,11.51,0,0,1-6.94,1.82,17.21,17.21,0,0,1-2.79-.21,18.86,18.86,0,0,1-2.28-.48,12.66,12.66,0,0,1-1.72-.59c-.48-.21-.85-.39-1.13-.54l1.08-3a16.92,16.92,0,0,0,2.59,1.07A13.4,13.4,0,0,0,206.9,218Z"/><path id="WordPress" class="cls-1" d="M32.81,77.5A77.5,77.5,0,1,0,110.31,0,77.49,77.49,0,0,0,32.81,77.5Zm6,0A71.42,71.42,0,0,1,45,48.39L79.1,141.87A71.53,71.53,0,0,1,38.78,77.5ZM110.31,149a71.7,71.7,0,0,1-20.21-2.91l21.47-62.35,22,60.22a6.45,6.45,0,0,0,.51,1A71.32,71.32,0,0,1,110.31,149Zm57.81-72.87c4.08-10.21,5.44-18.36,5.44-25.62a53,53,0,0,0-.49-7.36,71.54,71.54,0,0,1-26.8,96.14Zm-15.43-22c2.72,4.76,5.91,10.89,5.91,19.73q0,9.19-5.45,23.13L146,120.84,120.16,44c4.32-.24,8.19-.68,8.19-.68,3.85-.46,3.39-6.12-.45-5.9,0,0-11.59.91-19.07.91-7,0-18.83-.91-18.83-.91-3.86-.22-4.31,5.67-.46,5.9,0,0,3.65.44,7.51.68L108.18,74.5,92.53,121.44,66.48,44c4.32-.24,8.2-.68,8.2-.68,3.85-.46,3.38-6.12-.46-5.9,0,0-11.58.91-19.07.91-1.34,0-2.92,0-4.6-.08A71.48,71.48,0,0,1,158.61,24.76c-.31,0-.61-.06-.92-.06-7,0-12,6.12-12,12.69C145.68,43.29,149.07,48.27,152.69,54.16Z"/></g></g></svg>